<?xml version="1.0" standalone="no"?>
<!DOCTYPE svg PUBLIC "-//W3C//DTD SVG 1.1//EN" "http://www.w3.org/Graphics/SVG/1.1/DTD/svg11.dtd" >
<svg xmlns="http://www.w3.org/2000/svg" xmlns:xlink="http://www.w3.org/1999/xlink" version="1.1">
<metadata></metadata>
<defs>
<font id="square721_dmnormal" horiz-adv-x="1444" >
<font-face units-per-em="2048" ascent="1638" descent="-410" />
<missing-glyph horiz-adv-x="721" />
<glyph horiz-adv-x="0" />
<glyph unicode="&#xd;" horiz-adv-x="0" />
<glyph unicode=" "  horiz-adv-x="721" />
<glyph unicode="&#x09;" horiz-adv-x="721" />
<glyph unicode="&#xa0;" horiz-adv-x="721" />
<glyph unicode="!" horiz-adv-x="633" d="M168 1536h293l-17 -1020h-256zM188 0v280h256v-280h-256z" />
<glyph unicode="&#x22;" horiz-adv-x="973" d="M104 1268v268h281v-268l-86 -260h-111zM588 1268v268h280v-268l-84 -260h-112z" />
<glyph unicode="#" d="M160 364v236h248l53 272h-217v236h260l20 121l56 307h192l-80 -428h224l80 428h188l-80 -428h184v-236h-221l-47 -272h209v-236h-261l-69 -364h-187l68 364h-225q-21 -128 -67 -364h-191l67 364h-204zM600 600h228l52 272h-233z" />
<glyph unicode="$" d="M51 500h256q1 -128 17 -168q36 -86 145 -96q80 -8 168 -8v428l-161 18q-180 20 -270 75q-54 33 -90 87q-56 86 -56 256q0 222 80 319q76 93 229 122q84 15 268 15v148h164v-148q146 -4 213 -14q128 -18 199 -68q127 -88 127 -370h-256q0 147 -56 180q-46 28 -154 30 q-54 0 -73 2v-409q198 -9 310 -31q117 -24 181 -84q102 -98 100 -340q-4 -298 -180 -384q-147 -72 -411 -72v-160h-164v160q-337 0 -465 108q-81 70 -106 186q-15 68 -15 218zM336 1092q0 -156 142 -179q61 -10 159 -14v409q-62 0 -185 -16q-24 -6 -52 -20q-64 -32 -64 -180 zM801 228q175 0 239 36q72 54 72 172q0 178 -120 204q-61 14 -191 16v-428z" />
<glyph unicode="%" horiz-adv-x="1851" d="M43 1044v236q-1 148 61 209q60 59 228 59h40q106 0 140 -4q92 -12 135 -55q65 -65 65 -225v-216q0 -166 -71 -224q-67 -56 -241 -56h-56q-174 0 -232 56q-70 66 -69 220zM219 1036q1 -62 25 -88q22 -24 128 -24q116 0 144 32q20 32 20 140v168q0 84 -24 108 q-20 20 -85 22q-35 0 -55 2q-38 0 -104 -8q-18 -5 -28 -16q-20 -28 -21 -96v-240zM352 0l971 1536h197l-975 -1536h-193zM1145 264v236q0 106 42 177q39 66 136 83q45 8 149 8q211 0 277 -64q63 -62 63 -220v-220q0 -160 -76 -223q-64 -53 -264 -53h-40q-158 0 -220 53 q-68 60 -67 223zM1317 268q1 -78 23 -100q24 -24 132 -24q119 0 144 32q20 34 20 140v163q0 88 -24 113q-20 20 -100 20h-107q-53 -8 -72 -38q-16 -24 -16 -82v-224z" />
<glyph unicode="&#x26;" horiz-adv-x="1599" d="M121 465q0 223 65 313q64 88 230 106q-132 102 -132 248q0 222 88 316q72 76 238 93q72 7 158 7q312 0 405 -102q83 -92 83 -379h-252q-1 45 -3 89q-3 50 -18 87q-21 65 -203 65q-136 0 -172 -28q-46 -36 -49 -116q-1 -44 11 -84q16 -52 116 -134l70 -57l389 -340v207 h251v-156q0 -170 -32 -236l219 -196l-139 -168l-180 156q-76 -130 -262 -156q-86 -12 -201 -12h-80q-116 0 -253 14q-207 21 -295 190q-52 100 -52 273zM396 469q0 -168 83 -213q55 -22 147 -25q106 -3 101 -3q96 0 176 6q112 10 168 86l-503 428q-146 -23 -164 -125 q-8 -50 -8 -154z" />
<glyph unicode="'" horiz-adv-x="475" d="M100 1004v120q68 0 96 34q24 30 23 102h-98v276h256v-264q1 -160 -49 -211q-50 -53 -184 -61q-14 4 -44 4z" />
<glyph unicode="(" horiz-adv-x="712" d="M129 324v552q1 201 7 276q16 176 73 259q76 108 241 127q60 6 154 10v-240q-104 -7 -135 -36q-65 -44 -65 -207v-856q0 -24 -4 -41q3 -76 12 -112q16 -58 61 -89t135 -31v-243q-143 1 -241 25q-101 26 -154 94q-55 72 -69 198q-14 124 -15 314z" />
<glyph unicode=")" horiz-adv-x="712" d="M112 -64h17q88 0 131 40q52 46 52 216v888q0 116 -32 159q-50 69 -168 69v240q270 0 376 -100q104 -99 104 -467v-629q0 -192 -7 -268q-16 -170 -73 -252q-96 -139 -400 -139v243z" />
<glyph unicode="*" d="M312 1196l52 144l279 -101v297h158v-297l279 101l52 -156l-280 -92l164 -240l-119 -92l-170 248l-187 -248l-120 92l172 240z" />
<glyph unicode="+" horiz-adv-x="1196" d="M100 479v197h400v399h196v-399h396v-197h-396v-395h-196v395h-400z" />
<glyph unicode="," horiz-adv-x="721" d="M180 -140q123 0 123 140h-103v276h261v-248q0 -124 -26 -184q-38 -90 -142 -100q-44 -4 -113 -4v120z" />
<glyph unicode="-" horiz-adv-x="545" d="M0 465v199h545v-199h-545z" />
<glyph unicode="." horiz-adv-x="721" d="M180 0v280h260v-280h-260z" />
<glyph unicode="/" horiz-adv-x="1396" d="M-12 -232l1188 1768h233l-1194 -1768h-227z" />
<glyph unicode="0" d="M88 620v336q0 98 14 209q24 202 142 291q102 62 252 82q86 10 268 10q184 0 298 -34q110 -34 177 -113q63 -75 91 -192q26 -119 26 -306v-299q0 -158 -22 -278q-22 -119 -97 -201q-72 -80 -186 -106q-127 -29 -299 -31q-192 -2 -326 24q-219 42 -290 232q-48 128 -48 376 zM364 545q0 -188 56 -256q50 -61 288 -61q202 0 263 24q38 16 61 47q26 35 36 93q12 78 12 157v415q0 218 -56 279q-60 65 -299 65q-136 0 -197 -10q-58 -10 -92 -38q-40 -32 -55 -91q-17 -60 -17 -233v-391z" />
<glyph unicode="1" d="M160 1071l492 465h356v-1536h-281v1288l-399 -395z" />
<glyph unicode="2" d="M125 0v303q1 244 103 338q82 75 272 109l180 30q84 10 228 46q36 14 56 42q40 52 40 180q0 160 -52 208q-48 52 -231 52q-189 0 -250 -32q-55 -38 -63 -176q-4 -65 -4 -113h-279q0 1 4 153q9 306 267 375q126 33 325 33q335 0 457 -120q106 -106 106 -348 q0 -140 -20 -235t-96 -161q-86 -76 -246 -101l-146 -24q-83 -9 -244 -46q-124 -44 -124 -165q-4 -36 -4 -108h880v-240h-1159z" />
<glyph unicode="3" d="M121 516h279q0 -110 11 -165.5t41 -82t74 -33.5q46 -7 111 -7h135q149 0 201 32q59 44 59 184q0 134 -45 184q-41 44 -195 44h-188v225q123 0 172 -4q118 9 144 15q88 34 88 228q0 86 -27 124q-49 48 -281 48q-92 0 -144 -6q-55 -8 -85.5 -30t-42.5 -76q-12 -52 -12 -152 h-281q1 214 57 325q27 53 72 91q80 66 232 82q76 6 176 6q292 0 412 -44q52 -20 92 -52q65 -54 88 -142q28 -104 24 -235q-8 -261 -240 -287l-4 -8q98 -8 155 -42q60 -37 85 -101q29 -73 29 -181q-1 -330 -189 -415q-118 -53 -444 -53q-204 0 -299 24q-73 18 -121 52 q-84 59 -112 185q-27 122 -27 267z" />
<glyph unicode="4" d="M60 328v319l680 889h436v-987h180v-221h-180v-328h-279v328h-837zM293 549h604v774h-8z" />
<glyph unicode="5" d="M135 440h281q0 -181 136 -204q48 -8 152 -8q26 0 44 -5q90 5 116 9q72 12 104 44q56 44 56 236q0 182 -37 236q-30 43 -88 55q-66 14 -182 16q-8 0 -90 -1q-105 -2 -155 -37q-30 -22 -40 -64h-260v819h1071v-223h-811v-381h4q76 129 365 129q292 0 403 -125 q58 -66 78 -167q21 -115 22 -241q4 -334 -128 -440q-80 -66 -180 -82q-106 -18 -288 -18q-154 0 -254 12q-96 12 -174 64q-136 90 -145 376z" />
<glyph unicode="6" d="M125 545v491q0 314 139 416q78 58 177 76q107 20 259 20q164 2 290 -15q112 -16 182 -77q112 -100 112 -348h-280q0 120 -52 164q-49 32 -184 32h-127q-151 0 -197 -52q-40 -39 -40 -220v-244h4q36 96 140 129q64 19 200 19q166 0 240 -10q153 -20 216 -90 q92 -102 92 -344q0 -211 -56 -322q-72 -138 -282 -168q-104 -14 -262 -14q-189 0 -291 24q-71 18 -129 56q-152 100 -151 477zM404 461q0 -164 71 -201q63 -32 229 -32q39 0 60 -5q88 5 104 7q72 8 96 30q52 46 52 211q0 131 -35 172t-129 51q-30 2 -144 2h-52 q-166 0 -212 -44q-40 -42 -40 -191z" />
<glyph unicode="7" d="M131 1284v252h1141v-284l-629 -1252h-315l663 1284h-860z" />
<glyph unicode="8" d="M123 459q-1 189 105 269q60 46 168 60v8q-166 32 -216 132q-32 64 -32 192l-4 29q0 89 28 172q27 80 92 131q44 34 84 52q109 44 416 44q150 0 214 -8q126 -16 198 -72q124 -96 124 -328q0 -223 -97 -290q-52 -36 -142 -54v-8q196 -25 242 -181q20 -70 20 -155 q-1 -308 -157 -396q-78 -44 -190 -56q-126 -14 -304 -12q-130 1 -230 15q-199 29 -272 180q-42 87 -45 225q0 8 -1 26q-1 16 -1 25zM400 448q0 -128 40 -168q34 -33 93 -42q61 -10 155 -10h68q184 0 235 48q53 36 53 176q0 130 -40 172q-47 48 -283 48q-227 0 -277 -48 q-28 -26 -36 -68t-8 -108zM424 1132q0 -158 60 -200q32 -22 92 -29q58 -6 164 -6h44q71 -1 125 9q43 8 68 38q43 52 43 192q0 90 -39 132q-46 40 -250 40q-225 0 -266 -36t-41 -140z" />
<glyph unicode="9" d="M121 428h279q4 -80 16 -118q14 -40 53 -58q46 -22 168 -29q25 5 71 5q138 0 196 10q54 10 87 46q51 58 49 200l-4 264h-4q-70 -120 -216 -139q-67 -9 -169 -9q-149 0 -249 22q-98 20 -162 86q-100 102 -101 357q0 296 125 391q101 77 282 88q74 4 175 4q255 0 378 -51 q83 -35 134 -109q88 -126 88 -516v-428q1 -250 -137 -356q-102 -78 -300 -94q-94 -6 -224 -6q-262 0 -367 59q-168 96 -168 381zM412 1061q0 -131 40 -172q36 -36 144 -45q58 -4 125 -4q73 0 131 4q104 8 142 44q42 40 42 140v56q0 132 -55 176q-41 32 -118 40q-30 4 -70 6 q-26 2 -76 2q-217 2 -261 -48q-44 -43 -44 -199z" />
<glyph unicode=":" horiz-adv-x="721" d="M180 0v280h260v-280h-260zM180 792v283h260v-283h-260z" />
<glyph unicode=";" horiz-adv-x="721" d="M180 -140q72 0 99 35q24 30 24 105h-103v276h261v-235q1 -191 -49 -241q-52 -54 -147 -58q-42 -2 -85 -2v120zM200 792v283h261v-283h-261z" />
<glyph unicode="&#x3c;" horiz-adv-x="1196" d="M100 508v144l992 423v-207l-711 -288l711 -291v-205z" />
<glyph unicode="=" horiz-adv-x="1196" d="M100 280v199h992v-199h-992zM100 680v196h992v-196h-992z" />
<glyph unicode="&#x3e;" horiz-adv-x="1196" d="M100 84v205l715 291l-715 288v207l992 -423v-144z" />
<glyph unicode="?" horiz-adv-x="1220" d="M104 1067q0 329 128 409q114 72 392 72q300 0 400 -112q88 -100 88 -324q0 -129 -26 -198q-34 -90 -130 -146q-60 -26 -178 -78q-30 -14 -57 -38q-36 -26 -41 -56q-8 -24 -8 -108h-260q0 114 6 152q12 84 61 136q49 50 149 92q30 12 85 32q74 28 102 64q41 52 41 152 q0 128 -41 168q-25 30 -71 38q-54 10 -136 9q-92 -3 -146 -13q-50 -10 -71 -38q-25 -32 -31 -121q4 -11 4 -31v-61h-260zM412 0v280h260v-280h-260z" />
<glyph unicode="@" horiz-adv-x="1997" d="M180 684q2 10 4 41q10 156 84 308q152 313 468 449q159 68 325 66q139 -2 279 -54q288 -110 410 -372q64 -136 62 -290q-2 -110 -62 -232q-58 -116 -156 -192q-102 -78 -218 -80q-78 -2 -132 22q-51 22 -99 98q-125 -112 -265 -120q-131 10 -211 97q-77 86 -85 218 q6 123 71 243q64 118 165 192q104 78 228 77q64 0 120 -35q59 -38 75 -96h4l25 104h160l-144 -532q0 -20 -4 -33q5 -75 84 -75q105 0 176 120q86 146 88 252q4 103 -48 204q-100 192 -320 274q-103 38 -207 38q-175 0 -333 -94q-153 -92 -247 -242q-96 -153 -96 -323 q1 -241 187 -402q180 -155 432 -159q12 4 28 4q174 0 320 59l61 -155q-152 -72 -381 -76q-148 -3 -307 43q-326 94 -467 352q-72 132 -74 301zM780 664q4 -12 4 -36q16 -140 136 -140q158 0 226 198q30 84 30 162q0 90 -56 129q-64 25 -104 23q-110 -4 -169 -109t-67 -227z " />
<glyph unicode="A" horiz-adv-x="1452" d="M-8 0l512 1536h432l524 -1536h-301l-98 289h-665l-99 -289h-305zM461 512h530l-264 801h-2z" />
<glyph unicode="B" horiz-adv-x="1468" d="M129 0v1536h770q259 0 357 -96q92 -90 92 -304q0 -178 -64 -256q-48 -60 -156 -84v-8q208 -24 243 -199q13 -71 13 -161q0 -246 -108 -340q-102 -88 -348 -88h-799zM424 252h440q80 0 127 12q97 34 97 188q0 126 -40 172q-46 44 -168 44h-456v-416zM424 893h404 q72 0 96 4q128 21 128 211q0 102 -36 139q-19 18 -54 27q-40 10 -130 10h-408v-391z" />
<glyph unicode="C" horiz-adv-x="1423" d="M76 756q0 364 34 483q24 85 78 153q52 64 142 100q144 56 397 56q257 0 367 -30q156 -43 208 -190q38 -109 38 -308h-292v96q0 92 -44 136q-48 44 -256 44h-44q-208 0 -272 -62.5t-64 -256.5v-401q0 -228 76 -283q50 -37 108 -45q61 -8 169 -8q131 0 176 4q80 16 119 53 q32 33 41 101q5 40 8 151h291v-133q0 -232 -113 -328q-91 -78 -303 -92q-86 -6 -176 -8l-121 -4q-319 0 -443 124q-105 106 -118 347q-6 107 -6 301z" />
<glyph unicode="D" horiz-adv-x="1544" d="M125 0v1536h739q408 0 528 -219q72 -132 72 -377v-328q0 -408 -231 -544q-115 -68 -309 -68h-799zM420 252h444q90 0 138 18q61 22 106 86q60 86 60 296v276q0 128 -11 177q-21 101 -95 141q-70 38 -218 38h-424v-1032z" />
<glyph unicode="E" horiz-adv-x="1267" d="M112 0v1536h1056v-252h-760v-385h720v-239h-720v-408h764v-252h-1060z" />
<glyph unicode="F" horiz-adv-x="1192" d="M116 0v1536h1020v-252h-724v-408h684v-243h-684v-633h-296z" />
<glyph unicode="G" horiz-adv-x="1489" d="M68 549v383q0 244 58 372q68 146 222 198q138 46 396 46h112q149 0 219 -10q125 -18 201 -78q129 -102 129 -340v-49h-293q0 127 -55 176t-293 49q-150 0 -222 -12q-77 -14 -114 -47q-64 -61 -64 -281v-368q0 -216 60 -285q52 -47 152 -59q34 -4 172 -4q72 0 104 -4 q142 6 205 61q55 48 55 252v43h-387v223h684v-299q0 -144 -24.5 -255t-108.5 -173q-95 -72 -293 -92q-81 -8 -239 -8q-264 0 -395 42q-80 26 -144 82q-137 122 -137 437z" />
<glyph unicode="H" horiz-adv-x="1577" d="M131 0v1536h297v-628h717v628h295v-1536h-295v656h-717v-656h-297z" />
<glyph unicode="I" horiz-adv-x="563" d="M131 0v1536h297v-1536h-297z" />
<glyph unicode="J" horiz-adv-x="1192" d="M56 469q4 43 4 131h284q0 -131 -4 -180q6 -104 45 -144q25 -24 55 -30q32 -6 113 -6q155 0 191 44q32 40 32 185v1067h295v-1071q0 -128 -22 -230q-23 -103 -97 -163q-44 -36 -102 -56q-88 -28 -291 -28q-222 0 -332 50q-60 26 -98 78q-55 74 -65 188q-6 57 -8 165z" />
<glyph unicode="K" horiz-adv-x="1464" d="M131 0v1536h297v-628h140l512 628h360l-621 -752l684 -784h-371l-564 656h-140v-656h-297z" />
<glyph unicode="L" horiz-adv-x="1155" d="M131 0v1536h297v-1284h721v-252h-1018z" />
<glyph unicode="M" horiz-adv-x="2064" d="M131 0v1536h477l416 -1140h8l412 1140h483v-1536h-295l25 1296h-9l-484 -1296h-265l-487 1288h-8l16 -571l8 -717h-297z" />
<glyph unicode="N" horiz-adv-x="1691" d="M131 0v1536h489l660 -1284h8l-24 1284h296v-1536h-493l-651 1284h-12l16 -637l8 -647h-297z" />
<glyph unicode="O" horiz-adv-x="1464" d="M80 553v420q0 294 88 420t334 147q98 8 225 8q275 0 421 -54q94 -36 140 -106q96 -104 96 -384v-496q0 -139 -26 -215q-28 -79 -74 -145q-52 -72 -150 -109q-140 -51 -446 -51q-176 0 -296 25q-116 24 -196 108q-116 120 -116 432zM368 991q4 -18 4 -47v-364 q0 -192 44 -260q34 -53 102 -67q86 -17 207 -17q125 0 205 20q68 18 106 64q52 76 52 233v463q0 150 -52 208q-50 56 -160 68q-38 4 -145 4q-277 0 -323 -100q-30 -68 -40 -205z" />
<glyph unicode="P" horiz-adv-x="1405" d="M112 0v1536h672q180 0 310 -34q135 -36 190.5 -151.5t55.5 -334.5q0 -282 -97 -400q-100 -120 -387 -120h-448v-496h-296zM408 748h372q160 0 207 40q41 38 49 74q10 52 12 142v16q0 132 -32 188q-24 41 -76 58.5t-152 17.5h-380v-536z" />
<glyph unicode="Q" horiz-adv-x="1569" d="M104 768v135q0 99 10 209q14 176 101 280q101 122 343 146q102 10 230 10q274 0 414 -53q76 -29 129 -84q61 -63 89 -131q44 -110 44 -372v-275q0 -248 -28 -330l147 -98l-115 -172l-137 98q-111 -114 -319 -134q-96 -9 -232 -9q-264 0 -386 38q-186 58 -244 240 q-46 140 -46 502zM400 633q0 -131 4 -175q13 -112 61 -159q44 -43 134 -55q39 -4 149 -4q68 0 92 -4q109 10 129 14q73 14 119 49l-376 246l120 176l327 -225q0 42 4.5 126t4.5 126v164q0 130 -8 194q-8 68 -36 106q-36 48 -120 67q-82 17 -232 17q-126 0 -184 -12 q-110 -22 -152 -92q-36 -62 -36 -240v-319z" />
<glyph unicode="R" horiz-adv-x="1480" d="M125 0v1536h755q299 0 404 -116q92 -102 92 -340q0 -254 -68 -336q-62 -75 -204 -101v-6q134 -13 204 -92q56 -89 56 -261v-284h-297v232q0 168 -47 220q-50 56 -188 56h-412v-508h-295zM420 760h424q136 0 192 59q44 55 44 213q0 145 -36 197q-44 55 -208 55h-416v-524z " />
<glyph unicode="S" horiz-adv-x="1380" d="M68 488h292q0 -26 -4 -44q2 -65 8 -89q10 -52 39.5 -78.5t78.5 -36.5q56 -10 138 -12q49 -2 64 -5q108 5 135 7q89 10 129 34q68 40 68 192q0 108 -43 152q-13 14 -41 24q-38 14 -112 19q-27 3 -85 5l-155 6q-168 8 -268 40q-62 20 -107 54q-125 94 -129 336v17 q0 247 116 343t460 96q220 0 292 -8q138 -16 215.5 -80t103.5 -172q17 -70 17 -204h-297v61q-1 85 -31 119q-37 40 -184 40h-121q-174 0 -227 -40q-28 -22 -40 -55q-12 -34 -12 -86v-15q2 -68 14 -110q16 -58 120 -78q44 -8 105 -13l114 -8q195 -11 257 -21q170 -24 234 -80 q62 -54 84 -157q10 -47 12 -81q2 -32 5 -116v-12q0 -115 -36 -214q-35 -98 -105 -150q-108 -80 -441 -80h-111q-154 0 -228 11q-132 20 -208 85q-98 84 -110 234q-6 64 -6 170z" />
<glyph unicode="T" horiz-adv-x="1204" d="M4 1284v252h1196v-252h-452v-1284h-296v1284h-448z" />
<glyph unicode="U" horiz-adv-x="1544" d="M131 444v1092h297v-1116q0 -96 60 -136q68 -44 264 -44q37 0 53 -4q102 4 136 8q81 12 124 49q51 44 51 182v1061h295v-1100q0 -244 -135 -352q-80 -64 -218 -80q-136 -16 -331 -16q-142 0 -243 13q-106 15 -185 59q-85 48 -127 152q-41 100 -41 226v6z" />
<glyph unicode="V" horiz-adv-x="1388" d="M-24 1536h300l412 -1292h4l412 1292h305l-497 -1536h-443z" />
<glyph unicode="W" horiz-adv-x="2279" d="M-8 1536h297l319 -1296h8l352 1296h340l344 -1296h9l331 1296h296l-412 -1536h-428l-308 1172h-8l-317 -1172h-424z" />
<glyph unicode="X" horiz-adv-x="1419" d="M-24 0l508 792l-472 744h344l361 -612l350 612h342l-461 -744l492 -792h-340l-383 647l-393 -647h-348z" />
<glyph unicode="Y" horiz-adv-x="1372" d="M-24 1536h336l364 -656h8l373 656h339l-568 -948v-588h-296v588z" />
<glyph unicode="Z" horiz-adv-x="1327" d="M47 0v248l850 1036h-809v252h1176v-252l-848 -1032h860v-252h-1229z" />
<glyph unicode="[" horiz-adv-x="712" d="M121 -307v1855h475v-225h-196v-1407h196v-223h-475z" />
<glyph unicode="\" horiz-adv-x="567" d="M-72 1536h203l506 -1536h-201z" />
<glyph unicode="]" horiz-adv-x="712" d="M116 -84h196v1407h-196v225h476v-1855h-476v223z" />
<glyph unicode="^" horiz-adv-x="1196" d="M100 545l424 991h144l424 -991h-203l-293 711l-293 -711h-203z" />
<glyph unicode="_" horiz-adv-x="1024" d="M0 -156h1024v-151h-1024v151z" />
<glyph unicode="`" horiz-adv-x="760" d="M156 1356l92 168l360 -236l-55 -108z" />
<glyph unicode="a" horiz-adv-x="1208" d="M88 324q0 184 92 260t308 76q168 0 244 -40q52 -28 77 -84h10v164q-1 104 -23 144q-18 30 -56 49q-40 19 -130 19h-18q-62 -2 -112 -8q-26 -4 -56 -28q-37 -35 -37 -116h-258q1 198 111 268q93 60 305 60h35q306 0 403 -88q92 -82 92 -288v-712h-256l13 131l-8 4 q-36 -98 -143 -129q-62 -18 -202 -18q-224 0 -311 88q-80 82 -80 248zM344 328q0 -132 90 -154q46 -10 134 -10q180 0 224 59q26 43 27 109q0 92 -65 122q-66 30 -158 30h-12q-84 -2 -143 -12q-38 -6 -64 -36q-33 -38 -33 -108z" />
<glyph unicode="b" horiz-adv-x="1216" d="M116 0v1536h261v-604h10q40 92 125 124q83 32 188 32h12q120 -2 196 -26q70 -24 120 -79q92 -102 92 -379v-84q0 -218 -36 -325q-52 -148 -202 -188q-74 -19 -182 -19q-248 0 -328 172h-8l13 -160h-261zM372 516q6 -104 10 -134q10 -82 38 -126q44 -72 196 -72 q64 0 112 11q45 11 83 49q34 36 43.5 112.5t9.5 183.5q0 210 -40 279q-42 70 -191 70h-37q-126 0 -176 -74q-43 -63 -43 -252q-1 -26 -5 -47z" />
<glyph unicode="c" horiz-adv-x="1128" d="M92 524q0 158 10 230q18 130 82 210q60 76 154 98q100 24 238 26h20q99 0 199 -18q101 -18 149 -54q121 -88 121 -320h-256q0 100 -33 140q-37 57 -195 57h-5h-4q-144 0 -185 -65q-31 -50 -39 -204q4 -20 4 -65q0 -93 -4 -147l12 -100q10 -55 40 -89q39 -35 153 -43 q14 4 39 4q81 0 116.5 8t59.5 31q37 35 37 149v36h260q-1 -256 -105 -340q-98 -80 -376 -80q-144 0 -208 11q-118 20 -184 89q-80 84 -93 239q-7 77 -7 197z" />
<glyph unicode="d" horiz-adv-x="1216" d="M84 520q0 212 12 281q22 118 84 182q54 53 119 77q77 26 193 28h7q257 0 320 -156h9v604h260v-1536h-260l12 160h-8q-78 -172 -328 -172q-212 0 -304 88q-54 52 -78 122q-38 110 -38 322zM340 532q0 -230 51 -288q47 -54 162 -64q56 4 166 28q37 12 61 44q44 54 44 264 v52q0 90 -9 144q-27 180 -243 181q-148 0 -191 -74q-41 -73 -41 -287z" />
<glyph unicode="e" horiz-adv-x="1167" d="M84 553q0 320 108 428q108 107 361 107h27q288 -6 380 -88q98 -86 114 -290q6 -76 10 -222h-740q0 -35 -4 -60q4 -78 12 -116q16 -72 56 -97q64 -31 188 -31q146 0 188 35q40 32 40 121h260q0 -198 -101 -280q-88 -72 -387 -72q-206 0 -310 40q-154 60 -184 259 q-18 114 -18 266zM344 652h480q0 159 -36 196q-28 30 -94 38q-18 2 -114 7q-78 -5 -106 -9q-67 -11 -93 -40q-37 -42 -37 -192z" />
<glyph unicode="f" horiz-adv-x="712" d="M28 876v199h152v105q0 212 84 288q74 68 260 68h168v-196h-76q-98 0 -132 -23q-48 -31 -48 -149v-93h264v-199h-264v-876h-256v876h-152z" />
<glyph unicode="g" horiz-adv-x="1216" d="M84 471v101q0 264 74 376q92 140 338 140q128 0 199 -33q89 -39 137 -143h8l-8 163h256v-1079q0 -286 -111 -383q-105 -92 -405 -92h-6q-251 0 -347 83q-60 52 -78 130q-12 50 -12 154h243q0 -90 32 -128q34 -40 168 -40q164 0 212 40q56 46 56 184v208h-8 q-70 -164 -332 -164q-229 0 -324 108q-92 106 -92 375zM344 488q0 -178 43 -236q51 -68 185 -68q158 0 209 67.5t51 284.5v23q0 209 -64 277q-65 57 -192 57h-4h-4q-127 0 -177 -57q-47 -54 -47 -248v-100z" />
<glyph unicode="h" horiz-adv-x="1224" d="M125 0v1536h260v-624h6q52 144 199 166q60 10 141 10q192 0 280.5 -84.5t88.5 -286.5v-717h-260v684q0 65 -9 106.5t-39 65.5q-44 34 -151 37h-20q-127 0 -177 -61q-59 -56 -59 -222v-6v-604h-260z" />
<glyph unicode="i" horiz-adv-x="483" d="M112 0v1075h256v-1075h-256zM112 1317v219h256v-219h-256z" />
<glyph unicode="j" horiz-adv-x="461" d="M-24 -180h24q100 0 100 139v1116h260v-1103q0 -218 -100 -300q-61 -49 -179 -49h-5q-48 1 -100 9v188zM100 1317v219h260v-219h-260z" />
<glyph unicode="k" horiz-adv-x="1104" d="M125 0v1536h256v-880h63l304 419h288l-380 -507l460 -568h-311l-361 479h-63v-479h-256z" />
<glyph unicode="l" horiz-adv-x="516" d="M129 0v1536h258v-1536h-258z" />
<glyph unicode="m" horiz-adv-x="1892" d="M129 0v1075h248v-155h10q71 168 338 168q279 0 319 -191h8q52 139 200 173q72 16 144 18h12q142 0 222 -47q82 -49 113 -143q21 -66 21 -186v-712h-261v672q1 160 -67 199q-38 22 -107 22h-6q-130 -2 -189 -58q-59 -57 -59 -207v-628h-260v684q-1 114 -35 162 q-34 47 -139 47h-4q-134 -2 -192 -59.5t-58 -217.5v-616h-258z" />
<glyph unicode="n" horiz-adv-x="1224" d="M125 0v1075h260v-163h6q52 144 199 166q64 10 141 10q280 -2 340 -170q29 -80 29 -210v-708h-260v676q0 160 -74 196q-43 21 -125 21h-4q-134 0 -197 -65q-30 -32 -42 -86q-12 -56 -13 -158v-584h-260z" />
<glyph unicode="o" horiz-adv-x="1192" d="M88 504q0 354 84 460q98 124 424 124q197 0 300 -38q62 -23 104 -63q68 -65 84 -167q18 -114 20 -288v-26q0 -142 -20 -256q-20 -116 -97 -178q-65 -52 -165 -68q-98 -16 -230 -16q-216 0 -322 46q-66 29 -106 87q-76 110 -76 383zM348 532q0 -218 37 -280 q40 -68 211 -68q160 0 205 56q43 64 43 292q0 244 -43 300q-31 38 -95 50q-25 6 -110 11q-84 -5 -107 -10q-61 -11 -93 -47q-48 -52 -48 -304z" />
<glyph unicode="p" horiz-adv-x="1220" d="M121 -469v1544h260l-13 -163h9q77 176 335 176q342 0 392 -262q22 -116 24 -271v-31q0 -140 -16 -252q-16 -108 -80 -180q-94 -104 -324 -104q-250 0 -317 152h-10v-609h-260zM377 584q4 -24 4 -76q0 -194 43 -252q53 -72 213 -72q153 0 191 68q40 70 40 284 q0 240 -57 296q-31 36 -71 46q-52 14 -103 15h-11q-147 0 -202 -78q-40 -57 -47 -231z" />
<glyph unicode="q" horiz-adv-x="1224" d="M88 444q4 26 4 76q0 172 14 255q25 153 103 225q51 48 121 66q80 22 178 22h6q245 0 326 -176h8l-12 163h260v-1544h-260v613h-8q-66 -156 -328 -156q-121 0 -192 23q-73 24 -124 81.5t-72 145.5q-20 84 -24 206zM344 484q4 -85 9 -118q10 -69 38 -110q49 -72 189 -72 q156 0 212 72q44 55 44 252v45q0 195 -44 258q-55 82 -202 82h-14q-48 -1 -102 -12q-36 -8 -66 -37q-60 -58 -60 -312q0 -28 -4 -48z" />
<glyph unicode="r" horiz-adv-x="964" d="M108 0v1075h252l-8 -143h12q68 156 283 156q101 0 157 -30q60 -32 89 -85q39 -71 39 -217v-92h-240q0 176 -42 206q-30 22 -91 23h-7q-90 -1 -138 -55q-50 -56 -50 -178v-660h-256z" />
<glyph unicode="s" horiz-adv-x="1140" d="M84 336h260q0 -122 56 -152q30 -16 132 -24q20 4 52 4h20q29 0 39 -4q92 4 128 28q48 32 48 115q0 89 -59 117q-62 28 -168 32q-196 6 -224 8q-150 14 -208 64q-76 65 -76 236v32q0 111 41 174.5t123 90.5q94 31 324 31q256 0 344 -56q120 -76 120 -252h-256 q0 84 -66 114q-42 18 -142 18q-126 0 -181 -23q-47 -34 -47 -121q0 -44 14 -70q14 -28 66 -38q67 -12 180 -13q365 -3 433 -135q38 -76 38 -210q0 -107 -45 -173q-78 -116 -274 -134q-82 -7 -193 -7h-14q-293 0 -377 72q-88 91 -88 276z" />
<glyph unicode="t" horiz-adv-x="872" d="M-4 876v199h133v246h258v-246h414v-199h-414v-556q0 -104 40 -124q25 -12 73 -12q128 0 128 160v68h228q0 -238 -64 -324q-74 -100 -292 -100q-228 0 -299.5 72t-71.5 264v552h-133z" />
<glyph unicode="u" horiz-adv-x="1216" d="M125 289v786h260v-703q0 -118 35 -149q42 -39 148 -39q154 0 212 76q48 60 48 188v627h256v-1075h-248v164h-8q-70 -176 -344 -176q-358 0 -359 301z" />
<glyph unicode="v" horiz-adv-x="1003" d="M-4 1075h264l252 -899h4l236 899h272l-312 -1075h-392z" />
<glyph unicode="w" horiz-adv-x="1632" d="M4 1075h252l184 -899h4l212 899h321l207 -899h8l184 899h252l-244 -1075h-372l-193 864h-8l-191 -864h-372z" />
<glyph unicode="x" horiz-adv-x="1024" d="M-12 0l356 563l-316 512h296l188 -344l184 344h300l-312 -512l348 -563h-305l-215 391l-215 -391h-309z" />
<glyph unicode="y" horiz-adv-x="991" d="M-12 1075h268l272 -915h4l208 915h264l-300 -1204q-28 -114 -70 -191t-114 -116t-213 -39q-72 0 -102 4v195q9 0 27.5 -2t27.5 -2q106 0 156 92q29 54 53 188h-125z" />
<glyph unicode="z" horiz-adv-x="973" d="M43 0v219l577 657h-528v199h832v-215l-580 -664h580v-196h-881z" />
<glyph unicode="{" horiz-adv-x="796" d="M76 532v195q168 1 168 101v452q0 176 142 243q54 25 89 25h197v-196h-56q-116 0 -116 -109v-419q0 -166 -197 -196v-4q197 -8 197 -228v-400q0 -108 104 -108h68v-195h-201q-114 1 -190 127q-37 62 -37 143v424q0 145 -168 145z" />
<glyph unicode="|" horiz-adv-x="571" d="M188 0v1536h197v-1536h-197z" />
<glyph unicode="}" horiz-adv-x="796" d="M125 -112h59q108 0 109 108v391q1 201 199 221v4q-104 10 -151.5 60t-47.5 156v432q-1 92 -101 92h-67v196h191q112 0 194 -116q44 -62 43 -156v-444q0 -124 168 -124v-196q-113 0 -149 -41q-15 -18 -23 -90q4 -12 4 -33v-376q0 -170 -135 -248q-56 -32 -98 -31h-195v195 z" />
<glyph unicode="~" horiz-adv-x="1196" d="M100 448q0 176 138 277q65 47 147 47q45 0 111 -37l221 -123q67 -36 119 -36q88 0 88 128h168q0 -168 -115 -270q-55 -49 -125 -49q-74 0 -260 94q-60 32 -183 88q-33 13 -57 13q-64 0 -80 -132h-172z" />
<glyph unicode="&#xa1;" horiz-adv-x="633" d="M168 -461l20 1020h256l17 -1020h-293zM188 796v279h256v-279h-256z" />
<glyph unicode="&#xa2;" d="M232 692q0 298 61 404q56 94 156 132q71 26 207 36v141h145v-141q202 -6 303 -88q106 -84 112 -304h-260q-4 70 -4 72q-6 36 -28 64q-28 42 -123 57v-709q87 12 119 44q36 34 36 128v52h260v-40q0 -216 -100 -296q-95 -76 -315 -84v-172h-145v172q-202 0 -304 88 q-120 105 -120 444zM488 680q0 -142 21 -204q37 -104 147 -120v709q-80 -6 -124 -78q-44 -74 -44 -307z" />
<glyph unicode="&#xa3;" d="M100 580v225h199v279q0 264 108.5 364t407.5 100h65q308 0 400 -100q96 -106 96 -396h-280v72q0 100 -31 132q-49 52 -225 52q-158 0 -207 -40q-49 -43 -57 -211q4 -25 4 -70v-182h411v-225h-411v-72q0 -100 -18 -152q-24 -70 -93 -116l2 -4l917 12v-248h-1244v240 q100 10 134 104q21 58 21 184v52h-199z" />
<glyph unicode="&#xa4;" d="M10 523l56 167h158v149h-198l56 167h145q5 142 31 233q24 85 78 153q58 74 126 100q88 34 186 45t176 11q93 0 174 -4q194 -12 284 -92q60 -54 82 -113q26 -75 32 -145q4 -52 5 -94h-291q0 120 -44 164q-46 44 -238 44q-198 0 -264 -63q-60 -59 -64 -239h589l-55 -167 h-534v-149h483l-57 -167h-425q4 -174 63 -232q65 -63 272 -63q200 0 246 44q34 32 42 87q4 22 4 106h290q0 -56 -6 -123q-6 -70 -32 -144q-20 -60 -80 -114q-90 -80 -285 -92q-81 -4 -183 -4q-86 0 -184 11t-186 45q-68 26 -126 100q-54 68 -78 153q-26 90 -30 226h-218z " />
<glyph unicode="&#xa5;" d="M43 1536h321l353 -656h4l354 656h326l-256 -436h191v-224h-316l-108 -176h424v-225h-480v-475h-280v475h-468v225h412l-104 176h-308v224h185z" />
<glyph unicode="&#xa7;" d="M108 580q0 116 29 177q37 81 135 107q-112 72 -112 268q0 128 24 207t84 129q64 52 182 67q115 13 281 13h65q294 0 392 -96q88 -88 88 -303v-53h-264q-8 142 -44 172q-29 26 -71 31q-60 7 -162 9q-204 2 -256 -36q-36 -26 -43 -100q8 -15 10 -52q2 -44 6 -56 q6 -20 32 -32q34 -27 132 -49l480 -107q110 -24 164 -75q76 -72 76 -238q0 -264 -144 -315v-4q90 -30 120 -121q18 -57 19 -179q0 -252 -131 -344q-106 -76 -399 -75h-74q-148 0 -266 13q-123 14 -193 62q-81 56 -107 160q-26 100 -26 244h269q4 -84 6 -104q10 -64 42 -92 q50 -44 269 -44q183 0 247 23q48 17 65 61q15 42 15 105q0 136 -151 168l-501 107q-88 18 -154 46q-52 22 -82 62q-32 44 -42 100q-10 60 -10 144zM368 572q10 -104 93 -124l436 -104q17 -4 55 -12q78 6 105 70q18 42 18 134q0 77 -45 112q-30 24 -118 44l-357 84 q-41 8 -63 8q-120 0 -120 -172q0 -20 -4 -40z" />
<glyph unicode="&#xa8;" horiz-adv-x="927" d="M156 1243v185h204v-185h-204zM572 1243v185h204v-185h-204z" />
<glyph unicode="&#xa9;" horiz-adv-x="1616" d="M28 764q-2 316 220 549q224 235 557 235q212 0 393.5 -104t287.5 -285.5t106 -394.5v-4q0 -157 -68 -305q-130 -287 -426 -409q-142 -58 -293 -58q-210 0 -388.5 103t-282.5 285q-104 180 -106 388zM176 784q-2 -174 85 -327q85 -150 229 -237t315 -89q4 4 6 4 q170 0 316.5 85t232 232.5t84.5 315.5q-1 172 -85.5 318t-233.5 231.5t-316 87.5q-163 2 -311 -83q-144 -84 -230 -226q-90 -148 -92 -312zM408 772q4 10 4 33q10 269 222 376q98 50 206 48q90 -1 170 -36q162 -70 194 -261h-172q-32 152 -196 152q-158 0 -223 -158 q-29 -74 -29 -158q1 -76 36 -148q76 -152 220 -151q74 0 128 42q58 45 64 117h172q-16 -180 -190 -262q-84 -40 -170 -42q-102 -2 -206 50q-226 114 -230 398z" />
<glyph unicode="&#xaa;" horiz-adv-x="899" d="M72 620v140h764v-140h-764zM125 1088q0 116 55 155q52 49 207 49q143 0 176 -55h5q0 35 -5 55q0 88 -8 100q-15 44 -111 48q-56 2 -92 -19q-32 -19 -32 -73h-176q0 122 71 164q57 40 225 40q214 0 272 -88q32 -50 32 -141v-430h-172l4 63l-4 4q-22 -39 -60 -55 q-42 -19 -100 -21q-84 -2 -148 10q-52 8 -88 38q-51 52 -51 156zM297 1104q5 -28 15 -72q18 -30 79 -34q12 -2 37 -2q140 -2 140 100q0 84 -140 84q-84 0 -112 -25q-15 -10 -19 -51z" />
<glyph unicode="&#xab;" horiz-adv-x="1083" d="M104 563l273 545l176 -100l-221 -445l231 -432l-167 -103zM524 563l272 545l172 -100l-220 -445l233 -432l-166 -103z" />
<glyph unicode="&#xac;" horiz-adv-x="1196" d="M104 684v196h992v-632h-197v436h-795z" />
<glyph unicode="&#xad;" horiz-adv-x="545" d="M0 465v199h545v-199h-545z" />
<glyph unicode="&#xae;" horiz-adv-x="1616" d="M33 788q2 205 107.5 383.5t284 279.5t386.5 101q210 0 389.5 -102t285.5 -282.5t106 -399.5q0 -210 -104 -389t-285.5 -285t-391.5 -106q-210 -1 -390 105.5t-284 290.5q-106 186 -104 404zM176 764q2 -170 87 -317t231 -230q144 -81 317 -82q258 -2 445.5 182.5 t187.5 450.5q0 172 -82 318q-82 148 -230 234q-146 84 -321 85q-172 0 -319 -85.5t-232 -234.5q-86 -152 -84 -321zM488 344v844h409q183 0 255 -62q76 -64 72 -202q-4 -121 -68 -168q-60 -44 -160 -52l204 -360h-192l-189 360h-167v-360h-164zM652 824h220q123 0 161 40 q27 28 28 88q1 63 -46 88t-151 25h-212v-241z" />
<glyph unicode="&#xb1;" horiz-adv-x="1196" d="M104 0v196h992v-196h-992zM104 604v197h396v274h196v-274h400v-197h-400v-280h-196v280h-396z" />
<glyph unicode="&#xb2;" horiz-adv-x="868" d="M68 628v177q0 141 63 199q51 48 163 66l106 18q83 14 87 16q51 16 67 50q14 32 14 106v24q0 117 -144 117q-122 0 -140 -41q-20 -46 -20 -148h-196v44q0 226 147 270q74 22 205 22q268 0 320 -126q24 -60 24 -162q0 -173 -68 -228q-48 -38 -128 -58q-18 -4 -140 -26 q-103 -18 -131 -36q-33 -21 -33 -97v-27h500v-160h-696z" />
<glyph unicode="&#xb3;" horiz-adv-x="868" d="M64 932h196q0 -114 20 -135t136 -21q132 0 164 20q28 26 28 88q0 132 -129 132h-123v160h144q57 0 76 28q16 23 16 84q0 60 -34 83q-28 17 -93 17h-88q-105 0 -105 -145h-196q0 235 128 282q64 23 177 23h27q235 0 313 -59q69 -67 67 -189q-4 -188 -164 -208v-4 q105 -8 146 -81q31 -55 31 -171q-15 -163 -159 -199q-80 -21 -230 -21q-24 0 -44 -4q-82 4 -132 14q-54 10 -88 34q-52 38 -66 105q-14 65 -18 167z" />
<glyph unicode="&#xb4;" horiz-adv-x="760" d="M152 1284l364 240l92 -168l-399 -176z" />
<glyph unicode="&#xb5;" horiz-adv-x="1216" d="M129 -465v1540h258v-711q-1 -124 61 -159q38 -23 148 -21q127 2 182 68q54 64 54 196v627h256v-1075h-248v164h-8q-66 -176 -332 -176q-34 0 -113 8v-461h-258z" />
<glyph unicode="&#xb6;" d="M-4 996q0 142 26 254q26 110 78 165q114 121 453 121h867v-2001h-224v1761h-176v-1761h-224v957h-280q-339 0 -436 136q-84 118 -84 368zM272 973q8 -143 48 -189q46 -54 192 -53h284v565h-268q-160 0 -206 -48t-46 -208q0 -41 -4 -67z" />
<glyph unicode="&#xb8;" horiz-adv-x="633" d="M152 -164l235 140l88 -128l-266 -108z" />
<glyph unicode="&#xb9;" horiz-adv-x="868" d="M96 1272l295 280h246v-924h-197v764l-240 -239z" />
<glyph unicode="&#xba;" horiz-adv-x="899" d="M72 620v140h764v-140h-764zM140 1192v47q0 173 48 233q64 80 268 80q207 0 269 -88q43 -62 43 -248q0 -172 -41 -235q-63 -97 -271 -97q-100 0 -164 15q-62 13 -100 57q-52 63 -52 236zM316 1224q0 -146 16 -172q24 -30 124 -36q90 6 116 49q20 35 20 107v61 q0 100 -16 139q-18 42 -120 48q-48 -4 -65 -8q-36 -8 -55.5 -32t-19.5 -156z" />
<glyph unicode="&#xbb;" horiz-adv-x="1083" d="M104 131l232 432l-220 445l177 96l266 -541l-291 -535zM524 131l232 432l-220 445l176 96l269 -541l-293 -535z" />
<glyph unicode="&#xbc;" horiz-adv-x="2164" d="M112 1260l292 276h243v-920h-195v764l-239 -240zM508 0l968 1536h195l-975 -1536h-188zM1260 188v199l407 537h289v-584h80v-152h-80v-188h-192v188h-504zM1420 340h344v436h-9z" />
<glyph unicode="&#xbd;" horiz-adv-x="2164" d="M80 1260l297 276h239v-920h-192v764l-240 -240zM475 0l973 1536h192l-976 -1536h-189zM1372 0v176q0 145 60 201q28 27 76 43q46 16 94 24l98 17q56 9 138 39q34 26 34 133q0 83 -29 115q-23 24 -115 24q-126 0 -145 -41q-11 -22 -15 -91q-2 -35 -4 -52h-192v40 q0 226 145 270q77 24 207 26q137 2 215 -33q75 -33 101 -93q28 -64 28 -161q2 -173 -67 -233q-45 -38 -113 -54q-126 -18 -288 -61q-30 -29 -31 -101v-28h499v-160h-696z" />
<glyph unicode="&#xbe;" horiz-adv-x="2164" d="M64 932h196q0 -114 20 -135t136 -21q132 0 164 20q24 22 24 84v36q0 100 -129 100h-119v160h144q57 0 76 28q16 23 16 84q0 60 -34 83q-28 17 -93 17h-45q-98 0 -121 -20q-27 -22 -31 -125h-192q0 241 138 284q70 21 194 21q236 0 309 -64t71 -184q-4 -188 -168 -208v-4 q106 -12 148 -81q33 -55 33 -171q-15 -163 -159 -199q-80 -21 -230 -21q-39 0 -68 -4q-142 8 -196 48q-52 36 -68 112q-16 72 -16 160zM553 0l971 1536h192l-976 -1536h-187zM1284 188v199l408 537h288v-584h80v-152h-80v-188h-192v188h-504zM1444 340h344v436h-8z" />
<glyph unicode="&#xbf;" horiz-adv-x="1220" d="M108 -41q0 196 72 274q32 35 84 66q62 27 181 79q32 14 59 38q45 38 45 164h260q1 -168 -27 -228q-20 -43 -65 -79q-50 -41 -125 -73q-40 -16 -105 -40q-83 -34 -107 -98q-16 -40 -16 -109q0 -143 48 -181q42 -34 188 -36q80 -1 150 13q50 10 78 38q28 37 28 157v56h260 q0 -180 -31 -272q-32 -94 -98 -136q-57 -36 -144 -50t-210 -17q-77 -2 -61 -2q-276 1 -376 113q-88 100 -88 323zM549 796v279h260v-279h-260z" />
<glyph unicode="&#xc0;" horiz-adv-x="1452" d="M-8 0l512 1536h432l524 -1536h-301l-98 289h-665l-99 -289h-305zM461 512h530l-264 801h-2zM541 1817l92 168l360 -236l-55 -108z" />
<glyph unicode="&#xc1;" horiz-adv-x="1452" d="M-8 0l512 1536h432l524 -1536h-301l-98 289h-665l-99 -289h-305zM461 512h530l-264 801h-2zM539 1745l364 240l92 -168l-399 -176z" />
<glyph unicode="&#xc2;" horiz-adv-x="1452" d="M-8 0l512 1536h432l524 -1536h-301l-98 289h-665l-99 -289h-305zM361 1761l368 220l364 -220l-52 -104l-312 131l-315 -131zM461 512h530l-264 801h-2z" />
<glyph unicode="&#xc3;" horiz-adv-x="1452" d="M-8 0l512 1536h432l524 -1536h-301l-98 289h-665l-99 -289h-305zM328 1753q98 172 235 176q53 2 157 -58q100 -58 160 -58q58 0 115 92l129 -72q-102 -176 -236 -176q-59 0 -153 43q-119 69 -163 69q-62 0 -112 -88zM461 512h530l-264 801h-2z" />
<glyph unicode="&#xc4;" horiz-adv-x="1452" d="M-8 0l512 1536h432l524 -1536h-301l-98 289h-665l-99 -289h-305zM416 1704v185h204v-185h-204zM461 512h530l-264 801h-2zM832 1704v185h204v-185h-204z" />
<glyph unicode="&#xc5;" horiz-adv-x="1452" d="M-8 0l512 1536h432l524 -1536h-301l-98 289h-665l-99 -289h-305zM461 512h530l-264 801h-2zM537 1848q-2 46 24 91q55 97 168 97q108 0 164 -96q24 -44 24 -92q0 -106 -93 -163q-44 -26 -95 -26q-80 0 -135 55q-55 56 -57 134zM629 1848q0 -38 29 -67.5t67 -29.5 q39 0 70.5 29.5t29.5 71.5q-2 38 -32 66q-30 26 -68 26q-88 0 -96 -96z" />
<glyph unicode="&#xc6;" horiz-adv-x="2169" d="M-37 0l729 1536h1397v-252h-749v-391h704v-225h-704v-416h749v-252h-1045v293h-612l-143 -293h-326zM524 516h520v768h-151z" />
<glyph unicode="&#xc7;" horiz-adv-x="1423" d="M76 756q0 364 34 483q24 85 78 153q52 64 142 100q144 56 397 56q257 0 367 -30q156 -43 208 -190q38 -109 38 -308h-292v96q0 92 -44 136q-48 44 -256 44h-44q-208 0 -272 -62.5t-64 -256.5v-401q0 -228 76 -283q50 -37 108 -45q61 -8 169 -8q131 0 176 4q80 16 119 53 q32 33 41 101q5 40 8 151h291v-133q0 -232 -113 -328q-91 -78 -303 -92q-86 -6 -176 -8l-121 -4q-319 0 -443 124q-105 106 -118 347q-6 107 -6 301zM548 -168l235 140l88 -128l-266 -108z" />
<glyph unicode="&#xc8;" horiz-adv-x="1267" d="M112 0v1536h1056v-252h-760v-385h720v-239h-720v-408h764v-252h-1060zM408 1817l92 168l360 -236l-55 -108z" />
<glyph unicode="&#xc9;" horiz-adv-x="1267" d="M112 0v1536h1056v-252h-760v-385h720v-239h-720v-408h764v-252h-1060zM449 1745l364 240l92 -168l-399 -176z" />
<glyph unicode="&#xca;" horiz-adv-x="1267" d="M112 0v1536h1056v-252h-760v-385h720v-239h-720v-408h764v-252h-1060zM268 1761l368 220l364 -220l-52 -104l-312 131l-315 -131z" />
<glyph unicode="&#xcb;" horiz-adv-x="1267" d="M112 0v1536h1056v-252h-760v-385h720v-239h-720v-408h764v-252h-1060zM324 1704v185h204v-185h-204zM740 1704v185h204v-185h-204z" />
<glyph unicode="&#xcc;" horiz-adv-x="563" d="M56 1817l92 168l360 -236l-55 -108zM131 0v1536h297v-1536h-297z" />
<glyph unicode="&#xcd;" horiz-adv-x="563" d="M56 1745l364 240l92 -168l-399 -176zM131 0v1536h297v-1536h-297z" />
<glyph unicode="&#xce;" horiz-adv-x="563" d="M-84 1761l368 220l364 -220l-52 -104l-312 131l-315 -131zM131 0v1536h297v-1536h-297z" />
<glyph unicode="&#xcf;" horiz-adv-x="563" d="M-67 1704v185h204v-185h-204zM131 0v1536h297v-1536h-297zM349 1704v185h204v-185h-204z" />
<glyph unicode="&#xd0;" horiz-adv-x="1544" d="M-60 680v219h189v637h735q412 0 528 -219q68 -131 72 -373l4 -332q5 -404 -235 -544q-113 -68 -309 -68h-795v680h-189zM424 252h444q96 0 150 24q58 26 94 80q56 84 56 291v281q0 126 -12 177q-22 98 -96 140q-70 39 -216 39h-420v-381h256v-223h-256v-428z" />
<glyph unicode="&#xd1;" horiz-adv-x="1691" d="M131 0v1536h489l660 -1284h8l-24 1284h296v-1536h-493l-651 1284h-12l16 -637l8 -647h-297zM449 1753q98 172 235 176q53 2 157 -58q100 -58 160 -58q58 0 115 92l129 -72q-102 -176 -236 -176q-59 0 -153 43q-119 69 -163 69q-62 0 -112 -88z" />
<glyph unicode="&#xd2;" horiz-adv-x="1464" d="M80 553v420q0 294 88 420t334 147q98 8 225 8q275 0 421 -54q94 -36 140 -106q96 -104 96 -384v-496q0 -139 -26 -215q-28 -79 -74 -145q-52 -72 -150 -109q-140 -51 -446 -51q-176 0 -296 25q-116 24 -196 108q-116 120 -116 432zM368 991q4 -18 4 -47v-364 q0 -192 44 -260q34 -53 102 -67q86 -17 207 -17q125 0 205 20q68 18 106 64q52 76 52 233v463q0 150 -52 208q-50 56 -160 68q-38 4 -145 4q-277 0 -323 -100q-30 -68 -40 -205zM504 1817l92 168l360 -236l-55 -108z" />
<glyph unicode="&#xd3;" horiz-adv-x="1464" d="M80 553v420q0 294 88 420t334 147q98 8 225 8q275 0 421 -54q94 -36 140 -106q96 -104 96 -384v-496q0 -139 -26 -215q-28 -79 -74 -145q-52 -72 -150 -109q-140 -51 -446 -51q-176 0 -296 25q-116 24 -196 108q-116 120 -116 432zM368 991q4 -18 4 -47v-364 q0 -192 44 -260q34 -53 102 -67q86 -17 207 -17q125 0 205 20q68 18 106 64q52 76 52 233v463q0 150 -52 208q-50 56 -160 68q-38 4 -145 4q-277 0 -323 -100q-30 -68 -40 -205zM504 1745l364 240l92 -168l-399 -176z" />
<glyph unicode="&#xd4;" horiz-adv-x="1464" d="M80 553v420q0 294 88 420t334 147q98 8 225 8q275 0 421 -54q94 -36 140 -106q96 -104 96 -384v-496q0 -139 -26 -215q-28 -79 -74 -145q-52 -72 -150 -109q-140 -51 -446 -51q-176 0 -296 25q-116 24 -196 108q-116 120 -116 432zM367 1761l368 220l364 -220l-52 -104 l-312 131l-315 -131zM368 991q4 -18 4 -47v-364q0 -192 44 -260q34 -53 102 -67q86 -17 207 -17q125 0 205 20q68 18 106 64q52 76 52 233v463q0 150 -52 208q-50 56 -160 68q-38 4 -145 4q-277 0 -323 -100q-30 -68 -40 -205z" />
<glyph unicode="&#xd5;" horiz-adv-x="1464" d="M80 553v420q0 294 88 420t334 147q98 8 225 8q275 0 421 -54q94 -36 140 -106q96 -104 96 -384v-496q0 -139 -26 -215q-28 -79 -74 -145q-52 -72 -150 -109q-140 -51 -446 -51q-176 0 -296 25q-116 24 -196 108q-116 120 -116 432zM336 1753q98 172 235 176q53 2 157 -58 q100 -58 160 -58q58 0 115 92l129 -72q-102 -176 -236 -176q-59 0 -153 43q-119 69 -163 69q-62 0 -112 -88zM368 991q4 -18 4 -47v-364q0 -192 44 -260q34 -53 102 -67q86 -17 207 -17q125 0 205 20q68 18 106 64q52 76 52 233v463q0 150 -52 208q-50 56 -160 68 q-38 4 -145 4q-277 0 -323 -100q-30 -68 -40 -205z" />
<glyph unicode="&#xd6;" horiz-adv-x="1464" d="M80 553v420q0 294 88 420t334 147q98 8 225 8q275 0 421 -54q94 -36 140 -106q96 -104 96 -384v-496q0 -139 -26 -215q-28 -79 -74 -145q-52 -72 -150 -109q-140 -51 -446 -51q-176 0 -296 25q-116 24 -196 108q-116 120 -116 432zM368 991q4 -18 4 -47v-364 q0 -192 44 -260q34 -53 102 -67q86 -17 207 -17q125 0 205 20q68 18 106 64q52 76 52 233v463q0 150 -52 208q-50 56 -160 68q-38 4 -145 4q-277 0 -323 -100q-30 -68 -40 -205zM420 1704v185h204v-185h-204zM836 1704v185h204v-185h-204z" />
<glyph unicode="&#xd8;" horiz-adv-x="1544" d="M0 -51v223l125 112q-29 122 -37 437q4 34 4 94q0 221 20 361q20 144 93 225q134 147 563 147h76q360 0 492 -147l208 186v-231l-120 -113q32 -89 32 -331v-160q0 -472 -116 -612q-56 -66 -156 -100q-98 -32 -196 -41q-122 -9 -257 -11q-120 -2 -220 6q-192 17 -298 141z M387 520l729 684q-64 92 -297 92h-92q-234 0 -295 -104q-45 -76 -45 -228v-444zM432 328q26 -68 169 -82q67 -6 163 -6q266 0 328 67q68 73 67 297v404z" />
<glyph unicode="&#xd9;" horiz-adv-x="1544" d="M131 444v1092h297v-1116q0 -96 60 -136q68 -44 264 -44q37 0 53 -4q102 4 136 8q81 12 124 49q51 44 51 182v1061h295v-1100q0 -244 -135 -352q-80 -64 -218 -80q-136 -16 -331 -16q-142 0 -243 13q-106 15 -185 59q-85 48 -127 152q-42 102 -41 232zM547 1817l92 168 l360 -236l-55 -108z" />
<glyph unicode="&#xda;" horiz-adv-x="1544" d="M131 444v1092h297v-1116q0 -96 60 -136q68 -44 264 -44q37 0 53 -4q102 4 136 8q81 12 124 49q51 44 51 182v1061h295v-1100q0 -244 -135 -352q-80 -64 -218 -80q-136 -16 -331 -16q-142 0 -243 13q-106 15 -185 59q-85 48 -127 152q-42 102 -41 232zM543 1745l364 240 l92 -168l-399 -176z" />
<glyph unicode="&#xdb;" horiz-adv-x="1544" d="M131 444v1092h297v-1116q0 -96 60 -136q68 -44 264 -44q37 0 53 -4q102 4 136 8q81 12 124 49q51 44 51 182v1061h295v-1100q0 -244 -135 -352q-80 -64 -218 -80q-136 -16 -331 -16q-142 0 -243 13q-106 15 -185 59q-85 48 -127 152q-42 102 -41 232zM408 1761l368 220 l364 -220l-52 -104l-312 131l-315 -131z" />
<glyph unicode="&#xdc;" horiz-adv-x="1544" d="M131 444v1092h297v-1116q0 -96 60 -136q68 -44 264 -44q37 0 53 -4q102 4 136 8q81 12 124 49q51 44 51 182v1061h295v-1100q0 -244 -135 -352q-80 -64 -218 -80q-136 -16 -331 -16q-142 0 -243 13q-106 15 -185 59q-85 48 -127 152q-42 102 -41 232zM459 1704v185h204 v-185h-204zM875 1704v185h204v-185h-204z" />
<glyph unicode="&#xdd;" horiz-adv-x="1372" d="M-24 1536h336l364 -656h8l373 656h339l-568 -948v-588h-296v588zM496 1745l364 240l92 -168l-399 -176z" />
<glyph unicode="&#xde;" horiz-adv-x="1405" d="M116 0v1536h292v-248h376q250 0 376 -60q85 -42 124 -128q60 -128 60 -344q0 -272 -97 -388q-99 -120 -411 -120h-428v-248h-292zM408 500h376q150 0 203 40q37 30 49 77q12 49 12 139q0 146 -32 204q-42 76 -224 76h-384v-536z" />
<glyph unicode="&#xdf;" horiz-adv-x="1239" d="M135 0v1112q1 248 97 344q92 92 388 92q254 0 357 -76q51 -38 78 -106t25 -133q-2 -114 -66 -187.5t-182 -89.5v-4q198 -10 257 -126q62 -120 64 -306q1 -200 -49 -322q-86 -210 -356 -210q-104 0 -232 40v208q110 -52 180 -52q196 0 197 312q1 120 -7 166 q-16 96 -71.5 145t-167.5 49h-84v176q29 0 41 -4q72 4 108 12q32 6 64 31q60 46 60 166q0 93 -123 123q-51 12 -101 12q-150 0 -190 -64q-26 -42 -26 -128v-1180h-261z" />
<glyph unicode="&#xe0;" horiz-adv-x="1208" d="M88 324q0 184 92 260t308 76q168 0 244 -40q52 -28 77 -84h10v164q-1 104 -23 144q-18 30 -56 49q-44 21 -148 19q-62 -2 -112 -8q-26 -4 -56 -28q-37 -35 -37 -116h-258q1 198 111 268q93 60 305 60h35q306 0 403 -88q92 -82 92 -288v-712h-256l13 131l-8 4 q-36 -98 -143 -129q-62 -18 -202 -18q-224 0 -311 88q-80 82 -80 248zM344 328q0 -132 90 -154q46 -10 134 -10q180 0 224 59q26 43 27 109q0 92 -65 122q-70 32 -170 30q-84 -2 -143 -12q-38 -6 -64 -36q-33 -38 -33 -108zM375 1352l92 168l360 -236l-55 -108z" />
<glyph unicode="&#xe1;" horiz-adv-x="1208" d="M88 324q0 184 92 260t308 76q168 0 244 -40q52 -28 77 -84h10v164q-1 104 -23 144q-18 30 -56 49q-44 21 -148 19q-62 -2 -112 -8q-26 -4 -56 -28q-37 -35 -37 -116h-258q1 198 111 268q93 60 305 60h35q306 0 403 -88q92 -82 92 -288v-712h-256l13 131l-8 4 q-36 -98 -143 -129q-62 -18 -202 -18q-224 0 -311 88q-80 82 -80 248zM344 328q0 -132 90 -154q46 -10 134 -10q180 0 224 59q26 43 27 109q0 92 -65 122q-70 32 -170 30q-84 -2 -143 -12q-38 -6 -64 -36q-33 -38 -33 -108zM416 1284l364 240l92 -168l-399 -176z" />
<glyph unicode="&#xe2;" horiz-adv-x="1208" d="M88 324q0 184 92 260t308 76q168 0 244 -40q52 -28 77 -84h10v164q-1 104 -23 144q-18 30 -56 49q-44 21 -148 19q-62 -2 -112 -8q-26 -4 -56 -28q-37 -35 -37 -116h-258q1 198 111 268q93 60 305 60h35q306 0 403 -88q92 -82 92 -288v-712h-256l13 131l-8 4 q-36 -98 -143 -129q-62 -18 -202 -18q-224 0 -311 88q-80 82 -80 248zM240 1300l368 220l364 -220l-52 -104l-312 131l-315 -131zM344 328q0 -132 90 -154q46 -10 134 -10q180 0 224 59q26 43 27 109q0 92 -65 122q-70 32 -170 30q-84 -2 -143 -12q-38 -6 -64 -36 q-33 -38 -33 -108z" />
<glyph unicode="&#xe3;" horiz-adv-x="1208" d="M88 324q0 184 92 260t308 76q168 0 244 -40q52 -28 77 -84h10v164q-1 104 -23 144q-18 30 -56 49q-44 21 -148 19q-62 -2 -112 -8q-26 -4 -56 -28q-37 -35 -37 -116h-258q1 198 111 268q93 60 305 60h35q306 0 403 -88q92 -82 92 -288v-712h-256l13 131l-8 4 q-36 -98 -143 -129q-62 -18 -202 -18q-224 0 -311 88q-80 82 -80 248zM203 1292q98 172 235 176q53 2 157 -58q100 -58 160 -58q58 0 115 92l129 -72q-102 -176 -236 -176q-59 0 -153 43q-119 69 -163 69q-62 0 -112 -88zM344 328q0 -132 90 -154q46 -10 134 -10 q180 0 224 59q26 43 27 109q0 92 -65 122q-70 32 -170 30q-84 -2 -143 -12q-38 -6 -64 -36q-33 -38 -33 -108z" />
<glyph unicode="&#xe4;" horiz-adv-x="1208" d="M88 324q0 184 92 260t308 76q168 0 244 -40q52 -28 77 -84h10v164q-1 104 -23 144q-18 30 -56 49q-44 21 -148 19q-62 -2 -112 -8q-26 -4 -56 -28q-37 -35 -37 -116h-258q1 198 111 268q93 60 305 60h35q306 0 403 -88q92 -82 92 -288v-712h-256l13 131l-8 4 q-36 -98 -143 -129q-62 -18 -202 -18q-224 0 -311 88q-80 82 -80 248zM291 1243v185h204v-185h-204zM344 328q0 -132 90 -154q46 -10 134 -10q180 0 224 59q26 43 27 109q0 92 -65 122q-70 32 -170 30q-84 -2 -143 -12q-38 -6 -64 -36q-33 -38 -33 -108zM707 1243v185h204 v-185h-204z" />
<glyph unicode="&#xe5;" horiz-adv-x="1208" d="M88 324q0 184 92 260t308 76q168 0 244 -40q52 -28 77 -84h10v164q-1 104 -23 144q-18 30 -56 49q-44 21 -148 19q-62 -2 -112 -8q-26 -4 -56 -28q-37 -35 -37 -116h-258q1 198 111 268q93 60 305 60h35q306 0 403 -88q92 -82 92 -288v-712h-256l13 131l-8 4 q-36 -98 -143 -129q-62 -18 -202 -18q-224 0 -311 88q-80 82 -80 248zM344 328q0 -132 90 -154q46 -10 134 -10q180 0 224 59q26 43 27 109q0 92 -65 122q-70 32 -170 30q-84 -2 -143 -12q-38 -6 -64 -36q-33 -38 -33 -108zM416 1344q-2 46 24 91q55 97 168 97 q108 0 164 -96q24 -44 24 -92q0 -106 -93 -163q-44 -26 -95 -26q-80 0 -135 55q-55 56 -57 134zM508 1344q0 -38 29 -67.5t67 -29.5q39 0 70.5 29.5t29.5 71.5q-2 38 -32 66q-30 26 -68 26q-88 0 -96 -96z" />
<glyph unicode="&#xe6;" horiz-adv-x="1884" d="M76 332q-1 183 100 256q99 72 340 72q230 0 285 -128l8 -4v148q-1 118 -17 156q-20 48 -64 62q-50 16 -144 18t-152 -31q-55 -31 -55 -117h-256q0 181 92 252q60 46 156 59q93 13 211 13q141 0 211 -18q126 -31 157 -122h4q50 140 365 140q151 0 275 -38q66 -20 100 -50 q64 -58 88 -172q18 -90 24 -228l4 -112h-741v-44q0 -117 17 -166q16 -48 69 -69l45 -15q22 -4 58 -6q22 -2 61 -4q85 -1 133 9q42 9 70 39q28 41 28 112h260q0 -178 -76 -264q-46 -52 -128 -70q-90 -20 -220 -22q-16 0 -142 2q-168 4 -250 64q-52 36 -72 102h-8 q-46 -129 -213 -155q-83 -11 -163 -13q-164 -2 -267 26q-97 26 -144.5 101t-48.5 217zM336 328q0 -74 20 -109q22 -36 69 -46q45 -9 143 -9q176 0 216 64q24 38 25 108q1 148 -237 148q-156 0 -200 -44q-36 -36 -36 -112zM1065 688q2 -12 2 -36h481v36q0 118 -36 160 q-29 45 -189 45h-27q-150 0 -192 -45q-36 -37 -39 -160z" />
<glyph unicode="&#xe7;" horiz-adv-x="1128" d="M92 524q0 158 10 230q18 130 82 210q60 76 154 98q100 24 238 26q109 2 219 -18q101 -18 149 -54q121 -88 121 -320h-256q0 100 -33 140q-38 58 -200 57q-148 1 -189 -65q-31 -50 -39 -204q4 -20 4 -65q0 -93 -4 -147l12 -100q10 -55 40 -89q39 -35 153 -43q14 4 39 4 q81 0 116.5 8t59.5 31q37 35 37 149v36h260q-1 -256 -105 -340q-98 -80 -376 -80q-144 0 -208 11q-118 20 -184 89q-80 84 -93 239q-7 77 -7 197zM404 -168l235 140l88 -128l-266 -108z" />
<glyph unicode="&#xe8;" horiz-adv-x="1167" d="M84 553q0 320 108 428q114 113 388 107q288 -6 380 -88q98 -86 114 -290q6 -76 10 -222h-740q0 -35 -4 -60q4 -78 12 -116q16 -72 56 -97q64 -31 188 -31q146 0 188 35q40 32 40 121h260q0 -198 -101 -280q-88 -72 -387 -72q-206 0 -310 40q-154 60 -184 259 q-18 114 -18 266zM344 652h480q0 159 -36 196q-28 30 -94 38q-18 2 -114 7q-78 -5 -106 -9q-67 -11 -93 -40q-37 -42 -37 -192zM356 1352l92 168l360 -236l-55 -108z" />
<glyph unicode="&#xe9;" horiz-adv-x="1167" d="M84 553q0 320 108 428q114 113 388 107q288 -6 380 -88q98 -86 114 -290q6 -76 10 -222h-740q0 -35 -4 -60q4 -78 12 -116q16 -72 56 -97q64 -31 188 -31q146 0 188 35q40 32 40 121h260q0 -198 -101 -280q-88 -72 -387 -72q-206 0 -310 40q-154 60 -184 259 q-18 114 -18 266zM344 652h480q0 159 -36 196q-28 30 -94 38q-18 2 -114 7q-78 -5 -106 -9q-67 -11 -93 -40q-37 -42 -37 -192zM400 1284l364 240l92 -168l-399 -176z" />
<glyph unicode="&#xea;" horiz-adv-x="1167" d="M84 553q0 320 108 428q114 113 388 107q288 -6 380 -88q98 -86 114 -290q6 -76 10 -222h-740q0 -35 -4 -60q4 -78 12 -116q16 -72 56 -97q64 -31 188 -31q146 0 188 35q40 32 40 121h260q0 -198 -101 -280q-88 -72 -387 -72q-206 0 -310 40q-154 60 -184 259 q-18 114 -18 266zM216 1300l368 220l364 -220l-52 -104l-312 131l-315 -131zM344 652h480q0 159 -36 196q-28 30 -94 38q-18 2 -114 7q-78 -5 -106 -9q-67 -11 -93 -40q-37 -42 -37 -192z" />
<glyph unicode="&#xeb;" horiz-adv-x="1167" d="M84 553q0 320 108 428q114 113 388 107q288 -6 380 -88q98 -86 114 -290q6 -76 10 -222h-740q0 -35 -4 -60q4 -78 12 -116q16 -72 56 -97q64 -31 188 -31q146 0 188 35q40 32 40 121h260q0 -198 -101 -280q-88 -72 -387 -72q-206 0 -310 40q-154 60 -184 259 q-18 114 -18 266zM272 1239v185h204v-185h-204zM344 652h480q0 159 -36 196q-28 30 -94 38q-18 2 -114 7q-78 -5 -106 -9q-67 -11 -93 -40q-37 -42 -37 -192zM688 1239v185h204v-185h-204z" />
<glyph unicode="&#xec;" horiz-adv-x="483" d="M16 1352l92 168l360 -236l-55 -108zM112 0v1075h260v-1075h-260z" />
<glyph unicode="&#xed;" horiz-adv-x="483" d="M17 1284l364 240l92 -168l-399 -176zM112 0v1075h260v-1075h-260z" />
<glyph unicode="&#xee;" horiz-adv-x="483" d="M-124 1300l368 220l364 -220l-52 -104l-312 131l-315 -131zM112 0v1075h260v-1075h-260z" />
<glyph unicode="&#xef;" horiz-adv-x="483" d="M-67 1239v185h204v-185h-204zM112 0v1075h260v-1075h-260zM349 1239v185h204v-185h-204z" />
<glyph unicode="&#xf0;" horiz-adv-x="1192" d="M88 484q4 32 4 84q0 202 30 294q45 140 181 186q93 32 340 44q-107 112 -223 164l-140 -124l-84 88l101 88q-95 34 -185 60l68 180q159 -41 281 -100l115 100l88 -88l-84 -72q175 -90 305 -230q56 -60 106 -134q115 -168 113 -500q-1 -159 -22 -270q-18 -98 -78 -162 q-58 -62 -164 -83q-118 -23 -256 -21q-70 2 -160 10q-168 18 -244 106q-84 100 -92 380zM344 592q4 -12 4 -33q0 -255 48 -315q46 -60 180 -60q176 0 225 56q43 66 43 229v86q0 235 -52 285q-54 54 -196 53q-152 1 -200 -61q-42 -53 -52 -240z" />
<glyph unicode="&#xf1;" horiz-adv-x="1224" d="M125 0v1075h260v-163h6q52 144 199 166q64 10 141 10q280 -2 340 -170q29 -80 29 -210v-708h-260v676q0 160 -74 196q-43 21 -125 21q-137 1 -201 -65q-30 -32 -42 -86q-12 -56 -13 -158v-584h-260zM216 1292q98 172 235 176q53 2 157 -58q100 -58 160 -58q58 0 115 92 l129 -72q-102 -176 -236 -176q-59 0 -153 43q-119 69 -163 69q-62 0 -112 -88z" />
<glyph unicode="&#xf2;" horiz-adv-x="1192" d="M88 504q0 354 84 460q98 124 424 124q197 0 300 -38q62 -23 104 -63q68 -65 84 -167q18 -114 20 -288q2 -158 -20 -282q-20 -116 -97 -178q-65 -52 -165 -68q-98 -16 -230 -16q-216 0 -322 46q-66 29 -106 87q-76 110 -76 383zM348 532q0 -218 37 -280q40 -68 211 -68 q160 0 205 56q43 64 43 292q0 244 -43 300q-31 38 -95 50q-25 6 -110 11q-84 -5 -107 -10q-61 -11 -93 -47q-48 -52 -48 -304zM369 1352l92 168l360 -236l-55 -108z" />
<glyph unicode="&#xf3;" horiz-adv-x="1192" d="M88 504q0 354 84 460q98 124 424 124q197 0 300 -38q62 -23 104 -63q68 -65 84 -167q18 -114 20 -288q2 -158 -20 -282q-20 -116 -97 -178q-65 -52 -165 -68q-98 -16 -230 -16q-216 0 -322 46q-66 29 -106 87q-76 110 -76 383zM348 532q0 -218 37 -280q40 -68 211 -68 q160 0 205 56q43 64 43 292q0 244 -43 300q-31 38 -95 50q-25 6 -110 11q-84 -5 -107 -10q-61 -11 -93 -47q-48 -52 -48 -304zM367 1284l364 240l92 -168l-399 -176z" />
<glyph unicode="&#xf4;" horiz-adv-x="1192" d="M88 504q0 354 84 460q98 124 424 124q197 0 300 -38q62 -23 104 -63q68 -65 84 -167q18 -114 20 -288q2 -158 -20 -282q-20 -116 -97 -178q-65 -52 -165 -68q-98 -16 -230 -16q-216 0 -322 46q-66 29 -106 87q-76 110 -76 383zM232 1300l368 220l364 -220l-52 -104 l-312 131l-315 -131zM348 532q0 -218 37 -280q40 -68 211 -68q160 0 205 56q43 64 43 292q0 244 -43 300q-31 38 -95 50q-25 6 -110 11q-84 -5 -107 -10q-61 -11 -93 -47q-48 -52 -48 -304z" />
<glyph unicode="&#xf5;" horiz-adv-x="1192" d="M88 504q0 354 84 460q98 124 424 124q197 0 300 -38q62 -23 104 -63q68 -65 84 -167q18 -114 20 -288q2 -158 -20 -282q-20 -116 -97 -178q-65 -52 -165 -68q-98 -16 -230 -16q-216 0 -322 46q-66 29 -106 87q-76 110 -76 383zM199 1292q98 172 235 176q53 2 157 -58 q100 -58 160 -58q58 0 115 92l129 -72q-102 -176 -236 -176q-59 0 -153 43q-119 69 -163 69q-62 0 -112 -88zM348 532q0 -218 37 -280q40 -68 211 -68q160 0 205 56q43 64 43 292q0 244 -43 300q-31 38 -95 50q-25 6 -110 11q-84 -5 -107 -10q-61 -11 -93 -47 q-48 -52 -48 -304z" />
<glyph unicode="&#xf6;" horiz-adv-x="1192" d="M88 504q0 354 84 460q98 124 424 124q197 0 300 -38q62 -23 104 -63q68 -65 84 -167q18 -114 20 -288q2 -158 -20 -282q-20 -116 -97 -178q-65 -52 -165 -68q-98 -16 -230 -16q-216 0 -322 46q-66 29 -106 87q-76 110 -76 383zM285 1239v185h204v-185h-204zM348 532 q0 -218 37 -280q40 -68 211 -68q160 0 205 56q43 64 43 292q0 244 -43 300q-31 38 -95 50q-25 6 -110 11q-84 -5 -107 -10q-61 -11 -93 -47q-48 -52 -48 -304zM701 1239v185h204v-185h-204z" />
<glyph unicode="&#xf8;" horiz-adv-x="1192" d="M4 -43v164l117 98q-26 79 -33 233q4 39 4 111q0 153 12 229q22 142 93 204t199 82q68 10 220 10q318 0 404 -120l172 136v-164l-112 -88q24 -86 24 -211v-113q0 -172 -22 -270q-22 -100 -78 -162q-59 -64 -166 -86q-104 -22 -258 -22q-306 0 -400 120zM348 532 q4 -44 4 -128l467 407q-26 82 -215 82q-84 1 -129 -7q-47 -8 -75 -42q-44 -52 -48 -180q0 -50 -4 -132zM385 264q16 -80 178 -80h37q70 0 106 6q39 5 66 25q60 43 68 229q4 106 4 224z" />
<glyph unicode="&#xf9;" horiz-adv-x="1216" d="M125 289v786h260v-703q0 -118 35 -149q42 -39 148 -39q154 0 212 76q48 60 48 188v627h256v-1075h-248v164h-8q-70 -176 -344 -176q-358 0 -359 301zM296 1352l92 168l360 -236l-55 -108z" />
<glyph unicode="&#xfa;" horiz-adv-x="1216" d="M125 289v786h260v-703q0 -118 35 -149q42 -39 148 -39q154 0 212 76q48 60 48 188v627h256v-1075h-248v164h-8q-70 -176 -344 -176q-358 0 -359 301zM404 1284l364 240l92 -168l-399 -176z" />
<glyph unicode="&#xfb;" horiz-adv-x="1216" d="M125 289v786h260v-703q0 -118 35 -149q42 -39 148 -39q154 0 212 76q48 60 48 188v627h256v-1075h-248v164h-8q-70 -176 -344 -176q-358 0 -359 301zM199 1300l368 220l364 -220l-52 -104l-312 131l-315 -131z" />
<glyph unicode="&#xfc;" horiz-adv-x="1216" d="M125 289v786h260v-703q0 -118 35 -149q42 -39 148 -39q154 0 212 76q48 60 48 188v627h256v-1075h-248v164h-8q-70 -176 -344 -176q-358 0 -359 301zM296 1239v185h204v-185h-204zM712 1239v185h204v-185h-204z" />
<glyph unicode="&#xfd;" horiz-adv-x="991" d="M-12 1075h268l272 -915h4l208 915h264l-300 -1204q-28 -114 -70 -191t-114 -116t-213 -39q-72 0 -102 4v195q9 0 27.5 -2t27.5 -2q106 0 156 92q29 54 53 188h-125zM292 1284l364 240l92 -168l-399 -176z" />
<glyph unicode="&#xfe;" horiz-adv-x="1220" d="M125 -465v2005h260v-624h2q45 100 131 140q70 32 194 32q352 0 399 -273q17 -104 17 -260v-84q0 -389 -229 -459q-83 -24 -187 -24q-250 0 -321 156h-6v-609h-260zM381 456q4 -74 9 -99q10 -56 34 -93q32 -47 82 -61q60 -17 131 -19q138 -2 186.5 64.5t48.5 255.5v51 q0 211 -48 273q-51 66 -183 65q-160 0 -213 -74q-40 -56 -47 -219q4 -24 4 -72q0 -46 -4 -72z" />
<glyph unicode="&#xff;" horiz-adv-x="991" d="M-12 1075h268l272 -915h4l208 915h264l-300 -1204q-28 -114 -70 -191t-114 -116t-213 -39q-72 0 -102 4v195q9 0 27.5 -2t27.5 -2q106 0 156 92q29 54 53 188h-125zM184 1239v185h204v-185h-204zM600 1239v185h204v-185h-204z" />
<glyph unicode="&#x152;" horiz-adv-x="2263" d="M80 580v380q0 288 100 420q82 106 250 144q107 24 295 24q159 0 249 -28q134 -42 181 -156h9l-9 172h1028v-252h-751v-391h712v-225h-712v-416h756v-252h-1033l9 164h-9q-83 -142 -272 -166q-92 -10 -203 -10q-96 1 -194 13q-186 23 -286 128q-120 127 -120 451zM377 559 q0 -190 47 -252q21 -28 72 -44q66 -21 229 -27q14 4 35 4q252 0 320 76q56 64 56 243v369q0 238 -56 301q-60 67 -288 67h-48q-118 0 -204 -16q-120 -24 -148 -112q-8 -23 -10 -53q-6 -59 -5 -155v-401z" />
<glyph unicode="&#x153;" horiz-adv-x="1908" d="M80 600l6 99q10 175 82 265q98 124 404 124q150 0 223 -18q129 -32 165 -130h4q38 88 124 116q93 30 225 32q286 2 391 -84q84 -70 108 -238q10 -72 14 -154l3 -124h-741q0 -43 -4 -64q5 -126 32 -164q22 -40 66 -58q48 -20 158 -18q77 2 126 9q34 5 62 26q41 42 41 125 h260q0 -190 -84 -268q-55 -52 -139 -68q-108 -20 -230 -20h-47q-199 0 -283 50q-56 34 -82 102h-8q-60 -125 -204 -145q-58 -7 -140 -7q-162 0 -242 15q-144 27 -206 113q-73 102 -76 322q-2 112 -8 162zM340 540q0 -220 41 -288q26 -42 76 -55q51 -13 123 -13q164 0 204 56 q44 58 44 296v52q0 206 -36 252q-32 42 -96 49q-42 5 -112 4q-18 -1 -56 -3q-64 -3 -103 -20q-22 -10 -40 -30q-45 -54 -45 -300zM1088 652h481q0 152 -37.5 196.5t-179.5 44.5h-29q-149 0 -195 -45q-28 -28 -34 -70q-6 -46 -6 -126z" />
<glyph unicode="&#x2c6;" horiz-adv-x="1036" d="M152 1300l368 220l364 -220l-52 -104l-312 131l-315 -131z" />
<glyph unicode="&#x2dc;" horiz-adv-x="1100" d="M152 1292q98 172 235 176q53 2 157 -58q100 -58 160 -58q58 0 115 92l129 -72q-102 -176 -236 -176q-59 0 -153 43q-119 69 -163 69q-62 0 -112 -88z" />
<glyph unicode="&#x2000;" horiz-adv-x="1018" />
<glyph unicode="&#x2001;" horiz-adv-x="2036" />
<glyph unicode="&#x2002;" horiz-adv-x="1018" />
<glyph unicode="&#x2003;" horiz-adv-x="2036" />
<glyph unicode="&#x2004;" horiz-adv-x="678" />
<glyph unicode="&#x2005;" horiz-adv-x="509" />
<glyph unicode="&#x2006;" horiz-adv-x="339" />
<glyph unicode="&#x2007;" horiz-adv-x="339" />
<glyph unicode="&#x2008;" horiz-adv-x="254" />
<glyph unicode="&#x2009;" horiz-adv-x="407" />
<glyph unicode="&#x200a;" horiz-adv-x="113" />
<glyph unicode="&#x2010;" horiz-adv-x="545" d="M0 465v199h545v-199h-545z" />
<glyph unicode="&#x2011;" horiz-adv-x="545" d="M0 465v199h545v-199h-545z" />
<glyph unicode="&#x2012;" horiz-adv-x="545" d="M0 465v199h545v-199h-545z" />
<glyph unicode="&#x2013;" horiz-adv-x="2048" d="M0 469v195h2052v-195h-2052z" />
<glyph unicode="&#x2014;" horiz-adv-x="1024" d="M0 469v195h1024v-195h-1024z" />
<glyph unicode="&#x2018;" horiz-adv-x="475" d="M96 1012v268q0 145 43 202q51 66 189 66h49v-120q-74 -4 -99.5 -34t-25.5 -106h104v-276h-260z" />
<glyph unicode="&#x2019;" horiz-adv-x="475" d="M100 1004v120q68 0 96 34q24 30 23 102h-98v276h256v-264q1 -160 -49 -211q-50 -53 -184 -61q-14 4 -44 4z" />
<glyph unicode="&#x201c;" horiz-adv-x="868" d="M100 1016v264q0 166 48 215q52 53 176 53h53v-120q-71 0 -97 -34q-24 -30 -24 -102h100v-276h-256zM492 1016v264q0 144 42 202q50 66 187 66h51v-120q-125 0 -125 -136h105v-276h-260z" />
<glyph unicode="&#x201d;" horiz-adv-x="868" d="M100 1004v120q68 0 96 34q24 30 23 102h-98v276h256v-248q1 -82 -9 -140q-8 -56 -44 -91q-48 -49 -180 -57q-14 4 -44 4zM492 1004v120q70 0 98 32q26 30 26 104h-100v276h256v-280q0 -149 -47 -198.5t-185 -57.5q-20 4 -48 4z" />
<glyph unicode="&#x201e;" horiz-adv-x="868" d="M96 -135q70 -1 96 33q24 30 23 102h-99v276h256v-243q0 -182 -52.5 -237.5t-198.5 -55.5h-25v125zM484 -135q72 -1 99 31q25 29 25 104h-100v276h256v-276q0 -154 -47 -205q-26 -28 -68 -41q-41 -12 -165 -14v125z" />
<glyph unicode="&#x2022;" horiz-adv-x="1065" d="M148 768q-2 77 30 153q62 143 208 204q70 30 146 30q218 1 334 -191q54 -90 54 -196q0 -220 -198 -332q-92 -52 -190 -51q-160 2 -270 113t-114 270z" />
<glyph unicode="&#x2026;" horiz-adv-x="2048" d="M213 0v280h258v-280h-258zM897 0v280h258v-280h-258zM1579 0v280h256v-280h-256z" />
<glyph unicode="&#x202f;" horiz-adv-x="407" />
<glyph unicode="&#x2039;" horiz-adv-x="663" d="M104 563l268 541l177 -96l-221 -445l231 -432l-163 -103z" />
<glyph unicode="&#x203a;" horiz-adv-x="663" d="M104 131l232 432l-220 445l177 96l266 -541l-291 -535z" />
<glyph unicode="&#x205f;" horiz-adv-x="509" />
<glyph unicode="&#x20ac;" d="M10 523l56 167h158v149h-198l56 167h145q5 142 31 233q24 85 78 153q58 74 126 100q88 34 186 45t176 11q93 0 174 -4q194 -12 284 -92q60 -54 82 -113q26 -75 32 -145q4 -52 5 -94h-291q0 120 -44 164q-46 44 -238 44q-198 0 -264 -63q-60 -59 -64 -239h589l-55 -167 h-534v-149h483l-57 -167h-425q4 -174 63 -232q65 -63 272 -63q200 0 246 44q34 32 42 87q4 22 4 106h290q0 -56 -6 -123q-6 -70 -32 -144q-20 -60 -80 -114q-90 -80 -285 -92q-81 -4 -183 -4q-86 0 -184 11t-186 45q-68 26 -126 100q-54 68 -78 153q-26 90 -30 226h-218z " />
<glyph unicode="&#x2122;" horiz-adv-x="2048" d="M144 1376v160h704v-160h-252v-668h-200v668h-252zM948 708v828h291l189 -488l184 488h292v-828h-180v668h-4l-240 -668h-108l-240 668h-4v-668h-180z" />
<glyph unicode="&#x25fc;" horiz-adv-x="1075" d="M0 0v1075h1075v-1075h-1075z" />
</font>
</defs>
</svg>
