<svg xmlns="http://www.w3.org/2000/svg"><defs/><symbol id="action-btn-cheatsheet" viewBox="0 0 16 16"><g>
<path d="M8,0C3.6,0,0,3.6,0,8s3.6,8,8,8s8-3.6,8-8S12.4,0,8,0z M8,13c-0.6,0-1-0.4-1-1c0-0.6,0.4-1,1-1s1,0.4,1,1
	C9,12.6,8.6,13,8,13z M9.5,8.4C9,8.7,9,8.8,9,9v1H7V9c0-1.3,0.8-1.9,1.4-2.3C8.9,6.4,9,6.3,9,6c0-0.6-0.4-1-1-1
	C7.6,5,7.3,5.2,7.1,5.5L6.6,6.4l-1.7-1l0.5-0.9C5.9,3.6,6.9,3,8,3c1.7,0,3,1.3,3,3C11,7.4,10.1,8,9.5,8.4z"/>
</g></symbol><symbol id="action-btn-collapse-horizontal" viewBox="0 0 16 16"><g><path d="M8,0C3.6,0,0,3.6,0,8s3.6,8,8,8s8-3.6,8-8S12.4,0,8,0z M10,11L6,8l4-3V11z"/></g></symbol><symbol id="action-btn-collapse-vertical" viewBox="0 0 16 16"><g><path d="M8,0C3.6,0,0,3.6,0,8s3.6,8,8,8s8-3.6,8-8S12.4,0,8,0z M8,10L5,6h6L8,10z"/></g></symbol><symbol id="action-btn-css" viewBox="0 0 24 24"><g>
<path data-color="color-2" d="M18.051,1H1C0.448,1,0,1.448,0,2v2h15.051L18.051,1z"/>
<path d="M18.994,9.956c-0.005,1.274-0.505,2.5-1.433,3.427C16.487,14.456,14.374,15,11.28,15l-0.331-0.004
	l-1.895-0.051l-0.051-1.895c-0.04-1.464,0.039-5.038,1.613-6.612C10.782,6.274,10.967,6.138,11.15,6H0v16c0,0.553,0.448,1,1,1h22
	c0.552,0,1-0.447,1-1V6h-1.05L18.994,9.956z"/>
<path data-color="color-2" d="M23.561,0.439c-0.586-0.586-1.535-0.586-2.121,0l-6.655,6.655
	c-0.956-0.235-2.006,0.011-2.753,0.758c-1.131,1.131-1.03,5.108-1.029,5.145c0.037,0.001,4.013,0.102,5.145-1.029
	c0.747-0.747,0.993-1.797,0.758-2.753l6.655-6.655C24.146,1.975,24.146,1.025,23.561,0.439z"/>
</g></symbol><symbol id="action-btn-fonts" viewBox="0 0 24 24"><g>
<path d="M23,0H1C0.448,0,0,0.448,0,1v6h2c0.334,0,0.647-0.167,0.832-0.445L4.535,4H10v15.382l-3.447,1.724
C6.214,21.275,6,21.621,6,22v2h12v-2c0-0.379-0.214-0.725-0.553-0.895L14,19.382V4h5.465l1.703,2.555C21.353,6.833,21.666,7,22,7h2
V1C24,0.448,23.552,0,23,0z"/>
</g></symbol><symbol id="action-btn-js" viewBox="0 0 24 24"><g>
<path data-color="color-2" d="M4,4V1H1C0.448,1,0,1.448,0,2v2H4z"/>
<path data-color="color-2" d="M24,4V2c0-0.552-0.448-1-1-1H6v3H24z"/>
<path d="M0,6v16c0,0.552,0.448,1,1,1h22c0.552,0,1-0.448,1-1V6H0z M8.707,14.707L5,18.414L3.586,17l3-3l-3-3L5,9.586
	l3.707,3.707C9.098,13.684,9.098,14.316,8.707,14.707z M17,18h-6v-2h6V18z"/>
</g></symbol><symbol id="action-btn-responsive" viewBox="0 0 16 16"><g>
<path d="M12,0H4C2.9,0,2,0.9,2,2v12c0,1.1,0.9,2,2,2h8c1.1,0,2-0.9,2-2V2C14,0.9,13.1,0,12,0z M9,14H7v-2h2V14z
	 M12,10H4V4h8V10z"/>
</g></symbol><symbol id="action-btn-save" viewBox="0 0 16 16"><g>
<path d="M11.7,0.3C11.5,0.1,11.3,0,11,0h-1v3c0,0.6-0.4,1-1,1H4C3.4,4,3,3.6,3,3V0H1C0.4,0,0,0.4,0,1v14
	c0,0.6,0.4,1,1,1h14c0.6,0,1-0.4,1-1V5c0-0.3-0.1-0.5-0.3-0.7L11.7,0.3z M13,14H3v-3c0-0.6,0.4-1,1-1h8c0.6,0,1,0.4,1,1V14z"/>
<rect data-color="color-2" x="7" width="2" height="3"/>
</g></symbol><symbol id="action-btn-skeleton" viewBox="0 0 16 16"><g><path d="M8,0C4.1,0,1,3.1,1,7c0,2.4,1.2,4.5,3,5.7V15c0,0.6,0.4,1,1,1h1v-2h1v2h2v-2h1v2h1c0.6,0,1-0.4,1-1v-2.3
	c1.8-1.3,3-3.4,3-5.7C15,3.1,11.9,0,8,0z M5.5,9C4.7,9,4,8.3,4,7.5S4.7,6,5.5,6S7,6.7,7,7.5S6.3,9,5.5,9z M10.5,9C9.7,9,9,8.3,9,7.5
	S9.7,6,10.5,6S12,6.7,12,7.5S11.3,9,10.5,9z"/></g></symbol><symbol id="action-btn-view-site" viewBox="0 0 16 16"><g><polygon points="16,0 10,0 12.293,2.293 7.293,7.293 8.707,8.707 13.707,3.707 16,6 "/><path d="M15,16H1c-0.552,0-1-0.448-1-1V1c0-0.552,0.448-1,1-1h7v2H2v12h12V8h2v7C16,15.552,15.552,16,15,16z"/></g></symbol><symbol id="global-nav-colors" viewBox="0 0 16 16"><path d="M8.5,5.5.914,13.086a1.414,1.414,0,0,0,0,2h0a1.414,1.414,0,0,0,2,0L10.5,7.5" fill="none" stroke-linecap="round" stroke-linejoin="round" data-cap="butt"/> <line x1="7.5" y1="1.5" x2="14.5" y2="8.5" fill="none" stroke-linecap="round" stroke-linejoin="round" data-cap="butt"/> <path d="M9.5,3.5l2.379-2.379a2.121,2.121,0,0,1,3,0h0a2.121,2.121,0,0,1,0,3L12.5,6.5" fill="none" stroke-linecap="round" stroke-linejoin="round" data-cap="butt"/></symbol><symbol id="global-nav-content" viewBox="0 0 48 48"><rect x="8" y="24" fill="none" stroke-width="2" stroke-linecap="square" stroke-miterlimit="10" width="12" height="12" stroke-linejoin="miter"/> <line fill="none" stroke-width="2" stroke-linecap="square" stroke-miterlimit="10" x1="26" y1="24" x2="40" y2="24" stroke-linejoin="miter"/> <line fill="none" stroke-width="2" stroke-linecap="square" stroke-miterlimit="10" x1="26" y1="30" x2="40" y2="30" stroke-linejoin="miter"/> <line fill="none" stroke-width="2" stroke-linecap="square" stroke-miterlimit="10" x1="26" y1="36" x2="32" y2="36" stroke-linejoin="miter"/> <line fill="none" stroke-width="2" stroke-linecap="square" stroke-miterlimit="10" x1="8" y1="10" x2="10" y2="10" stroke-linejoin="miter"/> <line fill="none" stroke-width="2" stroke-linecap="square" stroke-miterlimit="10" x1="16" y1="10" x2="18" y2="10" stroke-linejoin="miter"/> <line fill="none" stroke-width="2" stroke-linecap="square" stroke-miterlimit="10" x1="32" y1="10" x2="40" y2="10" stroke-linejoin="miter"/> <line fill="none" stroke-width="2" stroke-linecap="square" stroke-miterlimit="10" x1="2" y1="16" x2="46" y2="16" stroke-linejoin="miter"/> <rect x="2" y="4" fill="none" stroke-width="2" stroke-linecap="square" stroke-miterlimit="10" width="44" height="40" stroke-linejoin="miter"/></symbol><symbol id="global-nav-fonts" viewBox="0 0 16 16"><rect x="0.5" y="0.5" width="15" height="15" rx="1" ry="1" fill="none" stroke-linecap="round" stroke-linejoin="round"/> <polyline points="11.5 12.5 8.5 3.5 7.5 3.5 4.5 12.5" fill="none" stroke-linecap="round" stroke-linejoin="round"/> <line x1="3.5" y1="12.5" x2="6.5" y2="12.5" fill="none" stroke-linecap="round" stroke-linejoin="round"/> <line x1="9.5" y1="12.5" x2="12.5" y2="12.5" fill="none" stroke-linecap="round" stroke-linejoin="round"/> <line x1="5.833" y1="8.5" x2="10.167" y2="8.5" fill="none" stroke-linecap="round" stroke-linejoin="round"/></symbol><symbol id="global-nav-footers" viewBox="0 0 48 48"><rect x="2" y="6" fill="none" stroke-width="2" stroke-linecap="square" stroke-miterlimit="10" width="44" height="36" stroke-linejoin="miter"/> <rect x="8" y="28" fill="none" stroke-width="2" stroke-linecap="square" stroke-miterlimit="10" width="32" height="8" stroke-linejoin="miter"/></symbol><symbol id="global-nav-global-blocks" viewBox="0 0 16 16"><polyline points="1.5 3.5 8.5 6.5 15.5 3.5" fill="none" stroke-linecap="round" stroke-linejoin="round" data-cap="butt"/> <line x1="8.5" y1="15.5" x2="8.5" y2="6.5" fill="none" stroke-linecap="round" stroke-linejoin="round" data-cap="butt"/> <polygon points="1.5 12.5 8.5 15.5 15.5 12.5 15.5 3.5 8.5 0.5 1.5 3.5 1.5 12.5" fill="none" stroke-linecap="round" stroke-linejoin="round" data-cap="butt"/></symbol><symbol id="global-nav-headers" viewBox="0 0 48 48"><rect x="2" y="6" fill="none" stroke-width="2" stroke-linecap="square" stroke-miterlimit="10" width="44" height="36" stroke-linejoin="miter"/> <rect x="8" y="12" fill="none" stroke-width="2" stroke-linecap="square" stroke-miterlimit="10" width="32" height="8" stroke-linejoin="miter"/></symbol><symbol id="global-nav-options" viewBox="0 0 16 16"><path fill="none" stroke-linecap="round" stroke-linejoin="round" stroke-miterlimit="10" d="M3.5,0.5h9c1.657,0,3,1.343,3,3v0c0,1.657-1.343,3-3,3h-9" data-cap="butt"/><path fill="none" stroke-linecap="round" stroke-linejoin="round" stroke-miterlimit="10" d="M12.5,15.5h-9c-1.657,0-3-1.343-3-3v0c0-1.657,1.343-3,3-3h9" data-cap="butt"/><circle fill="none" stroke-linecap="round" stroke-linejoin="round" stroke-miterlimit="10" cx="3.5" cy="3.5" r="3" data-cap="butt"/><circle fill="none" stroke-linecap="round" stroke-linejoin="round" stroke-miterlimit="10" cx="12.5" cy="12.5" r="3" data-cap="butt"/></symbol><symbol id="global-nav-templates" viewBox="0 0 16 16"><polygon fill="none" stroke-linecap="round" stroke-linejoin="round" stroke-miterlimit="10" points="9.5,15.5 1.5,15.5 1.5,0.5 14.5,0.5 14.5,10.5 "/> <polyline fill="none" stroke-linecap="round" stroke-linejoin="round" stroke-miterlimit="10" points="9.5,15.5 9.5,10.5 14.5,10.5 "/> <line fill="none" stroke-linecap="round" stroke-linejoin="round" stroke-miterlimit="10" x1="4.5" y1="4.5" x2="11.5" y2="4.5"/> <line fill="none" stroke-linecap="round" stroke-linejoin="round" stroke-miterlimit="10" x1="4.5" y1="7.5" x2="11.5" y2="7.5"/> <line fill="none" stroke-linecap="round" stroke-linejoin="round" stroke-miterlimit="10" x1="4.5" y1="10.5" x2="6.5" y2="10.5"/></symbol><symbol id="index-choice-edit" viewBox="0 0 24 24"><g>
<path data-color="color-2" d="M1.9,17.3L1,21.8c-0.1,0.3,0,0.7,0.3,0.9C1.5,22.9,1.7,23,2,23c0.1,0,0.1,0,0.2,0l4.5-0.9
	L1.9,17.3z"/>
<rect x="3.5" y="9.2" transform="matrix(0.7071 -0.7071 0.7071 0.7071 -5.9706 11.5858)" width="15" height="7.7"/>
<path data-color="color-2" d="M22.7,5.3l-4-4c-0.4-0.4-1-0.4-1.4,0L15,3.6L20.4,9l2.3-2.3C23.1,6.3,23.1,5.7,22.7,5.3z"/>
</g></symbol><symbol id="index-choice-import" viewBox="0 0 24 24"><g>
<polygon data-color="color-2" points="17,6 12,0 7,6 11,6 11,17 13,17 13,6 "/>
<path d="M22,24H2c-0.308,0-0.599-0.142-0.788-0.385s-0.257-0.559-0.182-0.858l3-12C4.141,10.312,4.541,10,5,10h4v2
H5.781l-2.5,10h17.438l-2.5-10H15v-2h4c0.459,0,0.859,0.312,0.97,0.757l3,12c0.075,0.299,0.007,0.615-0.182,0.858S22.308,24,22,24z"/>
</g></symbol><symbol id="logo-content-flat-original" viewBox="0 0 345 232">
  <g transform="matrix(1,0,0,1,-3343.72,-5251.96)">
    <g transform="matrix(1.40625,-8.09101e-17,-5.21329e-17,1,843.357,4613.58)">
      <g transform="matrix(1,0,1.2326e-32,1,-153.994,13.4452)">
        <g transform="matrix(0.73192,5.92197e-17,3.81571e-17,1.02926,1932.03,624.936)">
          <path d="M237.029,152.955L237.029,185.144L223.104,177.092L223.104,161.005L223.086,161.005L181.258,136.851L181.258,120.746L237.029,152.955Z" style="fill:rgb(0,172,207);"/>
        </g>
        <g transform="matrix(0.73192,5.92197e-17,3.81571e-17,1.02926,1932.03,624.936)">
          <path d="M181.258,120.746L237.029,152.955L334.629,96.607L278.858,64.399L181.258,120.746Z" style="fill:rgb(23,207,243);fill-rule:nonzero;"/>
        </g>
        <g transform="matrix(0.73192,5.92197e-17,3.81571e-17,1.02926,1932.03,624.936)">
          <path d="M237.029,152.955L237.029,185.144L334.629,128.798L334.629,96.607L237.029,152.955Z" style="fill:rgb(0,188,225);fill-rule:nonzero;"/>
        </g>
        <g transform="matrix(0.73192,5.92197e-17,3.81571e-17,1.02926,1932.03,624.936)">
          <path d="M223.086,161.004L167.315,193.197L167.315,225.404L223.086,193.197L223.105,177.093L223.105,161.004L223.086,161.004Z" style="fill:rgb(157,118,189);fill-rule:nonzero;"/>
        </g>
        <g transform="matrix(0.73192,5.92197e-17,3.81571e-17,1.02926,1932.03,624.936)">
          <path d="M111.56,193.214L167.315,225.404L167.315,193.197L111.56,161.004L111.56,193.214Z" style="fill:rgb(141,96,179);fill-rule:nonzero;"/>
        </g>
        <g transform="matrix(0.73192,5.92197e-17,3.81571e-17,1.02926,1932.03,624.936)">
          <path d="M223.086,161.005L167.314,193.197L111.561,161.005L153.371,136.851L167.314,128.798L181.258,136.851L223.086,161.005Z" style="fill:rgb(198,135,223);"/>
        </g>
        <g transform="matrix(0.73192,5.92197e-17,3.81571e-17,1.02926,1932.03,624.936)">
          <path d="M223.086,177.093L223.105,177.093L223.086,177.093Z" style="fill:rgb(254,120,100);fill-rule:nonzero;"/>
        </g>
        <g transform="matrix(0.73192,5.92197e-17,3.81571e-17,1.02926,1932.03,624.936)">
          <path d="M98.804,153.65L98.804,152.955L98.804,153.65Z" style="fill:rgb(254,120,100);fill-rule:nonzero;"/>
        </g>
        <g transform="matrix(0.73192,5.92197e-17,3.81571e-17,1.02926,1932.03,624.936)">
          <path d="M167.315,0L0,96.607L97.619,152.955L153.371,120.746L139.447,112.711L111.543,96.607L223.105,32.209L167.315,0Z" style="fill:rgb(23,207,243);"/>
        </g>
        <g transform="matrix(0.73192,5.92197e-17,3.81571e-17,1.02926,1932.03,624.936)">
          <path d="M0,128.798L97.898,185.318L98.804,184.812L98.804,153.65L97.619,152.955L0,96.607L0,128.798Z" style="fill:rgb(0,172,207);fill-rule:nonzero;"/>
        </g>
        <g transform="matrix(0.73192,5.92197e-17,3.81571e-17,1.02926,1932.03,624.936)">
          <path d="M223.104,32.209L223.104,64.399L139.447,112.693L139.447,112.711L111.543,96.607L223.104,32.209Z" style="fill:rgb(0,188,225);"/>
        </g>
        <g transform="matrix(0.73192,5.92197e-17,3.81571e-17,1.02926,1932.03,624.936)">
          <path d="M98.804,185.841L97.899,185.318L98.804,185.841Z" style="fill:rgb(254,120,100);fill-rule:nonzero;"/>
        </g>
        <g transform="matrix(0.73192,5.92197e-17,3.81571e-17,1.02926,1932.03,624.936)">
          <path d="M97.619,185.493L97.898,185.318L97.619,185.493Z" style="fill:rgb(254,120,100);fill-rule:nonzero;"/>
        </g>
        <g transform="matrix(0.73192,5.92197e-17,3.81571e-17,1.02926,1932.03,624.936)">
          <path d="M98.804,185.841L98.804,184.812L98.804,185.841Z" style="fill:rgb(254,120,100);fill-rule:nonzero;"/>
        </g>
        <g transform="matrix(0.73192,5.92197e-17,3.81571e-17,1.02926,1932.03,624.936)">
          <path d="M153.371,120.746L153.371,136.851L111.561,161.005L111.561,177.441L111.543,177.441L98.804,184.812L98.804,153.65L97.619,152.955L153.371,120.746Z" style="fill:rgb(0,188,225);fill-rule:nonzero;"/>
        </g>
      </g>
    </g>
  </g>
</symbol><symbol id="logo-flat-custom" viewBox="-137 283 336 227">
  <g>
    <path class="cs-logo-block-light" d="M86.8,444.8C52.6,464.5,65.3,457.2,31,477c-5.9-3.4-49.9-28.8-55.8-32.2c61.8-35.7,25.9-15,55.8-32.2C49.9,423.5,33.8,414.2,86.8,444.8z"/>
    <path class="cs-logo-block-regular" d="M86.8,444.8V477c-34.2,19.7-21.5,12.4-55.8,32.2V477C65.2,457.3,52.5,464.6,86.8,444.8z"/>
    <path class="cs-logo-block-dark" d="M31,477v32.2c-5.9-3.4-49.9-28.8-55.8-32.2v-32.2C-18.9,448.2,25.1,473.6,31,477z"/>
    <path class="cs-logo-arms-dark" d="M-38.7,436.7L-38.7,436.7v32.2c-54.9-31.7-13.2-7.6-97.6-56.4v-32.1C-135.9,380.7-67.1,420.3-38.7,436.7z"/>
    <path class="cs-logo-arms-regular" d="M86.8,316v32.2c-74.9,43.3-33.5,19.4-83.7,48.3l-27.9-16.1C73,324,24.8,351.8,86.8,316z"/>
    <path class="cs-logo-arms-light" d="M31,283.8l-167.3,96.6c0.5,0.3,69.2,40,97.6,56.3l55.8-32.2c-17.7-10.2-8.7-5-41.8-24.1C73,324,24.8,351.8,86.8,316L31,283.8z"/>
    <path class="cs-logo-arms-light" d="M142.5,348.2c-13.4,7.7-83.9,48.4-97.6,56.3l55.8,32.2c29-16.7,94.9-54.8,97.6-56.4C164.1,360.7,176.8,368,142.5,348.2z"/>
    <path class="cs-logo-arms-regular" d="M198.3,380.4v32.2c0,0-97.6,56.3-97.6,56.4v-32.2C129.7,420,195.6,382,198.3,380.4z"/>
    <path class="cs-logo-arms-regular" d="M17,404.5v16.1c-17.8,10.3-8.8,5.1-41.8,24.1v16.4l-13.6,7.9l-0.3-0.2v-32.2l0,0L17,404.5z"/>
    <path class="cs-logo-arms-dark" d="M100.7,436.8V469l-13.9-8.1l0,0v-16.1C59,428.7,59.4,429,45,420.6v-16.1l0,0L100.7,436.8z"/>
  </g>
</symbol><symbol id="logo-flat-inspector" viewBox="-137 283 336 227">
  <g>
    <path fill="#92C5E9" class="cs-logo-block-light" d="M86.8,444.8C52.6,464.5,65.3,457.2,31,477c-5.9-3.4-49.9-28.8-55.8-32.2c61.8-35.7,25.9-15,55.8-32.2C49.9,423.5,33.8,414.2,86.8,444.8z"/>
    <path fill="#51A4DB" class="cs-logo-block-regular" d="M86.8,444.8V477c-34.2,19.7-21.5,12.4-55.8,32.2V477C65.2,457.3,52.5,464.6,86.8,444.8z"/>
    <path fill="#227FBB" class="cs-logo-block-dark" d="M31,477v32.2c-5.9-3.4-49.9-28.8-55.8-32.2v-32.2C-18.9,448.2,25.1,473.6,31,477z"/>
    <path fill="#B7B7B7" class="cs-logo-arms-dark" d="M-38.7,436.7L-38.7,436.7v32.2c-54.9-31.7-13.2-7.6-97.6-56.4v-32.1C-135.9,380.7-67.1,420.3-38.7,436.7z"/>
    <path fill="#D0D0D0" class="cs-logo-arms-regular" d="M86.8,316v32.2c-74.9,43.3-33.5,19.4-83.7,48.3l-27.9-16.1C73,324,24.8,351.8,86.8,316z"/>
    <path fill="#EAEAEA" class="cs-logo-arms-light" d="M31,283.8l-167.3,96.6c0.5,0.3,69.2,40,97.6,56.3l55.8-32.2c-17.7-10.2-8.7-5-41.8-24.1C73,324,24.8,351.8,86.8,316L31,283.8z"/>
    <path fill="#EAEAEA" class="cs-logo-arms-light" d="M142.5,348.2c-13.4,7.7-83.9,48.4-97.6,56.3l55.8,32.2c29-16.7,94.9-54.8,97.6-56.4C164.1,360.7,176.8,368,142.5,348.2z"/>
    <path fill="#D0D0D0" class="cs-logo-arms-regular" d="M198.3,380.4v32.2c0,0-97.6,56.3-97.6,56.4v-32.2C129.7,420,195.6,382,198.3,380.4z"/>
    <path fill="#D0D0D0" class="cs-logo-arms-regular" d="M17,404.5v16.1c-17.8,10.3-8.8,5.1-41.8,24.1v16.4l-13.6,7.9l-0.3-0.2v-32.2l0,0L17,404.5z"/>
    <path fill="#B7B7B7" class="cs-logo-arms-dark" d="M100.7,436.8V469l-13.9-8.1l0,0v-16.1C59,428.7,59.4,429,45,420.6v-16.1l0,0L100.7,436.8z"/>
  </g>
</symbol><symbol id="logo-flat-muted" viewBox="-137 283 336 227">
  <g>
    <path fill="#919191" class="cs-logo-block-light" d="M86.8,444.8C52.6,464.5,65.3,457.2,31,477c-5.9-3.4-49.9-28.8-55.8-32.2c61.8-35.7,25.9-15,55.8-32.2C49.9,423.5,33.8,414.2,86.8,444.8z"/>
    <path fill="#6A6A6A" class="cs-logo-block-regular" d="M86.8,444.8V477c-34.2,19.7-21.5,12.4-55.8,32.2V477C65.2,457.3,52.5,464.6,86.8,444.8z"/>
    <path fill="#444444" class="cs-logo-block-dark" d="M31,477v32.2c-5.9-3.4-49.9-28.8-55.8-32.2v-32.2C-18.9,448.2,25.1,473.6,31,477z"/>
    <path fill="#B7B7B7" class="cs-logo-arms-dark" d="M-38.7,436.7L-38.7,436.7v32.2c-54.9-31.7-13.2-7.6-97.6-56.4v-32.1C-135.9,380.7-67.1,420.3-38.7,436.7z"/>
    <path fill="#D0D0D0" class="cs-logo-arms-regular" d="M86.8,316v32.2c-74.9,43.3-33.5,19.4-83.7,48.3l-27.9-16.1C73,324,24.8,351.8,86.8,316z"/>
    <path fill="#EAEAEA" class="cs-logo-arms-light" d="M31,283.8l-167.3,96.6c0.5,0.3,69.2,40,97.6,56.3l55.8-32.2c-17.7-10.2-8.7-5-41.8-24.1C73,324,24.8,351.8,86.8,316L31,283.8z"/>
    <path fill="#EAEAEA" class="cs-logo-arms-light" d="M142.5,348.2c-13.4,7.7-83.9,48.4-97.6,56.3l55.8,32.2c29-16.7,94.9-54.8,97.6-56.4C164.1,360.7,176.8,368,142.5,348.2z"/>
    <path fill="#D0D0D0" class="cs-logo-arms-regular" d="M198.3,380.4v32.2c0,0-97.6,56.3-97.6,56.4v-32.2C129.7,420,195.6,382,198.3,380.4z"/>
    <path fill="#D0D0D0" class="cs-logo-arms-regular" d="M17,404.5v16.1c-17.8,10.3-8.8,5.1-41.8,24.1v16.4l-13.6,7.9l-0.3-0.2v-32.2l0,0L17,404.5z"/>
    <path fill="#B7B7B7" class="cs-logo-arms-dark" d="M100.7,436.8V469l-13.9-8.1l0,0v-16.1C59,428.7,59.4,429,45,420.6v-16.1l0,0L100.7,436.8z"/>
  </g>
</symbol><symbol id="logo-flat-original" viewBox="-137 283 336 227">
  <g>
    <path fill="#26CABC" d="M86.8,444.8C52.6,464.5,65.3,457.2,31,477c-5.9-3.4-49.9-28.8-55.8-32.2c61.8-35.7,25.9-15,55.8-32.2C49.9,423.5,33.8,414.2,86.8,444.8z"/>
    <path fill="#22B3A6" d="M86.8,444.8V477c-34.2,19.7-21.5,12.4-55.8,32.2V477C65.2,457.3,52.5,464.6,86.8,444.8z"/>
    <path fill="#1D968D" d="M31,477v32.2c-5.9-3.4-49.9-28.8-55.8-32.2v-32.2C-18.9,448.2,25.1,473.6,31,477z"/>
    <path fill="#DF5540" d="M-38.7,436.7L-38.7,436.7v32.2c-54.9-31.7-13.2-7.6-97.6-56.4v-32.1C-135.9,380.7-67.1,420.3-38.7,436.7z"/>
    <path fill="#FA5745" d="M86.8,316v32.2c-74.9,43.3-33.5,19.4-83.7,48.3l-27.9-16.1C73,324,24.8,351.8,86.8,316z"/>
    <path fill="#FE7864" d="M31,283.8l-167.3,96.6c0.5,0.3,69.2,40,97.6,56.3l55.8-32.2c-17.7-10.2-8.7-5-41.8-24.1C73,324,24.8,351.8,86.8,316L31,283.8z"/>
    <path fill="#FE7864" d="M142.5,348.2c-13.4,7.7-83.9,48.4-97.6,56.3l55.8,32.2c29-16.7,94.9-54.8,97.6-56.4C164.1,360.7,176.8,368,142.5,348.2z"/>
    <path fill="#FA5745" d="M198.3,380.4v32.2c0,0-97.6,56.3-97.6,56.4v-32.2C129.7,420,195.6,382,198.3,380.4z"/>
    <path fill="#FA5745" d="M17,404.5v16.1c-17.8,10.3-8.8,5.1-41.8,24.1v16.4l-13.6,7.9l-0.3-0.2v-32.2l0,0L17,404.5z"/>
    <path fill="#DF5540" d="M100.7,436.8V469l-13.9-8.1l0,0v-16.1C59,428.7,59.4,429,45,420.6v-16.1l0,0L100.7,436.8z"/>
  </g>
</symbol><symbol id="logo-footers-flat-original" viewBox="0 0 340 232">
  <g transform="matrix(1,0,0,1,-2900.24,-5251.97)">
    <g transform="matrix(1.40625,-8.09101e-17,-5.21329e-17,1,843.357,4613.58)">
      <g transform="matrix(0.711111,8.55019e-18,-6.47074e-18,1,299.899,57.1198)">
        <g transform="matrix(0.557668,2.73178e-17,3.41473e-17,0.557668,1449.69,376.05)">
          <path d="M692.82,592L803.672,528L803.672,464L692.82,528L692.82,592Z" style="fill:rgb(0,188,225);"/>
        </g>
        <g transform="matrix(0.557668,2.73178e-17,3.41473e-17,0.557668,1449.69,376.05)">
          <path d="M637.395,368L526.543,432L692.82,528L803.672,464L637.395,368Z" style="fill:rgb(23,207,243);"/>
        </g>
        <g transform="matrix(0.557668,2.73178e-17,3.41473e-17,0.557668,1449.69,376.05)">
          <path d="M692.82,592L526.543,496L526.543,432L692.82,528L692.82,592Z" style="fill:rgb(0,172,207);"/>
        </g>
        <g transform="matrix(0.557668,2.73178e-17,3.41473e-17,0.557668,1465.15,367.128)">
          <path d="M304.841,624L304.841,560L471.118,656L471.118,720L304.841,624Z" style="fill:rgb(0,172,207);"/>
        </g>
        <g transform="matrix(0.557668,2.73178e-17,3.41473e-17,0.557668,1465.15,367.128)">
          <path d="M637.395,624L637.395,560L471.118,656L471.118,720L637.395,624Z" style="fill:rgb(0,188,225);"/>
        </g>
        <g transform="matrix(0.557668,2.73178e-17,3.41473e-17,0.557668,1465.15,367.128)">
          <path d="M471.118,464L304.841,560L471.118,656L637.395,560L471.118,464Z" style="fill:rgb(23,207,243);"/>
        </g>
        <g transform="matrix(0.557668,2.73178e-17,3.41473e-17,0.557668,1650.6,474.2)">
          <path d="M166.277,480L471.118,304L581.969,368L277.128,544L166.277,480Z" style="fill:rgb(198,135,223);"/>
        </g>
        <g transform="matrix(0.557668,2.73178e-17,3.41473e-17,0.557668,1650.6,474.2)">
          <path d="M581.969,432L277.128,608L277.128,544L581.969,368L581.969,432Z" style="fill:rgb(157,118,189);"/>
        </g>
        <g transform="matrix(0.557668,2.73178e-17,3.41473e-17,0.557668,1650.6,474.2)">
          <path d="M166.277,480L166.277,544L277.128,608L277.128,544L166.277,480Z" style="fill:rgb(141,96,179);"/>
        </g>
      </g>
    </g>
  </g>
</symbol><symbol id="logo-headers-flat-original" viewBox="0 0 340 232">
  <g transform="matrix(1,0,0,1,-2456.75,-5251.97)">
    <g transform="matrix(1.40625,-8.09101e-17,-5.21329e-17,1,843.357,4613.58)">
      <g transform="matrix(0.711111,8.55019e-18,-6.47074e-18,1,320.729,57.1198)">
        <g transform="matrix(0.557668,2.73178e-17,3.41473e-17,0.557668,1069.64,411.741)">
          <path d="M166.277,480L471.118,304L581.969,368L277.128,544L166.277,480Z" style="fill:rgb(198,135,223);"/>
        </g>
        <g transform="matrix(0.557668,2.73178e-17,3.41473e-17,0.557668,1069.64,411.741)">
          <path d="M581.969,432L277.128,608L277.128,544L581.969,368L581.969,432Z" style="fill:rgb(157,118,189);"/>
        </g>
        <g transform="matrix(0.557668,2.73178e-17,3.41473e-17,0.557668,1069.64,411.741)">
          <path d="M166.277,480L166.277,544L277.128,608L277.128,544L166.277,480Z" style="fill:rgb(141,96,179);"/>
        </g>
        <g transform="matrix(0.557668,2.73178e-17,3.41473e-17,0.557668,1054.18,420.664)">
          <path d="M692.82,592L803.672,528L803.672,464L692.82,528L692.82,592Z" style="fill:rgb(0,188,225);"/>
        </g>
        <g transform="matrix(0.557668,2.73178e-17,3.41473e-17,0.557668,1054.18,420.664)">
          <path d="M637.395,368L526.543,432L692.82,528L803.672,464L637.395,368Z" style="fill:rgb(23,207,243);"/>
        </g>
        <g transform="matrix(0.557668,2.73178e-17,3.41473e-17,0.557668,1054.18,420.664)">
          <path d="M692.82,592L526.543,496L526.543,432L692.82,528L692.82,592Z" style="fill:rgb(0,172,207);"/>
        </g>
        <g transform="matrix(0.557668,2.73178e-17,3.41473e-17,0.557668,1069.64,411.741)">
          <path d="M304.841,624L304.841,560L471.118,656L471.118,720L304.841,624Z" style="fill:rgb(0,172,207);"/>
        </g>
        <g transform="matrix(0.557668,2.73178e-17,3.41473e-17,0.557668,1069.64,411.741)">
          <path d="M637.395,624L637.395,560L471.118,656L471.118,720L637.395,624Z" style="fill:rgb(0,188,225);"/>
        </g>
        <g transform="matrix(0.557668,2.73178e-17,3.41473e-17,0.557668,1069.64,411.741)">
          <path d="M471.118,464L304.841,560L471.118,656L637.395,560L471.118,464Z" style="fill:rgb(23,207,243);"/>
        </g>
      </g>
    </g>
  </g>
</symbol><symbol id="logo-pro" viewBox="0 0 281 317">
  <g id="pro-solid" style="fill:#265998">
    <g id="Pro-Logo">
      <path d="M127.406476,2.7395047 C133.616099,-0.858480949 143.727203,-0.915998835 149.978168,2.60422723 L269.977989,70.1820261 C276.234367,73.7053001 281.306163,82.3896987 281.306163,89.5607286 L281.306163,225.974417 C281.306163,233.153704 276.249926,241.851898 270.007866,245.405149 L149.948291,313.74828 C143.708414,317.300289 133.633456,317.241619 127.435773,313.61169 L11.2142214,245.541739 C5.02077793,241.914293 1.07802775e-13,233.145446 1.03838259e-13,225.974417 L2.84217094e-14,89.5607286 C2.44526274e-14,82.3814407 5.03711142,73.6428704 11.2435182,70.0467487 L127.406476,2.7395047 Z M78.801,128.209 C68.791,128.209 58.781,128.3 48.771,128.3 L48.771,192 L60.783,192 L60.783,173.254 L78.801,173.254 C110.014,173.254 109.923,128.209 78.801,128.209 Z M166.798,191.181 L147.506,169.432 C159.609,166.975 163.613,158.148 163.613,149.412 C163.613,138.401 155.696,128.391 140.681,128.3 C130.58,128.3 120.479,128.209 110.378,128.209 L110.378,192 L122.39,192 L122.39,170.706 L133.947,170.706 L152.511,192 L166.798,192 L166.798,191.181 Z M140.681,139.493 C148.234,139.493 151.601,144.589 151.601,149.685 C151.601,154.781 148.325,159.877 140.681,159.877 L122.39,159.877 L122.39,139.493 L140.681,139.493 Z M80.6799927,138.490005 C88.2327319,138.490005 90.6000061,145.583993 90.6000061,150.679993 C90.6000061,155.775993 88.3237288,162.880005 80.6799927,162.880005 L60.3899994,162.880005 L60.3899994,138.493 L80.6799927,138.490005 Z M201.651,127.026 C179.629,127.026 168.891,143.861 168.891,160.605 C168.891,177.349 179.265,193.456 201.651,193.456 C224.037,193.456 234.138,176.985 234.32,160.514 C234.502,143.861 223.582,127.026 201.651,127.026 Z M201.651,137.946 C216.666,137.946 222.672,149.958 222.49,160.696 C222.308,171.161 216.666,182.445 201.651,182.445 C186.636,182.445 180.994,171.252 180.721,160.787 C180.448,150.049 186.636,137.946 201.651,137.946 Z" id="Combined-Shape"/>
    </g>
  </g>
</symbol><symbol id="logo-themeco" viewBox="0 0 4320 504">
  <polygon points="198,0 0,0 0,108 198,108 198,504 306,504 306,108 504,108 504,0 306,0     "/>
  <polygon points="1008,198 720,198 720,0 612,0 612,198 612,306 612,504 720,504 720,306 1008,306 1008,504 1116,504 1116,306 1116,198 1116,0 1008,0    "/>
  <rect x="1224" width="504" height="108"/>
  <rect x="1224" y="198" width="504" height="108"/>
  <rect x="1224" y="396" width="504" height="108"/>
  <polygon points="2214,0 2106,0 1944,0 1836,0 1836,108 1836,504 1944,504 1944,108 2106,108 2106,504 2214,504 2214,108 2376,108 2376,504 2484,504 2484,108 2484,0 2376,0    "/>
  <rect x="2592" width="504" height="108"/>
  <rect x="2592" y="198" width="504" height="108"/>
  <rect x="2592" y="396" width="288" height="108"/>
  <rect x="2988" y="396" width="108" height="108"/>
  <polygon points="3204,0 3204,108 3204,396 3204,504 3312,504 3708,504 3708,396 3312,396 3312,108 3708,108 3708,0 3312,0     "/>
  <path d="M4212,0h-288h-108v108v288v108h108h288h108V396V108V0H4212z M4212,396h-288V108h288V396z"/>
</symbol><symbol id="logo-x" viewBox="0 0 314 314">
  <!-- Generator: Sketch 42 (36781) - http://www.bohemiancoding.com/sketch -->
  <title>x</title>
  <desc>Created with Sketch.</desc>
  
  <g id="Page-1" stroke="none" stroke-width="1" fill="none" fill-rule="evenodd">
      <g id="Desktop-HD" transform="translate(-465.000000, -660.000000)" fill="#000000">
          <g id="x" transform="translate(465.000000, 660.000000)">
              <polygon id="Path-2-Copy" points="92.2385914 87 123.226879 87 157.525701 139.018555 192.196599 87.0859375 221.951847 87.0859375 174.820623 156.598633 223.402654 227.489258 191.967905 227.489258 157.755193 175.689453 122.392888 227.351562 91 227.351562 140.283513 156.523438"/>
              <path d="M157,314 C70.2912943,314 0,243.708706 0,157 C0,70.2912943 70.2912943,0 157,0 C243.708706,0 314,70.2912943 314,157 C314,243.708706 243.708706,314 157,314 Z M157,291 C231.006156,291 291,231.006156 291,157 C291,82.9938435 231.006156,23 157,23 C82.9938435,23 23,82.9938435 23,157 C23,231.006156 82.9938435,291 157,291 Z" id="Combined-Shape"/>
          </g>
      </g>
  </g>
</symbol><symbol id="nav-elements-line" viewBox="0 0 30 30">
<path d="M27.9,21.9C27.9,21.8,27.9,21.8,27.9,21.9c0.1-0.1,0.1-0.1,0.1-0.2c0,0,0,0,0-0.1l0-13.2c0,0,0,0,0,0c0,0,0,0,0-0.1
	c0,0,0,0,0-0.1c0,0,0,0,0-0.1c0,0,0,0,0,0c0,0,0,0,0,0c0,0,0,0,0-0.1c0,0,0,0,0,0c0,0,0,0-0.1,0c0,0,0,0,0,0L15.7,1.4c0,0,0,0,0,0
	c0,0-0.1,0-0.1,0c0,0-0.1,0-0.1,0c0,0-0.1,0-0.1,0c0,0-0.1,0-0.1,0c0,0,0,0,0,0L2.3,8c0,0,0,0,0,0c0,0,0,0-0.1,0c0,0,0,0,0,0
	c0,0,0,0,0,0.1c0,0,0,0,0,0c0,0,0,0,0,0c0,0,0,0,0,0c0,0,0,0.1,0,0.1c0,0,0,0.1,0,0.1c0,0,0,0,0,0l0,13.2c0,0,0,0,0,0.1
	c0,0,0,0.1,0,0.1c0,0,0,0.1,0,0.1c0,0,0,0.1,0.1,0.1c0,0,0.1,0,0.1,0.1c0,0,0,0,0.1,0l12.9,6.6c0,0,0,0,0,0c0.1,0,0.1,0.1,0.2,0.1
	c0,0,0,0,0,0c0.1,0,0.2,0,0.2-0.1c0,0,0,0,0,0L27.7,22c0,0,0,0,0,0C27.8,22,27.8,22,27.9,21.9C27.8,21.9,27.8,21.9,27.9,21.9z
	 M15.5,2.4l10.9,6l-10.9,6l-11.8-6L15.5,2.4z M3.1,9.2L15,15.3v12.1L3.1,21.3L3.1,9.2z M16,15.3l10.9-6.1l0,12.1L16,27.4V15.3z"/>
</symbol><symbol id="nav-elements-solid" viewBox="-290 382 30 30">
  <g>
    <path d="M-275,395.9l12-6.4l-11.5-6c-0.3-0.2-0.6-0.2-0.9,0l-11.6,6.1L-275,395.9z"/>
    <path d="M-274,397.5v12.7l11.4-6.1c0.3-0.2,0.5-0.5,0.5-0.9v-12.1L-274,397.5z"/>
    <path d="M-276,397.5l-11.9-6.3v12.1c0,0.4,0.2,0.7,0.5,0.9l11.4,6V397.5z"/>
  </g>
</symbol><symbol id="nav-inspector-solid" viewBox="-290 382 30 30">
  <g>
    <path d="M-262.5,406.7l-4.9-5.1c-0.4-0.4-1-0.4-1.4,0l-0.5,0.4l-0.5-0.5c1.7-1.9,2.7-4.3,2.7-7.1c0.1-5.7-4.6-10.4-10.4-10.4s-10.5,4.7-10.5,10.5s4.7,10.5,10.5,10.5c2.7,0,5.2-1,7.1-2.7l0.5,0.5l-0.2,0.2c-0.4,0.4-0.4,1,0,1.4l4.9,5.1c0.2,0.2,0.4,0.3,0.7,0.3s0.5-0.1,0.7-0.3l1.4-1.4c0.2-0.2,0.3-0.4,0.3-0.7C-262.2,407.1-262.3,406.8-262.5,406.7z M-277.5,403c-4.7,0-8.5-3.8-8.5-8.5s3.8-8.5,8.5-8.5s8.5,3.8,8.5,8.5S-272.8,403-277.5,403z"/>
    <path d="M-277.5,387.8c-3.7,0-6.7,2.9-6.7,6.7c0,3.6,3,6.7,6.7,6.7s6.7-3,6.7-6.7C-270.8,390.8-273.9,387.8-277.5,387.8z"/>
  </g>
</symbol><symbol id="nav-layout-solid" viewBox="-290 382 30 30">
  <g>
    <path d="M-264,384h-22c-0.6,0-1,0.4-1,1v3c0,0.6,0.4,1,1,1h22c0.6,0,1-0.4,1-1v-3C-263,384.4-263.4,384-264,384z"/>
    <path d="M-264,391h-12c-0.6,0-1,0.4-1,1v3c0,0.6,0.4,1,1,1h12c0.6,0,1-0.4,1-1v-3C-263,391.4-263.4,391-264,391z"/>
    <path d="M-286,396h6c0.6,0,1-0.4,1-1v-3c0-0.6-0.4-1-1-1h-6c-0.6,0-1,0.4-1,1v3C-287,395.6-286.6,396-286,396z"/>
    <path d="M-286,403h12c0.6,0,1-0.4,1-1v-3c0-0.6-0.4-1-1-1h-12c-0.6,0-1,0.4-1,1v3C-287,402.6-286.6,403-286,403z"/>
    <path d="M-264,398h-6c-0.6,0-1,0.4-1,1v3c0,0.6,0.4,1,1,1h6c0.6,0,1-0.4,1-1v-3C-263,398.4-263.4,398-264,398z"/>
    <path d="M-264,405h-22c-0.6,0-1,0.4-1,1v3c0,0.6,0.4,1,1,1h22c0.6,0,1-0.4,1-1v-3C-263,405.4-263.4,405-264,405z"/>
  </g>
</symbol><symbol id="nav-settings-solid" viewBox="-290 382 30 30">
  <path d="M-262,398.6v-3.1l-2.7-0.5l-0.4-1.4l2.1-1.7l-1.6-2.7l-2.6,1l-1-1l1-2.6l-2.7-1.6l-1.7,2.1l-1.4-0.4l-0.4-2.7h-3.1l-0.5,2.7l-1.4,0.4l-1.7-2.1l-2.7,1.6l1,2.6l-1,1l-2.6-1l-1.6,2.7l2.1,1.7l-0.4,1.4l-2.7,0.4v3.1l2.7,0.5l0.4,1.4l-2.1,1.7l1.6,2.7l2.6-1l1,1l-1,2.6l2.7,1.6l1.7-2.1l1.4,0.4l0.4,2.7h3.1l0.4-2.7l1.4-0.4l1.7,2.1l2.7-1.6l-1-2.6l1-1l2.6,1l1.6-2.7l-2.1-1.7l0.4-1.4L-262,398.6z M-275,403c-3.3,0-6-2.7-6-6s2.7-6,6-6s6,2.7,6,6S-271.7,403-275,403z"/>
</symbol><symbol id="preview-sizer-lg" viewBox="0 0 24 24"><g>
<path d="M21,13.795V4c0-1.103-0.897-2-2-2H5C3.897,2,3,2.897,3,4v9.795l-2.322,5.417
c-0.265,0.62-0.202,1.326,0.169,1.889C1.218,21.664,1.842,22,2.517,22h18.967c0.674,0,1.298-0.336,1.67-0.899
c0.371-0.563,0.434-1.269,0.168-1.889L21,13.795z M19,13H5V4h14V13z"/>
</g></symbol><symbol id="preview-sizer-md" viewBox="0 0 24 24"><g>
<path d="M20,0H4C2.346,0,1,1.346,1,3v18c0,1.654,1.346,3,3,3h16c1.654,0,3-1.346,3-3V3C23,1.346,21.654,0,20,0z
 M12,22c-0.552,0-1-0.448-1-1s0.448-1,1-1s1,0.448,1,1S12.552,22,12,22z M21,17c0,0.552-0.448,1-1,1H4c-0.552,0-1-0.448-1-1V4
c0-0.552,0.448-1,1-1h16c0.552,0,1,0.448,1,1V17z"/>
</g></symbol><symbol id="preview-sizer-sm" viewBox="0 0 24 24"><g>
<path d="M18,0H6C4.346,0,3,1.346,3,3v18c0,1.654,1.346,3,3,3h12c1.654,0,3-1.346,3-3V3C21,1.346,19.654,0,18,0z
 M12,22c-0.552,0-1-0.448-1-1s0.448-1,1-1s1,0.448,1,1S12.552,22,12,22z M19,17c0,0.552-0.448,1-1,1H6c-0.552,0-1-0.448-1-1V4
c0-0.552,0.448-1,1-1h12c0.552,0,1,0.448,1,1V17z"/>
</g></symbol><symbol id="preview-sizer-xl" viewBox="0 0 24 24"><g>
<circle data-color="color-2" cx="12" cy="5" r="1"/>
<path d="M21,0H3C1.346,0,0,1.346,0,3v14c0,1.654,1.346,3,3,3h7v2H6c-0.552,0-1,0.448-1,1s0.448,1,1,1h12
c0.552,0,1-0.448,1-1s-0.448-1-1-1h-4v-2h7c1.654,0,3-1.346,3-3V3C24,1.346,22.654,0,21,0z M22,15H2V3c0-0.552,0.448-1,1-1h18
c0.552,0,1,0.448,1,1V15z"/>
</g></symbol><symbol id="preview-sizer-xs" viewBox="0 0 24 24"><g>
<path d="M17,0H7C5.3,0,4,1.3,4,3v18c0,1.7,1.3,3,3,3h10c1.7,0,3-1.3,3-3V3C20,1.3,18.7,0,17,0z M12,21
c-1.1,0-2-0.9-2-2s0.9-2,2-2s2,0.9,2,2S13.1,21,12,21z M17,14c0,0.6-0.4,1-1,1H8c-0.6,0-1-0.4-1-1V4c0-0.6,0.4-1,1-1h8
c0.6,0,1,0.4,1,1V14z"/>
</g></symbol></svg>