<?xml version="1.0" encoding="UTF-8"?><!DOCTYPE svg PUBLIC "-//W3C//DTD SVG 1.1//EN" "http://www.w3.org/Graphics/SVG/1.1/DTD/svg11.dtd"><svg xmlns="http://www.w3.org/2000/svg" xmlns:xlink="http://www.w3.org/1999/xlink"><defs/><symbol id="action-btn-cheatsheet" viewBox="0 0 16 16"><g>
<path d="M8,0C3.6,0,0,3.6,0,8s3.6,8,8,8s8-3.6,8-8S12.4,0,8,0z M8,13c-0.6,0-1-0.4-1-1c0-0.6,0.4-1,1-1s1,0.4,1,1
	C9,12.6,8.6,13,8,13z M9.5,8.4C9,8.7,9,8.8,9,9v1H7V9c0-1.3,0.8-1.9,1.4-2.3C8.9,6.4,9,6.3,9,6c0-0.6-0.4-1-1-1
	C7.6,5,7.3,5.2,7.1,5.5L6.6,6.4l-1.7-1l0.5-0.9C5.9,3.6,6.9,3,8,3c1.7,0,3,1.3,3,3C11,7.4,10.1,8,9.5,8.4z"/>
</g></symbol><symbol id="action-btn-collapse-horizontal" viewBox="0 0 16 16"><g><path d="M8,0C3.6,0,0,3.6,0,8s3.6,8,8,8s8-3.6,8-8S12.4,0,8,0z M8,10L5,6h6L8,10z"/></g></symbol><symbol id="action-btn-collapse-vertical" viewBox="0 0 16 16"><g><path d="M8,0C3.6,0,0,3.6,0,8s3.6,8,8,8s8-3.6,8-8S12.4,0,8,0z M10,11L6,8l4-3V11z"/></g></symbol><symbol id="action-btn-css" viewBox="0 0 24 24"><g>
<path data-color="color-2" d="M18.051,1H1C0.448,1,0,1.448,0,2v2h15.051L18.051,1z"/>
<path d="M18.994,9.956c-0.005,1.274-0.505,2.5-1.433,3.427C16.487,14.456,14.374,15,11.28,15l-0.331-0.004
	l-1.895-0.051l-0.051-1.895c-0.04-1.464,0.039-5.038,1.613-6.612C10.782,6.274,10.967,6.138,11.15,6H0v16c0,0.553,0.448,1,1,1h22
	c0.552,0,1-0.447,1-1V6h-1.05L18.994,9.956z"/>
<path data-color="color-2" d="M23.561,0.439c-0.586-0.586-1.535-0.586-2.121,0l-6.655,6.655
	c-0.956-0.235-2.006,0.011-2.753,0.758c-1.131,1.131-1.03,5.108-1.029,5.145c0.037,0.001,4.013,0.102,5.145-1.029
	c0.747-0.747,0.993-1.797,0.758-2.753l6.655-6.655C24.146,1.975,24.146,1.025,23.561,0.439z"/>
</g></symbol><symbol id="action-btn-fonts" viewBox="0 0 24 24"><g>
<path d="M23,0H1C0.448,0,0,0.448,0,1v6h2c0.334,0,0.647-0.167,0.832-0.445L4.535,4H10v15.382l-3.447,1.724
C6.214,21.275,6,21.621,6,22v2h12v-2c0-0.379-0.214-0.725-0.553-0.895L14,19.382V4h5.465l1.703,2.555C21.353,6.833,21.666,7,22,7h2
V1C24,0.448,23.552,0,23,0z"/>
</g></symbol><symbol id="action-btn-js" viewBox="0 0 24 24"><g>
<path data-color="color-2" d="M4,4V1H1C0.448,1,0,1.448,0,2v2H4z"/>
<path data-color="color-2" d="M24,4V2c0-0.552-0.448-1-1-1H6v3H24z"/>
<path d="M0,6v16c0,0.552,0.448,1,1,1h22c0.552,0,1-0.448,1-1V6H0z M8.707,14.707L5,18.414L3.586,17l3-3l-3-3L5,9.586
	l3.707,3.707C9.098,13.684,9.098,14.316,8.707,14.707z M17,18h-6v-2h6V18z"/>
</g></symbol><symbol id="action-btn-responsive" viewBox="0 0 16 16"><g>
<path d="M12,0H4C2.9,0,2,0.9,2,2v12c0,1.1,0.9,2,2,2h8c1.1,0,2-0.9,2-2V2C14,0.9,13.1,0,12,0z M9,14H7v-2h2V14z
	 M12,10H4V4h8V10z"/>
</g></symbol><symbol id="action-btn-save" viewBox="0 0 16 16"><g>
<path d="M11.7,0.3C11.5,0.1,11.3,0,11,0h-1v3c0,0.6-0.4,1-1,1H4C3.4,4,3,3.6,3,3V0H1C0.4,0,0,0.4,0,1v14
	c0,0.6,0.4,1,1,1h14c0.6,0,1-0.4,1-1V5c0-0.3-0.1-0.5-0.3-0.7L11.7,0.3z M13,14H3v-3c0-0.6,0.4-1,1-1h8c0.6,0,1,0.4,1,1V14z"/>
<rect data-color="color-2" x="7" width="2" height="3"/>
</g></symbol><symbol id="action-btn-skeleton" viewBox="0 0 16 16"><g><path d="M8,0C4.1,0,1,3.1,1,7c0,2.4,1.2,4.5,3,5.7V15c0,0.6,0.4,1,1,1h1v-2h1v2h2v-2h1v2h1c0.6,0,1-0.4,1-1v-2.3
	c1.8-1.3,3-3.4,3-5.7C15,3.1,11.9,0,8,0z M5.5,9C4.7,9,4,8.3,4,7.5S4.7,6,5.5,6S7,6.7,7,7.5S6.3,9,5.5,9z M10.5,9C9.7,9,9,8.3,9,7.5
	S9.7,6,10.5,6S12,6.7,12,7.5S11.3,9,10.5,9z"/></g></symbol><symbol id="action-btn-view-site" viewBox="0 0 16 16"><g><polygon points="16,0 10,0 12.293,2.293 7.293,7.293 8.707,8.707 13.707,3.707 16,6 "/><path d="M15,16H1c-0.552,0-1-0.448-1-1V1c0-0.552,0.448-1,1-1h7v2H2v12h12V8h2v7C16,15.552,15.552,16,15,16z"/></g></symbol><symbol id="add-dynamic-content" viewBox="0 0 16 16">
  <g class="nc-icon-wrapper">
    <path d="M8,16c3.5,0,7-0.9,7-3V6.4C13.4,7.4,11,8,8,8S2.6,7.4,1,6.4V13C1,15.1,4.5,16,8,16z"/>
    <path d="M8,6c3.5,0,7-0.9,7-3s-3.5-3-7-3S1,0.9,1,3S4.5,6,8,6z"/>
  </g>
</symbol><symbol id="add-within" viewBox="0 0 16 16">
  <g>
    <path d="M14,0H2C1.4,0,1,0.4,1,1v14c0,0.6,0.4,1,1,1h12c0.6,0,1-0.4,1-1V1C15,0.4,14.6,0,14,0z M13,14H3V2h10V14z"/>
    <polygon points="7,11 9,11 9,9 11,9 11,7 9,7 9,5 7,5 7,7 5,7 5,9 7,9 "/>
  </g>
</symbol><symbol id="drag-and-drop" viewBox="0 0 24 24"><polygon points="24,12 19,7 19,11 13,11 13,5 17,5 12,0 7,5 11,5 11,11 5,11 5,7 0,12 5,17 5,13 11,13 11,19 7,19 12,24 17,19 13,19 13,13 19,13 19,17"/></symbol><symbol id="fa-arrow-alt-left-fas" viewBox="0 0 448 512"><path d="M448 208v96c0 13.3-10.7 24-24 24H224v103.8c0 21.4-25.8 32.1-41 17L7 273c-9.4-9.4-9.4-24.6 0-34L183 63.3c15.1-15.1 41-4.4 41 17V184h200c13.3 0 24 10.7 24 24z"/></symbol><symbol id="fa-arrows-alt" viewBox="0 0 512 512"><path d="M352.201 425.775l-79.196 79.196c-9.373 9.373-24.568 9.373-33.941 0l-79.196-79.196c-15.119-15.119-4.411-40.971 16.971-40.97h51.162L228 284H127.196v51.162c0 21.382-25.851 32.09-40.971 16.971L7.029 272.937c-9.373-9.373-9.373-24.569 0-33.941L86.225 159.8c15.119-15.119 40.971-4.411 40.971 16.971V228H228V127.196h-51.23c-21.382 0-32.09-25.851-16.971-40.971l79.196-79.196c9.373-9.373 24.568-9.373 33.941 0l79.196 79.196c15.119 15.119 4.411 40.971-16.971 40.971h-51.162V228h100.804v-51.162c0-21.382 25.851-32.09 40.97-16.971l79.196 79.196c9.373 9.373 9.373 24.569 0 33.941L425.773 352.2c-15.119 15.119-40.971 4.411-40.97-16.971V284H284v100.804h51.23c21.382 0 32.09 25.851 16.971 40.971z"/></symbol><symbol id="fa-backward" viewBox="0 0 512 512"><path d="M267.5 281.2l192 159.4c20.6 17.2 52.5 2.8 52.5-24.6V96c0-27.4-31.9-41.8-52.5-24.6L267.5 232c-15.3 12.8-15.3 36.4 0 49.2zM464 130.3V382L313 256.6l151-126.3zM11.5 281.2l192 159.4c20.6 17.2 52.5 2.8 52.5-24.6V96c0-27.4-31.9-41.8-52.5-24.6L11.5 232c-15.3 12.8-15.3 36.4 0 49.2zM208 130.3V382L57 256.6l151-126.3z"/></symbol><symbol id="fa-bars" viewBox="0 0 448 512"><path d="M16 132h416c8.837 0 16-7.163 16-16V76c0-8.837-7.163-16-16-16H16C7.163 60 0 67.163 0 76v40c0 8.837 7.163 16 16 16zm0 160h416c8.837 0 16-7.163 16-16v-40c0-8.837-7.163-16-16-16H16c-8.837 0-16 7.163-16 16v40c0 8.837 7.163 16 16 16zm0 160h416c8.837 0 16-7.163 16-16v-40c0-8.837-7.163-16-16-16H16c-8.837 0-16 7.163-16 16v40c0 8.837 7.163 16 16 16z"/></symbol><symbol id="fa-bug" viewBox="0 0 512 512"><path d="M511.988 288.9c-.478 17.43-15.217 31.1-32.653 31.1H424v16c0 21.864-4.882 42.584-13.6 61.145l60.228 60.228c12.496 12.497 12.496 32.758 0 45.255-12.498 12.497-32.759 12.496-45.256 0l-54.736-54.736C345.886 467.965 314.351 480 280 480V236c0-6.627-5.373-12-12-12h-24c-6.627 0-12 5.373-12 12v244c-34.351 0-65.886-12.035-90.636-32.108l-54.736 54.736c-12.498 12.497-32.759 12.496-45.256 0-12.496-12.497-12.496-32.758 0-45.255l60.228-60.228C92.882 378.584 88 357.864 88 336v-16H32.666C15.23 320 .491 306.33.013 288.9-.484 270.816 14.028 256 32 256h56v-58.745l-46.628-46.628c-12.496-12.497-12.496-32.758 0-45.255 12.498-12.497 32.758-12.497 45.256 0L141.255 160h229.489l54.627-54.627c12.498-12.497 32.758-12.497 45.256 0 12.496 12.497 12.496 32.758 0 45.255L424 197.255V256h56c17.972 0 32.484 14.816 31.988 32.9zM257 0c-61.856 0-112 50.144-112 112h224C369 50.144 318.856 0 257 0z"/></symbol><symbol id="fa-caret-down" viewBox="0 0 320 512"><path d="M31.3 192h257.3c17.8 0 26.7 21.5 14.1 34.1L174.1 354.8c-7.8 7.8-20.5 7.8-28.3 0L17.2 226.1C4.6 213.5 13.5 192 31.3 192z"/></symbol><symbol id="fa-caret-right" viewBox="0 0 192 512"><path d="M0 384.662V127.338c0-17.818 21.543-26.741 34.142-14.142l128.662 128.662c7.81 7.81 7.81 20.474 0 28.284L34.142 398.804C21.543 411.404 0 402.48 0 384.662z"/></symbol><symbol id="fa-check-circle" viewBox="0 0 512 512"><path d="M504 256c0 136.967-111.033 248-248 248S8 392.967 8 256 119.033 8 256 8s248 111.033 248 248zM227.314 387.314l184-184c6.248-6.248 6.248-16.379 0-22.627l-22.627-22.627c-6.248-6.249-16.379-6.249-22.628 0L216 308.118l-70.059-70.059c-6.248-6.248-16.379-6.248-22.628 0l-22.627 22.627c-6.248 6.248-6.248 16.379 0 22.627l104 104c6.249 6.249 16.379 6.249 22.628.001z"/></symbol><symbol id="fa-chevron-down" viewBox="0 0 448 512"><path d="M207.029 381.476L12.686 187.132c-9.373-9.373-9.373-24.569 0-33.941l22.667-22.667c9.357-9.357 24.522-9.375 33.901-.04L224 284.505l154.745-154.021c9.379-9.335 24.544-9.317 33.901.04l22.667 22.667c9.373 9.373 9.373 24.569 0 33.941L240.971 381.476c-9.373 9.372-24.569 9.372-33.942 0z"/></symbol><symbol id="fa-chevron-up" viewBox="0 0 448 512"><path d="M240.971 130.524l194.343 194.343c9.373 9.373 9.373 24.569 0 33.941l-22.667 22.667c-9.357 9.357-24.522 9.375-33.901.04L224 227.495 69.255 381.516c-9.379 9.335-24.544 9.317-33.901-.04l-22.667-22.667c-9.373-9.373-9.373-24.569 0-33.941L207.03 130.525c9.372-9.373 24.568-9.373 33.941-.001z"/></symbol><symbol id="fa-clipboard-list-check" viewBox="0 0 384 512"><path d="M126.2 286.4l64.2-63.6c2.1-2.1 2.1-5.5 0-7.6l-12.6-12.7c-2.1-2.1-5.5-2.1-7.6 0l-47.6 47.2-20.6-20.9c-2.1-2.1-5.5-2.1-7.6 0l-12.7 12.6c-2.1 2.1-2.1 5.5 0 7.6l37.1 37.4c1.9 2.1 5.3 2.1 7.4 0zM336 64h-80c0-35.3-28.7-64-64-64s-64 28.7-64 64H48C21.5 64 0 85.5 0 112v352c0 26.5 21.5 48 48 48h288c26.5 0 48-21.5 48-48V112c0-26.5-21.5-48-48-48zM192 48c8.8 0 16 7.2 16 16s-7.2 16-16 16-16-7.2-16-16 7.2-16 16-16zm144 408c0 4.4-3.6 8-8 8H56c-4.4 0-8-3.6-8-8V120c0-4.4 3.6-8 8-8h40v32c0 8.8 7.2 16 16 16h160c8.8 0 16-7.2 16-16v-32h40c4.4 0 8 3.6 8 8v336zM112 328c-13.3 0-24 10.7-24 24s10.7 24 24 24 24-10.7 24-24-10.7-24-24-24zm168-88h-63.3c-1.3 1.8-2.1 3.9-3.7 5.5L186.2 272H280c4.4 0 8-3.6 8-8v-16c0-4.4-3.6-8-8-8zm0 96H168c-4.4 0-8 3.6-8 8v16c0 4.4 3.6 8 8 8h112c4.4 0 8-3.6 8-8v-16c0-4.4-3.6-8-8-8z"/></symbol><symbol id="fa-clipboard" viewBox="0 0 384 512"><path d="M336 64h-80c0-35.3-28.7-64-64-64s-64 28.7-64 64H48C21.5 64 0 85.5 0 112v352c0 26.5 21.5 48 48 48h288c26.5 0 48-21.5 48-48V112c0-26.5-21.5-48-48-48zM192 40c13.3 0 24 10.7 24 24s-10.7 24-24 24-24-10.7-24-24 10.7-24 24-24zm144 418c0 3.3-2.7 6-6 6H54c-3.3 0-6-2.7-6-6V118c0-3.3 2.7-6 6-6h42v36c0 6.6 5.4 12 12 12h168c6.6 0 12-5.4 12-12v-36h42c3.3 0 6 2.7 6 6z"/></symbol><symbol id="fa-clone" viewBox="0 0 512 512"><path d="M464 0c26.51 0 48 21.49 48 48v288c0 26.51-21.49 48-48 48H176c-26.51 0-48-21.49-48-48V48c0-26.51 21.49-48 48-48h288M176 416c-44.112 0-80-35.888-80-80V128H48c-26.51 0-48 21.49-48 48v288c0 26.51 21.49 48 48 48h288c26.51 0 48-21.49 48-48v-48H176z"/></symbol><symbol id="fa-code" viewBox="0 0 640 512"><path d="M278.9 511.5l-61-17.7c-6.4-1.8-10-8.5-8.2-14.9L346.2 8.7c1.8-6.4 8.5-10 14.9-8.2l61 17.7c6.4 1.8 10 8.5 8.2 14.9L293.8 503.3c-1.9 6.4-8.5 10.1-14.9 8.2zm-114-112.2l43.5-46.4c4.6-4.9 4.3-12.7-.8-17.2L117 256l90.6-79.7c5.1-4.5 5.5-12.3.8-17.2l-43.5-46.4c-4.5-4.8-12.1-5.1-17-.5L3.8 247.2c-5.1 4.7-5.1 12.8 0 17.5l144.1 135.1c4.9 4.6 12.5 4.4 17-.5zm327.2.6l144.1-135.1c5.1-4.7 5.1-12.8 0-17.5L492.1 112.1c-4.8-4.5-12.4-4.3-17 .5L431.6 159c-4.6 4.9-4.3 12.7.8 17.2L523 256l-90.6 79.7c-5.1 4.5-5.5 12.3-.8 17.2l43.5 46.4c4.5 4.9 12.1 5.1 17 .6z"/></symbol><symbol id="fa-cog-far" viewBox="0 0 512 512"><path d="M452.515 237l31.843-18.382c9.426-5.441 13.996-16.542 11.177-27.054-11.404-42.531-33.842-80.547-64.058-110.797-7.68-7.688-19.575-9.246-28.985-3.811l-31.785 18.358a196.276 196.276 0 0 0-32.899-19.02V39.541a24.016 24.016 0 0 0-17.842-23.206c-41.761-11.107-86.117-11.121-127.93-.001-10.519 2.798-17.844 12.321-17.844 23.206v36.753a196.276 196.276 0 0 0-32.899 19.02l-31.785-18.358c-9.41-5.435-21.305-3.877-28.985 3.811-30.216 30.25-52.654 68.265-64.058 110.797-2.819 10.512 1.751 21.613 11.177 27.054L59.485 237a197.715 197.715 0 0 0 0 37.999l-31.843 18.382c-9.426 5.441-13.996 16.542-11.177 27.054 11.404 42.531 33.842 80.547 64.058 110.797 7.68 7.688 19.575 9.246 28.985 3.811l31.785-18.358a196.202 196.202 0 0 0 32.899 19.019v36.753a24.016 24.016 0 0 0 17.842 23.206c41.761 11.107 86.117 11.122 127.93.001 10.519-2.798 17.844-12.321 17.844-23.206v-36.753a196.34 196.34 0 0 0 32.899-19.019l31.785 18.358c9.41 5.435 21.305 3.877 28.985-3.811 30.216-30.25 52.654-68.266 64.058-110.797 2.819-10.512-1.751-21.613-11.177-27.054L452.515 275c1.22-12.65 1.22-25.35 0-38zm-52.679 63.019l43.819 25.289a200.138 200.138 0 0 1-33.849 58.528l-43.829-25.309c-31.984 27.397-36.659 30.077-76.168 44.029v50.599a200.917 200.917 0 0 1-67.618 0v-50.599c-39.504-13.95-44.196-16.642-76.168-44.029l-43.829 25.309a200.15 200.15 0 0 1-33.849-58.528l43.819-25.289c-7.63-41.299-7.634-46.719 0-88.038l-43.819-25.289c7.85-21.229 19.31-41.049 33.849-58.529l43.829 25.309c31.984-27.397 36.66-30.078 76.168-44.029V58.845a200.917 200.917 0 0 1 67.618 0v50.599c39.504 13.95 44.196 16.642 76.168 44.029l43.829-25.309a200.143 200.143 0 0 1 33.849 58.529l-43.819 25.289c7.631 41.3 7.634 46.718 0 88.037zM256 160c-52.935 0-96 43.065-96 96s43.065 96 96 96 96-43.065 96-96-43.065-96-96-96zm0 144c-26.468 0-48-21.532-48-48 0-26.467 21.532-48 48-48s48 21.533 48 48c0 26.468-21.532 48-48 48z"/></symbol><symbol id="fa-cog" viewBox="0 0 512 512"><path d="M487.4 315.7l-42.6-24.6c4.3-23.2 4.3-47 0-70.2l42.6-24.6c4.9-2.8 7.1-8.6 5.5-14-11.1-35.6-30-67.8-54.7-94.6-3.8-4.1-10-5.1-14.8-2.3L380.8 110c-17.9-15.4-38.5-27.3-60.8-35.1V25.8c0-5.6-3.9-10.5-9.4-11.7-36.7-8.2-74.3-7.8-109.2 0-5.5 1.2-9.4 6.1-9.4 11.7V75c-22.2 7.9-42.8 19.8-60.8 35.1L88.7 85.5c-4.9-2.8-11-1.9-14.8 2.3-24.7 26.7-43.6 58.9-54.7 94.6-1.7 5.4.6 11.2 5.5 14L67.3 221c-4.3 23.2-4.3 47 0 70.2l-42.6 24.6c-4.9 2.8-7.1 8.6-5.5 14 11.1 35.6 30 67.8 54.7 94.6 3.8 4.1 10 5.1 14.8 2.3l42.6-24.6c17.9 15.4 38.5 27.3 60.8 35.1v49.2c0 5.6 3.9 10.5 9.4 11.7 36.7 8.2 74.3 7.8 109.2 0 5.5-1.2 9.4-6.1 9.4-11.7v-49.2c22.2-7.9 42.8-19.8 60.8-35.1l42.6 24.6c4.9 2.8 11 1.9 14.8-2.3 24.7-26.7 43.6-58.9 54.7-94.6 1.5-5.5-.7-11.3-5.6-14.1zM256 336c-44.1 0-80-35.9-80-80s35.9-80 80-80 80 35.9 80 80-35.9 80-80 80z"/></symbol><symbol id="fa-cogs" viewBox="0 0 640 512"><path d="M512.1 191l-8.2 14.3c-3 5.3-9.4 7.5-15.1 5.4-11.8-4.4-22.6-10.7-32.1-18.6-4.6-3.8-5.8-10.5-2.8-15.7l8.2-14.3c-6.9-8-12.3-17.3-15.9-27.4h-16.5c-6 0-11.2-4.3-12.2-10.3-2-12-2.1-24.6 0-37.1 1-6 6.2-10.4 12.2-10.4h16.5c3.6-10.1 9-19.4 15.9-27.4l-8.2-14.3c-3-5.2-1.9-11.9 2.8-15.7 9.5-7.9 20.4-14.2 32.1-18.6 5.7-2.1 12.1.1 15.1 5.4l8.2 14.3c10.5-1.9 21.2-1.9 31.7 0L552 6.3c3-5.3 9.4-7.5 15.1-5.4 11.8 4.4 22.6 10.7 32.1 18.6 4.6 3.8 5.8 10.5 2.8 15.7l-8.2 14.3c6.9 8 12.3 17.3 15.9 27.4h16.5c6 0 11.2 4.3 12.2 10.3 2 12 2.1 24.6 0 37.1-1 6-6.2 10.4-12.2 10.4h-16.5c-3.6 10.1-9 19.4-15.9 27.4l8.2 14.3c3 5.2 1.9 11.9-2.8 15.7-9.5 7.9-20.4 14.2-32.1 18.6-5.7 2.1-12.1-.1-15.1-5.4l-8.2-14.3c-10.4 1.9-21.2 1.9-31.7 0zm-10.5-58.8c38.5 29.6 82.4-14.3 52.8-52.8-38.5-29.7-82.4 14.3-52.8 52.8zM386.3 286.1l33.7 16.8c10.1 5.8 14.5 18.1 10.5 29.1-8.9 24.2-26.4 46.4-42.6 65.8-7.4 8.9-20.2 11.1-30.3 5.3l-29.1-16.8c-16 13.7-34.6 24.6-54.9 31.7v33.6c0 11.6-8.3 21.6-19.7 23.6-24.6 4.2-50.4 4.4-75.9 0-11.5-2-20-11.9-20-23.6V418c-20.3-7.2-38.9-18-54.9-31.7L74 403c-10 5.8-22.9 3.6-30.3-5.3-16.2-19.4-33.3-41.6-42.2-65.7-4-10.9.4-23.2 10.5-29.1l33.3-16.8c-3.9-20.9-3.9-42.4 0-63.4L12 205.8c-10.1-5.8-14.6-18.1-10.5-29 8.9-24.2 26-46.4 42.2-65.8 7.4-8.9 20.2-11.1 30.3-5.3l29.1 16.8c16-13.7 34.6-24.6 54.9-31.7V57.1c0-11.5 8.2-21.5 19.6-23.5 24.6-4.2 50.5-4.4 76-.1 11.5 2 20 11.9 20 23.6v33.6c20.3 7.2 38.9 18 54.9 31.7l29.1-16.8c10-5.8 22.9-3.6 30.3 5.3 16.2 19.4 33.2 41.6 42.1 65.8 4 10.9.1 23.2-10 29.1l-33.7 16.8c3.9 21 3.9 42.5 0 63.5zm-117.6 21.1c59.2-77-28.7-164.9-105.7-105.7-59.2 77 28.7 164.9 105.7 105.7zm243.4 182.7l-8.2 14.3c-3 5.3-9.4 7.5-15.1 5.4-11.8-4.4-22.6-10.7-32.1-18.6-4.6-3.8-5.8-10.5-2.8-15.7l8.2-14.3c-6.9-8-12.3-17.3-15.9-27.4h-16.5c-6 0-11.2-4.3-12.2-10.3-2-12-2.1-24.6 0-37.1 1-6 6.2-10.4 12.2-10.4h16.5c3.6-10.1 9-19.4 15.9-27.4l-8.2-14.3c-3-5.2-1.9-11.9 2.8-15.7 9.5-7.9 20.4-14.2 32.1-18.6 5.7-2.1 12.1.1 15.1 5.4l8.2 14.3c10.5-1.9 21.2-1.9 31.7 0l8.2-14.3c3-5.3 9.4-7.5 15.1-5.4 11.8 4.4 22.6 10.7 32.1 18.6 4.6 3.8 5.8 10.5 2.8 15.7l-8.2 14.3c6.9 8 12.3 17.3 15.9 27.4h16.5c6 0 11.2 4.3 12.2 10.3 2 12 2.1 24.6 0 37.1-1 6-6.2 10.4-12.2 10.4h-16.5c-3.6 10.1-9 19.4-15.9 27.4l8.2 14.3c3 5.2 1.9 11.9-2.8 15.7-9.5 7.9-20.4 14.2-32.1 18.6-5.7 2.1-12.1-.1-15.1-5.4l-8.2-14.3c-10.4 1.9-21.2 1.9-31.7 0zM501.6 431c38.5 29.6 82.4-14.3 52.8-52.8-38.5-29.6-82.4 14.3-52.8 52.8z"/></symbol><symbol id="fa-compress" viewBox="0 0 448 512"><path d="M436 192H312c-13.3 0-24-10.7-24-24V44c0-6.6 5.4-12 12-12h24c6.6 0 12 5.4 12 12v100h100c6.6 0 12 5.4 12 12v24c0 6.6-5.4 12-12 12zm-276-24V44c0-6.6-5.4-12-12-12h-24c-6.6 0-12 5.4-12 12v100H12c-6.6 0-12 5.4-12 12v24c0 6.6 5.4 12 12 12h124c13.3 0 24-10.7 24-24zm0 300V344c0-13.3-10.7-24-24-24H12c-6.6 0-12 5.4-12 12v24c0 6.6 5.4 12 12 12h100v100c0 6.6 5.4 12 12 12h24c6.6 0 12-5.4 12-12zm176 0V368h100c6.6 0 12-5.4 12-12v-24c0-6.6-5.4-12-12-12H312c-13.3 0-24 10.7-24 24v124c0 6.6 5.4 12 12 12h24c6.6 0 12-5.4 12-12z"/></symbol><symbol id="fa-copy" viewBox="0 0 448 512"><path d="M433.941 65.941l-51.882-51.882A48 48 0 0 0 348.118 0H176c-26.51 0-48 21.49-48 48v48H48c-26.51 0-48 21.49-48 48v320c0 26.51 21.49 48 48 48h224c26.51 0 48-21.49 48-48v-48h80c26.51 0 48-21.49 48-48V99.882a48 48 0 0 0-14.059-33.941zM266 464H54a6 6 0 0 1-6-6V150a6 6 0 0 1 6-6h74v224c0 26.51 21.49 48 48 48h96v42a6 6 0 0 1-6 6zm128-96H182a6 6 0 0 1-6-6V54a6 6 0 0 1 6-6h106v88c0 13.255 10.745 24 24 24h88v202a6 6 0 0 1-6 6zm6-256h-64V48h9.632c1.591 0 3.117.632 4.243 1.757l48.368 48.368a6 6 0 0 1 1.757 4.243V112z"/></symbol><symbol id="fa-download" viewBox="0 0 512 512"><path d="M216 0h80c13.3 0 24 10.7 24 24v168h87.7c17.8 0 26.7 21.5 14.1 34.1L269.7 378.3c-7.5 7.5-19.8 7.5-27.3 0L90.1 226.1c-12.6-12.6-3.7-34.1 14.1-34.1H192V24c0-13.3 10.7-24 24-24zm296 376v112c0 13.3-10.7 24-24 24H24c-13.3 0-24-10.7-24-24V376c0-13.3 10.7-24 24-24h146.7l49 49c20.1 20.1 52.5 20.1 72.6 0l49-49H488c13.3 0 24 10.7 24 24zm-124 88c0-11-9-20-20-20s-20 9-20 20 9 20 20 20 20-9 20-20zm64 0c0-11-9-20-20-20s-20 9-20 20 9 20 20 20 20-9 20-20z"/></symbol><symbol id="fa-ellipsis-h" viewBox="0 0 512 512"><path d="M304 256c0 26.5-21.5 48-48 48s-48-21.5-48-48 21.5-48 48-48 48 21.5 48 48zm120-48c-26.5 0-48 21.5-48 48s21.5 48 48 48 48-21.5 48-48-21.5-48-48-48zm-336 0c-26.5 0-48 21.5-48 48s21.5 48 48 48 48-21.5 48-48-21.5-48-48-48z"/></symbol><symbol id="fa-eraser" viewBox="0 0 512 512"><path d="M497.941 273.941c18.745-18.745 18.745-49.137 0-67.882l-160-160c-18.745-18.745-49.136-18.746-67.883 0l-256 256c-18.745 18.745-18.745 49.137 0 67.882l96 96A48.004 48.004 0 0 0 144 480h356c6.627 0 12-5.373 12-12v-40c0-6.627-5.373-12-12-12H355.883l142.058-142.059zm-302.627-62.627l137.373 137.373L265.373 416H150.628l-80-80 124.686-124.686z"/></symbol><symbol id="fa-external-link-alt" viewBox="0 0 576 512"><path d="M576 24v127.984c0 21.461-25.96 31.98-40.971 16.971l-35.707-35.709-243.523 243.523c-9.373 9.373-24.568 9.373-33.941 0l-22.627-22.627c-9.373-9.373-9.373-24.569 0-33.941L442.756 76.676l-35.703-35.705C391.982 25.9 402.656 0 424.024 0H552c13.255 0 24 10.745 24 24zM407.029 270.794l-16 16A23.999 23.999 0 0 0 384 303.765V448H64V128h264a24.003 24.003 0 0 0 16.97-7.029l16-16C376.089 89.851 365.381 64 344 64H48C21.49 64 0 85.49 0 112v352c0 26.51 21.49 48 48 48h352c26.51 0 48-21.49 48-48V287.764c0-21.382-25.852-32.09-40.971-16.97z"/></symbol><symbol id="fa-eye" viewBox="0 0 576 512"><path d="M572.52 241.4C518.29 135.59 410.93 64 288 64S57.68 135.64 3.48 241.41a32.35 32.35 0 0 0 0 29.19C57.71 376.41 165.07 448 288 448s230.32-71.64 284.52-177.41a32.35 32.35 0 0 0 0-29.19zM288 400a144 144 0 1 1 144-144 143.93 143.93 0 0 1-144 144zm0-240a95.31 95.31 0 0 0-25.31 3.79 47.85 47.85 0 0 1-66.9 66.9A95.78 95.78 0 1 0 288 160z"/></symbol><symbol id="fa-file-alt" viewBox="0 0 384 512"><path d="M288 248v28c0 6.6-5.4 12-12 12H108c-6.6 0-12-5.4-12-12v-28c0-6.6 5.4-12 12-12h168c6.6 0 12 5.4 12 12zm-12 72H108c-6.6 0-12 5.4-12 12v28c0 6.6 5.4 12 12 12h168c6.6 0 12-5.4 12-12v-28c0-6.6-5.4-12-12-12zm108-188.1V464c0 26.5-21.5 48-48 48H48c-26.5 0-48-21.5-48-48V48C0 21.5 21.5 0 48 0h204.1C264.8 0 277 5.1 286 14.1L369.9 98c9 8.9 14.1 21.2 14.1 33.9zm-128-80V128h76.1L256 51.9zM336 464V176H232c-13.3 0-24-10.7-24-24V48H48v416h288z"/></symbol><symbol id="fa-file-image" viewBox="0 0 384 512"><path d="M369.9 97.9L286 14C277 5 264.8-.1 252.1-.1H48C21.5 0 0 21.5 0 48v416c0 26.5 21.5 48 48 48h288c26.5 0 48-21.5 48-48V131.9c0-12.7-5.1-25-14.1-34zM332.1 128H256V51.9l76.1 76.1zM48 464V48h160v104c0 13.3 10.7 24 24 24h104v288H48zm32-48h224V288l-23.5-23.5c-4.7-4.7-12.3-4.7-17 0L176 352l-39.5-39.5c-4.7-4.7-12.3-4.7-17 0L80 352v64zm48-240c-26.5 0-48 21.5-48 48s21.5 48 48 48 48-21.5 48-48-21.5-48-48-48z"/></symbol><symbol id="fa-globe" viewBox="0 0 496 512"><path d="M336.5 160C322 70.7 287.8 8 248 8s-74 62.7-88.5 152h177zM152 256c0 22.2 1.2 43.5 3.3 64h185.3c2.1-20.5 3.3-41.8 3.3-64s-1.2-43.5-3.3-64H155.3c-2.1 20.5-3.3 41.8-3.3 64zm324.7-96c-28.6-67.9-86.5-120.4-158-141.6 24.4 33.8 41.2 84.7 50 141.6h108zM177.2 18.4C105.8 39.6 47.8 92.1 19.3 160h108c8.7-56.9 25.5-107.8 49.9-141.6zM487.4 192H372.7c2.1 21 3.3 42.5 3.3 64s-1.2 43-3.3 64h114.6c5.5-20.5 8.6-41.8 8.6-64s-3.1-43.5-8.5-64zM120 256c0-21.5 1.2-43 3.3-64H8.6C3.2 212.5 0 233.8 0 256s3.2 43.5 8.6 64h114.6c-2-21-3.2-42.5-3.2-64zm39.5 96c14.5 89.3 48.7 152 88.5 152s74-62.7 88.5-152h-177zm159.3 141.6c71.4-21.2 129.4-73.7 158-141.6h-108c-8.8 56.9-25.6 107.8-50 141.6zM19.3 352c28.6 67.9 86.5 120.4 158 141.6-24.4-33.8-41.2-84.7-50-141.6h-108z"/></symbol><symbol id="fa-history" viewBox="0 0 512 512"><path d="M504 255.531c.253 136.64-111.18 248.372-247.82 248.468-59.015.042-113.223-20.53-155.822-54.911-11.077-8.94-11.905-25.541-1.839-35.607l11.267-11.267c8.609-8.609 22.353-9.551 31.891-1.984C173.062 425.135 212.781 440 256 440c101.705 0 184-82.311 184-184 0-101.705-82.311-184-184-184-48.814 0-93.149 18.969-126.068 49.932l50.754 50.754c10.08 10.08 2.941 27.314-11.313 27.314H24c-8.837 0-16-7.163-16-16V38.627c0-14.254 17.234-21.393 27.314-11.314l49.372 49.372C129.209 34.136 189.552 8 256 8c136.81 0 247.747 110.78 248 247.531zm-180.912 78.784l9.823-12.63c8.138-10.463 6.253-25.542-4.21-33.679L288 256.349V152c0-13.255-10.745-24-24-24h-16c-13.255 0-24 10.745-24 24v135.651l65.409 50.874c10.463 8.137 25.541 6.253 33.679-4.21z"/></symbol><symbol id="fa-image" viewBox="0 0 512 512"><path d="M464 64H48C21.49 64 0 85.49 0 112v288c0 26.51 21.49 48 48 48h416c26.51 0 48-21.49 48-48V112c0-26.51-21.49-48-48-48zm-6 336H54a6 6 0 0 1-6-6V118a6 6 0 0 1 6-6h404a6 6 0 0 1 6 6v276a6 6 0 0 1-6 6zM128 152c-22.091 0-40 17.909-40 40s17.909 40 40 40 40-17.909 40-40-17.909-40-40-40zM96 352h320v-80l-87.515-87.515c-4.686-4.686-12.284-4.686-16.971 0L192 304l-39.515-39.515c-4.686-4.686-12.284-4.686-16.971 0L96 304v48z"/></symbol><symbol id="fa-link" viewBox="0 0 512 512"><path d="M326.612 185.391c59.747 59.809 58.927 155.698.36 214.59-.11.12-.24.25-.36.37l-67.2 67.2c-59.27 59.27-155.699 59.262-214.96 0-59.27-59.26-59.27-155.7 0-214.96l37.106-37.106c9.84-9.84 26.786-3.3 27.294 10.606.648 17.722 3.826 35.527 9.69 52.721 1.986 5.822.567 12.262-3.783 16.612l-13.087 13.087c-28.026 28.026-28.905 73.66-1.155 101.96 28.024 28.579 74.086 28.749 102.325.51l67.2-67.19c28.191-28.191 28.073-73.757 0-101.83-3.701-3.694-7.429-6.564-10.341-8.569a16.037 16.037 0 0 1-6.947-12.606c-.396-10.567 3.348-21.456 11.698-29.806l21.054-21.055c5.521-5.521 14.182-6.199 20.584-1.731a152.482 152.482 0 0 1 20.522 17.197zM467.547 44.449c-59.261-59.262-155.69-59.27-214.96 0l-67.2 67.2c-.12.12-.25.25-.36.37-58.566 58.892-59.387 154.781.36 214.59a152.454 152.454 0 0 0 20.521 17.196c6.402 4.468 15.064 3.789 20.584-1.731l21.054-21.055c8.35-8.35 12.094-19.239 11.698-29.806a16.037 16.037 0 0 0-6.947-12.606c-2.912-2.005-6.64-4.875-10.341-8.569-28.073-28.073-28.191-73.639 0-101.83l67.2-67.19c28.239-28.239 74.3-28.069 102.325.51 27.75 28.3 26.872 73.934-1.155 101.96l-13.087 13.087c-4.35 4.35-5.769 10.79-3.783 16.612 5.864 17.194 9.042 34.999 9.69 52.721.509 13.906 17.454 20.446 27.294 10.606l37.106-37.106c59.271-59.259 59.271-155.699.001-214.959z"/></symbol><symbol id="fa-marker" viewBox="0 0 512 512"><path d="M93.95 290.03A327.038 327.038 0 0 0 .17 485.11l-.03.23c-1.7 15.28 11.21 28.2 26.49 26.51a327.02 327.02 0 0 0 195.34-93.8l75.4-75.4-128.02-128.02-75.4 75.4zM485.49 26.51c-35.35-35.35-92.67-35.35-128.02 0l-21.76 21.76-36.56-36.55c-15.62-15.62-40.95-15.62-56.56 0L138.47 115.84c-6.25 6.25-6.25 16.38 0 22.63l22.62 22.62c6.25 6.25 16.38 6.25 22.63 0l87.15-87.15 19.59 19.59L191.98 192 320 320.02l165.49-165.49c35.35-35.35 35.35-92.66 0-128.02z"/></symbol><symbol id="fa-object-ungroup" viewBox="0 0 576 512"><path d="M64 320v26a6 6 0 0 1-6 6H6a6 6 0 0 1-6-6v-52a6 6 0 0 1 6-6h26V96H6a6 6 0 0 1-6-6V38a6 6 0 0 1 6-6h52a6 6 0 0 1 6 6v26h288V38a6 6 0 0 1 6-6h52a6 6 0 0 1 6 6v52a6 6 0 0 1-6 6h-26v192h26a6 6 0 0 1 6 6v52a6 6 0 0 1-6 6h-52a6 6 0 0 1-6-6v-26H64zm480-64v-32h26a6 6 0 0 0 6-6v-52a6 6 0 0 0-6-6h-52a6 6 0 0 0-6 6v26H408v72h8c13.255 0 24 10.745 24 24v64c0 13.255-10.745 24-24 24h-64c-13.255 0-24-10.745-24-24v-8H192v72h-26a6 6 0 0 0-6 6v52a6 6 0 0 0 6 6h52a6 6 0 0 0 6-6v-26h288v26a6 6 0 0 0 6 6h52a6 6 0 0 0 6-6v-52a6 6 0 0 0-6-6h-26V256z"/></symbol><symbol id="fa-paint-roller" viewBox="0 0 512 512"><path d="M456 72h-40V48c0-26.51-21.49-48-48-48H48C21.49 0 0 21.49 0 48v96c0 26.51 21.49 48 48 48h320c26.51 0 48-21.49 48-48v-24h40c4.41 0 8 3.59 8 8v96c0 4.41-3.59 8-8 8H256c-30.88 0-56 25.12-56 56v32h-8c-17.67 0-32 14.33-32 32v128c0 17.67 14.33 32 32 32h64c17.67 0 32-14.33 32-32V352c0-17.67-14.33-32-32-32h-8v-32c0-4.41 3.59-8 8-8h200c30.88 0 56-25.12 56-56v-96c0-30.88-25.12-56-56-56zm-88 72H48V48h320v96zM240 464h-32v-96h32v96z"/></symbol><symbol id="fa-paste" viewBox="0 0 448 512"><path d="M433.941 193.941l-51.882-51.882A48 48 0 0 0 348.118 128H320V80c0-26.51-21.49-48-48-48h-61.414C201.582 13.098 182.294 0 160 0s-41.582 13.098-50.586 32H48C21.49 32 0 53.49 0 80v288c0 26.51 21.49 48 48 48h80v48c0 26.51 21.49 48 48 48h224c26.51 0 48-21.49 48-48V227.882a48 48 0 0 0-14.059-33.941zm-84.066-16.184l48.368 48.368a6 6 0 0 1 1.757 4.243V240h-64v-64h9.632a6 6 0 0 1 4.243 1.757zM160 38c9.941 0 18 8.059 18 18s-8.059 18-18 18-18-8.059-18-18 8.059-18 18-18zm-32 138v192H54a6 6 0 0 1-6-6V86a6 6 0 0 1 6-6h55.414c9.004 18.902 28.292 32 50.586 32s41.582-13.098 50.586-32H266a6 6 0 0 1 6 6v42h-96c-26.51 0-48 21.49-48 48zm266 288H182a6 6 0 0 1-6-6V182a6 6 0 0 1 6-6h106v88c0 13.255 10.745 24 24 24h88v170a6 6 0 0 1-6 6z"/></symbol><symbol id="fa-pencil-alt" viewBox="0 0 512 512"><path d="M497.9 142.1l-46.1 46.1c-4.7 4.7-12.3 4.7-17 0l-111-111c-4.7-4.7-4.7-12.3 0-17l46.1-46.1c18.7-18.7 49.1-18.7 67.9 0l60.1 60.1c18.8 18.7 18.8 49.1 0 67.9zM284.2 99.8L21.6 362.4.4 483.9c-2.9 16.4 11.4 30.6 27.8 27.8l121.5-21.3 262.6-262.6c4.7-4.7 4.7-12.3 0-17l-111-111c-4.8-4.7-12.4-4.7-17.1 0zM124.1 339.9c-5.5-5.5-5.5-14.3 0-19.8l154-154c5.5-5.5 14.3-5.5 19.8 0s5.5 14.3 0 19.8l-154 154c-5.5 5.5-14.3 5.5-19.8 0zM88 424h48v36.3l-64.5 11.3-31.1-31.1L51.7 376H88v48z"/></symbol><symbol id="fa-plus-circle" viewBox="0 0 512 512"><path d="M256 8C119 8 8 119 8 256s111 248 248 248 248-111 248-248S393 8 256 8zm144 276c0 6.6-5.4 12-12 12h-92v92c0 6.6-5.4 12-12 12h-56c-6.6 0-12-5.4-12-12v-92h-92c-6.6 0-12-5.4-12-12v-56c0-6.6 5.4-12 12-12h92v-92c0-6.6 5.4-12 12-12h56c6.6 0 12 5.4 12 12v92h92c6.6 0 12 5.4 12 12v56z"/></symbol><symbol id="fa-plus-square" viewBox="0 0 448 512"><path d="M400 32H48C21.5 32 0 53.5 0 80v352c0 26.5 21.5 48 48 48h352c26.5 0 48-21.5 48-48V80c0-26.5-21.5-48-48-48zm-32 252c0 6.6-5.4 12-12 12h-92v92c0 6.6-5.4 12-12 12h-56c-6.6 0-12-5.4-12-12v-92H92c-6.6 0-12-5.4-12-12v-56c0-6.6 5.4-12 12-12h92v-92c0-6.6 5.4-12 12-12h56c6.6 0 12 5.4 12 12v92h92c6.6 0 12 5.4 12 12v56z"/></symbol><symbol id="fa-plus" viewBox="0 0 448 512"><path d="M416 208H272V64c0-17.67-14.33-32-32-32h-32c-17.67 0-32 14.33-32 32v144H32c-17.67 0-32 14.33-32 32v32c0 17.67 14.33 32 32 32h144v144c0 17.67 14.33 32 32 32h32c17.67 0 32-14.33 32-32V304h144c17.67 0 32-14.33 32-32v-32c0-17.67-14.33-32-32-32z"/></symbol><symbol id="fa-search-plus" viewBox="0 0 512 512"><path d="M304 192v32c0 6.6-5.4 12-12 12h-56v56c0 6.6-5.4 12-12 12h-32c-6.6 0-12-5.4-12-12v-56h-56c-6.6 0-12-5.4-12-12v-32c0-6.6 5.4-12 12-12h56v-56c0-6.6 5.4-12 12-12h32c6.6 0 12 5.4 12 12v56h56c6.6 0 12 5.4 12 12zm201 284.7L476.7 505c-9.4 9.4-24.6 9.4-33.9 0L343 405.3c-4.5-4.5-7-10.6-7-17V372c-35.3 27.6-79.7 44-128 44C93.1 416 0 322.9 0 208S93.1 0 208 0s208 93.1 208 208c0 48.3-16.4 92.7-44 128h16.3c6.4 0 12.5 2.5 17 7l99.7 99.7c9.3 9.4 9.3 24.6 0 34zM344 208c0-75.2-60.8-136-136-136S72 132.8 72 208s60.8 136 136 136 136-60.8 136-136z"/></symbol><symbol id="fa-search" viewBox="0 0 512 512"><path d="M505 442.7L405.3 343c-4.5-4.5-10.6-7-17-7H372c27.6-35.3 44-79.7 44-128C416 93.1 322.9 0 208 0S0 93.1 0 208s93.1 208 208 208c48.3 0 92.7-16.4 128-44v16.3c0 6.4 2.5 12.5 7 17l99.7 99.7c9.4 9.4 24.6 9.4 33.9 0l28.3-28.3c9.4-9.4 9.4-24.6.1-34zM208 336c-70.7 0-128-57.2-128-128 0-70.7 57.2-128 128-128 70.7 0 128 57.2 128 128 0 70.7-57.2 128-128 128z"/></symbol><symbol id="fa-sort-down" viewBox="0 0 320 512"><path d="M41 288h238c21.4 0 32.1 25.9 17 41L177 448c-9.4 9.4-24.6 9.4-33.9 0L24 329c-15.1-15.1-4.4-41 17-41z"/></symbol><symbol id="fa-sort-up" viewBox="0 0 320 512"><path d="M279 224H41c-21.4 0-32.1-25.9-17-41L143 64c9.4-9.4 24.6-9.4 33.9 0l119 119c15.2 15.1 4.5 41-16.9 41z"/></symbol><symbol id="fa-star-far" viewBox="0 0 576 512"><path d="M528.1 171.5L382 150.2 316.7 17.8c-11.7-23.6-45.6-23.9-57.4 0L194 150.2 47.9 171.5c-26.2 3.8-36.7 36.1-17.7 54.6l105.7 103-25 145.5c-4.5 26.3 23.2 46 46.4 33.7L288 439.6l130.7 68.7c23.2 12.2 50.9-7.4 46.4-33.7l-25-145.5 105.7-103c19-18.5 8.5-50.8-17.7-54.6zM388.6 312.3l23.7 138.4L288 385.4l-124.3 65.3 23.7-138.4-100.6-98 139-20.2 62.2-126 62.2 126 139 20.2-100.6 98z"/></symbol><symbol id="fa-star-fas" viewBox="0 0 576 512"><path d="M259.3 17.8L194 150.2 47.9 171.5c-26.2 3.8-36.7 36.1-17.7 54.6l105.7 103-25 145.5c-4.5 26.3 23.2 46 46.4 33.7L288 439.6l130.7 68.7c23.2 12.2 50.9-7.4 46.4-33.7l-25-145.5 105.7-103c19-18.5 8.5-50.8-17.7-54.6L382 150.2 316.7 17.8c-11.7-23.6-45.6-23.9-57.4 0z"/></symbol><symbol id="fa-times-circle" viewBox="0 0 512 512"><path d="M256 8C119 8 8 119 8 256s111 248 248 248 248-111 248-248S393 8 256 8zm121.6 313.1c4.7 4.7 4.7 12.3 0 17L338 377.6c-4.7 4.7-12.3 4.7-17 0L256 312l-65.1 65.6c-4.7 4.7-12.3 4.7-17 0L134.4 338c-4.7-4.7-4.7-12.3 0-17l65.6-65-65.6-65.1c-4.7-4.7-4.7-12.3 0-17l39.6-39.6c4.7-4.7 12.3-4.7 17 0l65 65.7 65.1-65.6c4.7-4.7 12.3-4.7 17 0l39.6 39.6c4.7 4.7 4.7 12.3 0 17L312 256l65.6 65.1z"/></symbol><symbol id="fa-times" viewBox="0 0 352 512"><path d="M242.72 256l100.07-100.07c12.28-12.28 12.28-32.19 0-44.48l-22.24-22.24c-12.28-12.28-32.19-12.28-44.48 0L176 189.28 75.93 89.21c-12.28-12.28-32.19-12.28-44.48 0L9.21 111.45c-12.28 12.28-12.28 32.19 0 44.48L109.28 256 9.21 356.07c-12.28 12.28-12.28 32.19 0 44.48l22.24 22.24c12.28 12.28 32.2 12.28 44.48 0L176 322.72l100.07 100.07c12.28 12.28 32.2 12.28 44.48 0l22.24-22.24c12.28-12.28 12.28-32.19 0-44.48L242.72 256z"/></symbol><symbol id="fa-trash-alt" viewBox="0 0 448 512"><path d="M268 416h24a12 12 0 0 0 12-12V188a12 12 0 0 0-12-12h-24a12 12 0 0 0-12 12v216a12 12 0 0 0 12 12zM432 80h-82.41l-34-56.7A48 48 0 0 0 274.41 0H173.59a48 48 0 0 0-41.16 23.3L98.41 80H16A16 16 0 0 0 0 96v16a16 16 0 0 0 16 16h16v336a48 48 0 0 0 48 48h288a48 48 0 0 0 48-48V128h16a16 16 0 0 0 16-16V96a16 16 0 0 0-16-16zM171.84 50.91A6 6 0 0 1 177 48h94a6 6 0 0 1 5.15 2.91L293.61 80H154.39zM368 464H80V128h288zm-212-48h24a12 12 0 0 0 12-12V188a12 12 0 0 0-12-12h-24a12 12 0 0 0-12 12v216a12 12 0 0 0 12 12z"/></symbol><symbol id="fa-unlink" viewBox="0 0 512 512"><path d="M304.083 405.907c4.686 4.686 4.686 12.284 0 16.971l-44.674 44.674c-59.263 59.262-155.693 59.266-214.961 0-59.264-59.265-59.264-155.696 0-214.96l44.675-44.675c4.686-4.686 12.284-4.686 16.971 0l39.598 39.598c4.686 4.686 4.686 12.284 0 16.971l-44.675 44.674c-28.072 28.073-28.072 73.75 0 101.823 28.072 28.072 73.75 28.073 101.824 0l44.674-44.674c4.686-4.686 12.284-4.686 16.971 0l39.597 39.598zm-56.568-260.216c4.686 4.686 12.284 4.686 16.971 0l44.674-44.674c28.072-28.075 73.75-28.073 101.824 0 28.072 28.073 28.072 73.75 0 101.823l-44.675 44.674c-4.686 4.686-4.686 12.284 0 16.971l39.598 39.598c4.686 4.686 12.284 4.686 16.971 0l44.675-44.675c59.265-59.265 59.265-155.695 0-214.96-59.266-59.264-155.695-59.264-214.961 0l-44.674 44.674c-4.686 4.686-4.686 12.284 0 16.971l39.597 39.598zm234.828 359.28l22.627-22.627c9.373-9.373 9.373-24.569 0-33.941L63.598 7.029c-9.373-9.373-24.569-9.373-33.941 0L7.029 29.657c-9.373 9.373-9.373 24.569 0 33.941l441.373 441.373c9.373 9.372 24.569 9.372 33.941 0z"/></symbol><symbol id="fa-upload" viewBox="0 0 512 512"><path d="M296 384h-80c-13.3 0-24-10.7-24-24V192h-87.7c-17.8 0-26.7-21.5-14.1-34.1L242.3 5.7c7.5-7.5 19.8-7.5 27.3 0l152.2 152.2c12.6 12.6 3.7 34.1-14.1 34.1H320v168c0 13.3-10.7 24-24 24zm216-8v112c0 13.3-10.7 24-24 24H24c-13.3 0-24-10.7-24-24V376c0-13.3 10.7-24 24-24h136v8c0 30.9 25.1 56 56 56h80c30.9 0 56-25.1 56-56v-8h136c13.3 0 24 10.7 24 24zm-124 88c0-11-9-20-20-20s-20 9-20 20 9 20 20 20 20-9 20-20zm64 0c0-11-9-20-20-20s-20 9-20 20 9 20 20 20 20-9 20-20z"/></symbol><symbol id="fa-window-maximize" viewBox="0 0 512 512"><path d="M464 32H48C21.5 32 0 53.5 0 80v352c0 26.5 21.5 48 48 48h416c26.5 0 48-21.5 48-48V80c0-26.5-21.5-48-48-48zm-16 160H64v-84c0-6.6 5.4-12 12-12h360c6.6 0 12 5.4 12 12v84z"/></symbol><symbol id="fa-window-restore" viewBox="0 0 512 512"><path d="M512 48v288c0 26.5-21.5 48-48 48h-48V176c0-44.1-35.9-80-80-80H128V48c0-26.5 21.5-48 48-48h288c26.5 0 48 21.5 48 48zM384 176v288c0 26.5-21.5 48-48 48H48c-26.5 0-48-21.5-48-48V176c0-26.5 21.5-48 48-48h288c26.5 0 48 21.5 48 48zm-68 28c0-6.6-5.4-12-12-12H76c-6.6 0-12 5.4-12 12v52h252v-52z"/></symbol><symbol id="flex-custom" viewBox="0 0 24 24"><rect x="9" y="22" width="6" height="2"/> <rect x="9" width="6" height="2"/> <rect y="9" width="2" height="6"/> <rect x="22" y="9" width="2" height="6"/> <path d="M2,18H0v5c0,0.552,0.447,1,1,1h5v-2H2V18z"/> <path d="M24,18h-2v4h-4v2h5c0.553,0,1-0.448,1-1V18z"/> <path d="M23,0h-5v2h4v4h2V1C24,0.448,23.553,0,23,0z"/> <path d="M6,0H1C0.447,0,0,0.448,0,1v5h2V2h4V0z"/></symbol><symbol id="flex-fill-space-bak" viewBox="0 0 24 24"><path d="M11,1c0-0.553-0.448-1-1-1S9,0.447,9,1v11h2V1z"/> <path d="M10,24c-0.552,0-1-0.447-1-1v-8h2v8C11,23.553,10.552,24,10,24z"/> <polygon points="24,12 17,6 17,11 0,11 0,13 17,13 17,18 "/></symbol><symbol id="flex-fill-space-equally-bak" viewBox="0 0 24 24"><path d="M11,1c0-0.553,0.448-1,1-1c0.552,0,1,0.447,1,1v11h-2V1z"/> <path d="M12,24c0.552,0,1-0.447,1-1v-8h-2v8C11,23.553,11.448,24,12,24z"/> <polygon points="24,12 17,6 17,11 7,11 7,6 0,12 7,18 7,13 17,13 17,18 "/></symbol><symbol id="flex-fill-space-equally" viewBox="0 0 24 24"><path d="M8.293,14.293,3,19.586V15H1v7a1,1,0,0,0,1,1H9V21H4.414l5.293-5.293Z"/><path d="M22,1H15V3h4.586L14.293,8.293l1.414,1.414L21,4.414V9h2V2A1,1,0,0,0,22,1Z"/><path d="M9,3V1H2A1,1,0,0,0,1,2V9H3V4.414L8.293,9.707,9.707,8.293,4.414,3Z"/><path d="M21,19.586l-5.293-5.293-1.414,1.414L19.586,21H15v2h7a1,1,0,0,0,1-1V15H21Z"/></symbol><symbol id="flex-fill-space" viewBox="0 0 24 24"><path d="M22,1h-9v2h6.586l-6.293,6.293l1.414,1.414L21,4.414V11h2V2C23,1.447,22.552,1,22,1z"/> <path d="M10.707,14.707l-1.414-1.414L3,19.586V13H1v9c0,0.553,0.448,1,1,1h9v-2H4.414L10.707,14.707z "/></symbol><symbol id="flex-no-shrink" viewBox="0 0 24 24"><path d="M22,1H2A1,1,0,0,0,1,2V22a1,1,0,0,0,1,1H22a1,1,0,0,0,1-1V2A1,1,0,0,0,22,1ZM17.657,14.828l-2.828,2.828L12,14.828,9.172,17.656,6.344,14.828,9.172,12,6.343,9.172,9.171,6.344,12,9.172l2.828-2.828,2.828,2.828L14.828,12Z"/></symbol><symbol id="flex-standard" viewBox="0 0 24 24"><path d="M22,1H2C1.447,1,1,1.447,1,2v20c0,0.553,0.447,1,1,1h20c0.553,0,1-0.447,1-1V2C23,1.447,22.553,1,22,1z"/></symbol><symbol id="global-nav-colors" viewBox="0 0 16 16"><path d="M8.5,5.5.914,13.086a1.414,1.414,0,0,0,0,2h0a1.414,1.414,0,0,0,2,0L10.5,7.5" fill="none" stroke-linecap="round" stroke-linejoin="round" data-cap="butt"/> <line x1="7.5" y1="1.5" x2="14.5" y2="8.5" fill="none" stroke-linecap="round" stroke-linejoin="round" data-cap="butt"/> <path d="M9.5,3.5l2.379-2.379a2.121,2.121,0,0,1,3,0h0a2.121,2.121,0,0,1,0,3L12.5,6.5" fill="none" stroke-linecap="round" stroke-linejoin="round" data-cap="butt"/></symbol><symbol id="global-nav-content" viewBox="0 0 48 48"><rect x="8" y="24" fill="none" stroke-width="2" stroke-linecap="square" stroke-miterlimit="10" width="12" height="12" stroke-linejoin="miter"/> <line fill="none" stroke-width="2" stroke-linecap="square" stroke-miterlimit="10" x1="26" y1="24" x2="40" y2="24" stroke-linejoin="miter"/> <line fill="none" stroke-width="2" stroke-linecap="square" stroke-miterlimit="10" x1="26" y1="30" x2="40" y2="30" stroke-linejoin="miter"/> <line fill="none" stroke-width="2" stroke-linecap="square" stroke-miterlimit="10" x1="26" y1="36" x2="32" y2="36" stroke-linejoin="miter"/> <line fill="none" stroke-width="2" stroke-linecap="square" stroke-miterlimit="10" x1="8" y1="10" x2="10" y2="10" stroke-linejoin="miter"/> <line fill="none" stroke-width="2" stroke-linecap="square" stroke-miterlimit="10" x1="16" y1="10" x2="18" y2="10" stroke-linejoin="miter"/> <line fill="none" stroke-width="2" stroke-linecap="square" stroke-miterlimit="10" x1="32" y1="10" x2="40" y2="10" stroke-linejoin="miter"/> <line fill="none" stroke-width="2" stroke-linecap="square" stroke-miterlimit="10" x1="2" y1="16" x2="46" y2="16" stroke-linejoin="miter"/> <rect x="2" y="4" fill="none" stroke-width="2" stroke-linecap="square" stroke-miterlimit="10" width="44" height="40" stroke-linejoin="miter"/></symbol><symbol id="global-nav-fonts" viewBox="0 0 16 16"><rect x="0.5" y="0.5" width="15" height="15" rx="1" ry="1" fill="none" stroke-linecap="round" stroke-linejoin="round"/> <polyline points="11.5 12.5 8.5 3.5 7.5 3.5 4.5 12.5" fill="none" stroke-linecap="round" stroke-linejoin="round"/> <line x1="3.5" y1="12.5" x2="6.5" y2="12.5" fill="none" stroke-linecap="round" stroke-linejoin="round"/> <line x1="9.5" y1="12.5" x2="12.5" y2="12.5" fill="none" stroke-linecap="round" stroke-linejoin="round"/> <line x1="5.833" y1="8.5" x2="10.167" y2="8.5" fill="none" stroke-linecap="round" stroke-linejoin="round"/></symbol><symbol id="global-nav-footers" viewBox="0 0 48 48"><rect x="2" y="6" fill="none" stroke-width="2" stroke-linecap="square" stroke-miterlimit="10" width="44" height="36" stroke-linejoin="miter"/> <rect x="8" y="28" fill="none" stroke-width="2" stroke-linecap="square" stroke-miterlimit="10" width="32" height="8" stroke-linejoin="miter"/></symbol><symbol id="global-nav-global-blocks" viewBox="0 0 16 16"><polyline points="1.5 3.5 8.5 6.5 15.5 3.5" fill="none" stroke-linecap="round" stroke-linejoin="round" data-cap="butt"/> <line x1="8.5" y1="15.5" x2="8.5" y2="6.5" fill="none" stroke-linecap="round" stroke-linejoin="round" data-cap="butt"/> <polygon points="1.5 12.5 8.5 15.5 15.5 12.5 15.5 3.5 8.5 0.5 1.5 3.5 1.5 12.5" fill="none" stroke-linecap="round" stroke-linejoin="round" data-cap="butt"/></symbol><symbol id="global-nav-headers" viewBox="0 0 48 48"><rect x="2" y="6" fill="none" stroke-width="2" stroke-linecap="square" stroke-miterlimit="10" width="44" height="36" stroke-linejoin="miter"/> <rect x="8" y="12" fill="none" stroke-width="2" stroke-linecap="square" stroke-miterlimit="10" width="32" height="8" stroke-linejoin="miter"/></symbol><symbol id="global-nav-options" viewBox="0 0 16 16"><path fill="none" stroke-linecap="round" stroke-linejoin="round" stroke-miterlimit="10" d="M3.5,0.5h9c1.657,0,3,1.343,3,3v0c0,1.657-1.343,3-3,3h-9" data-cap="butt"/><path fill="none" stroke-linecap="round" stroke-linejoin="round" stroke-miterlimit="10" d="M12.5,15.5h-9c-1.657,0-3-1.343-3-3v0c0-1.657,1.343-3,3-3h9" data-cap="butt"/><circle fill="none" stroke-linecap="round" stroke-linejoin="round" stroke-miterlimit="10" cx="3.5" cy="3.5" r="3" data-cap="butt"/><circle fill="none" stroke-linecap="round" stroke-linejoin="round" stroke-miterlimit="10" cx="12.5" cy="12.5" r="3" data-cap="butt"/></symbol><symbol id="global-nav-templates" viewBox="0 0 16 16"><polygon fill="none" stroke-linecap="round" stroke-linejoin="round" stroke-miterlimit="10" points="9.5,15.5 1.5,15.5 1.5,0.5 14.5,0.5 14.5,10.5 "/> <polyline fill="none" stroke-linecap="round" stroke-linejoin="round" stroke-miterlimit="10" points="9.5,15.5 9.5,10.5 14.5,10.5 "/> <line fill="none" stroke-linecap="round" stroke-linejoin="round" stroke-miterlimit="10" x1="4.5" y1="4.5" x2="11.5" y2="4.5"/> <line fill="none" stroke-linecap="round" stroke-linejoin="round" stroke-miterlimit="10" x1="4.5" y1="7.5" x2="11.5" y2="7.5"/> <line fill="none" stroke-linecap="round" stroke-linejoin="round" stroke-miterlimit="10" x1="4.5" y1="10.5" x2="6.5" y2="10.5"/></symbol><symbol id="index-choice-edit" viewBox="0 0 24 24"><g>
<path data-color="color-2" d="M1.9,17.3L1,21.8c-0.1,0.3,0,0.7,0.3,0.9C1.5,22.9,1.7,23,2,23c0.1,0,0.1,0,0.2,0l4.5-0.9
	L1.9,17.3z"/>
<rect x="3.5" y="9.2" transform="matrix(0.7071 -0.7071 0.7071 0.7071 -5.9706 11.5858)" width="15" height="7.7"/>
<path data-color="color-2" d="M22.7,5.3l-4-4c-0.4-0.4-1-0.4-1.4,0L15,3.6L20.4,9l2.3-2.3C23.1,6.3,23.1,5.7,22.7,5.3z"/>
</g></symbol><symbol id="index-choice-import" viewBox="0 0 24 24"><g>
<polygon data-color="color-2" points="17,6 12,0 7,6 11,6 11,17 13,17 13,6 "/>
<path d="M22,24H2c-0.308,0-0.599-0.142-0.788-0.385s-0.257-0.559-0.182-0.858l3-12C4.141,10.312,4.541,10,5,10h4v2
H5.781l-2.5,10h17.438l-2.5-10H15v-2h4c0.459,0,0.859,0.312,0.97,0.757l3,12c0.075,0.299,0.007,0.615-0.182,0.858S22.308,24,22,24z"/>
</g></symbol><symbol id="inline-pencil" viewBox="0 0 512 512"><path d="M497.9 142.1l-46.1 46.1c-4.7 4.7-12.3 4.7-17 0l-111-111c-4.7-4.7-4.7-12.3 0-17l46.1-46.1c18.7-18.7 49.1-18.7 67.9 0l60.1 60.1c18.8 18.7 18.8 49.1 0 67.9zM284.2 99.8L21.6 362.4.4 483.9c-2.9 16.4 11.4 30.6 27.8 27.8l121.5-21.3 262.6-262.6c4.7-4.7 4.7-12.3 0-17l-111-111c-4.8-4.7-12.4-4.7-17.1 0zM124.1 339.9c-5.5-5.5-5.5-14.3 0-19.8l154-154c5.5-5.5 14.3-5.5 19.8 0s5.5 14.3 0 19.8l-154 154c-5.5 5.5-14.3 5.5-19.8 0zM88 424h48v36.3l-64.5 11.3-31.1-31.1L51.7 376H88v48z"/></symbol><symbol id="logo-content-flat-original" viewBox="0 0 345 232">
  <g transform="matrix(1,0,0,1,-3343.72,-5251.96)">
    <g transform="matrix(1.40625,-8.09101e-17,-5.21329e-17,1,843.357,4613.58)">
      <g transform="matrix(1,0,1.2326e-32,1,-153.994,13.4452)">
        <g transform="matrix(0.73192,5.92197e-17,3.81571e-17,1.02926,1932.03,624.936)">
          <path d="M237.029,152.955L237.029,185.144L223.104,177.092L223.104,161.005L223.086,161.005L181.258,136.851L181.258,120.746L237.029,152.955Z" style="fill:rgb(0,172,207);"/>
        </g>
        <g transform="matrix(0.73192,5.92197e-17,3.81571e-17,1.02926,1932.03,624.936)">
          <path d="M181.258,120.746L237.029,152.955L334.629,96.607L278.858,64.399L181.258,120.746Z" style="fill:rgb(23,207,243);fill-rule:nonzero;"/>
        </g>
        <g transform="matrix(0.73192,5.92197e-17,3.81571e-17,1.02926,1932.03,624.936)">
          <path d="M237.029,152.955L237.029,185.144L334.629,128.798L334.629,96.607L237.029,152.955Z" style="fill:rgb(0,188,225);fill-rule:nonzero;"/>
        </g>
        <g transform="matrix(0.73192,5.92197e-17,3.81571e-17,1.02926,1932.03,624.936)">
          <path d="M223.086,161.004L167.315,193.197L167.315,225.404L223.086,193.197L223.105,177.093L223.105,161.004L223.086,161.004Z" style="fill:rgb(157,118,189);fill-rule:nonzero;"/>
        </g>
        <g transform="matrix(0.73192,5.92197e-17,3.81571e-17,1.02926,1932.03,624.936)">
          <path d="M111.56,193.214L167.315,225.404L167.315,193.197L111.56,161.004L111.56,193.214Z" style="fill:rgb(141,96,179);fill-rule:nonzero;"/>
        </g>
        <g transform="matrix(0.73192,5.92197e-17,3.81571e-17,1.02926,1932.03,624.936)">
          <path d="M223.086,161.005L167.314,193.197L111.561,161.005L153.371,136.851L167.314,128.798L181.258,136.851L223.086,161.005Z" style="fill:rgb(198,135,223);"/>
        </g>
        <g transform="matrix(0.73192,5.92197e-17,3.81571e-17,1.02926,1932.03,624.936)">
          <path d="M223.086,177.093L223.105,177.093L223.086,177.093Z" style="fill:rgb(254,120,100);fill-rule:nonzero;"/>
        </g>
        <g transform="matrix(0.73192,5.92197e-17,3.81571e-17,1.02926,1932.03,624.936)">
          <path d="M98.804,153.65L98.804,152.955L98.804,153.65Z" style="fill:rgb(254,120,100);fill-rule:nonzero;"/>
        </g>
        <g transform="matrix(0.73192,5.92197e-17,3.81571e-17,1.02926,1932.03,624.936)">
          <path d="M167.315,0L0,96.607L97.619,152.955L153.371,120.746L139.447,112.711L111.543,96.607L223.105,32.209L167.315,0Z" style="fill:rgb(23,207,243);"/>
        </g>
        <g transform="matrix(0.73192,5.92197e-17,3.81571e-17,1.02926,1932.03,624.936)">
          <path d="M0,128.798L97.898,185.318L98.804,184.812L98.804,153.65L97.619,152.955L0,96.607L0,128.798Z" style="fill:rgb(0,172,207);fill-rule:nonzero;"/>
        </g>
        <g transform="matrix(0.73192,5.92197e-17,3.81571e-17,1.02926,1932.03,624.936)">
          <path d="M223.104,32.209L223.104,64.399L139.447,112.693L139.447,112.711L111.543,96.607L223.104,32.209Z" style="fill:rgb(0,188,225);"/>
        </g>
        <g transform="matrix(0.73192,5.92197e-17,3.81571e-17,1.02926,1932.03,624.936)">
          <path d="M98.804,185.841L97.899,185.318L98.804,185.841Z" style="fill:rgb(254,120,100);fill-rule:nonzero;"/>
        </g>
        <g transform="matrix(0.73192,5.92197e-17,3.81571e-17,1.02926,1932.03,624.936)">
          <path d="M97.619,185.493L97.898,185.318L97.619,185.493Z" style="fill:rgb(254,120,100);fill-rule:nonzero;"/>
        </g>
        <g transform="matrix(0.73192,5.92197e-17,3.81571e-17,1.02926,1932.03,624.936)">
          <path d="M98.804,185.841L98.804,184.812L98.804,185.841Z" style="fill:rgb(254,120,100);fill-rule:nonzero;"/>
        </g>
        <g transform="matrix(0.73192,5.92197e-17,3.81571e-17,1.02926,1932.03,624.936)">
          <path d="M153.371,120.746L153.371,136.851L111.561,161.005L111.561,177.441L111.543,177.441L98.804,184.812L98.804,153.65L97.619,152.955L153.371,120.746Z" style="fill:rgb(0,188,225);fill-rule:nonzero;"/>
        </g>
      </g>
    </g>
  </g>
</symbol><symbol id="logo-flat-custom" viewBox="-137 283 336 227">
  <g>
    <path class="cs-logo-block-light" d="M86.8,444.8C52.6,464.5,65.3,457.2,31,477c-5.9-3.4-49.9-28.8-55.8-32.2c61.8-35.7,25.9-15,55.8-32.2C49.9,423.5,33.8,414.2,86.8,444.8z"/>
    <path class="cs-logo-block-regular" d="M86.8,444.8V477c-34.2,19.7-21.5,12.4-55.8,32.2V477C65.2,457.3,52.5,464.6,86.8,444.8z"/>
    <path class="cs-logo-block-dark" d="M31,477v32.2c-5.9-3.4-49.9-28.8-55.8-32.2v-32.2C-18.9,448.2,25.1,473.6,31,477z"/>
    <path class="cs-logo-arms-dark" d="M-38.7,436.7L-38.7,436.7v32.2c-54.9-31.7-13.2-7.6-97.6-56.4v-32.1C-135.9,380.7-67.1,420.3-38.7,436.7z"/>
    <path class="cs-logo-arms-regular" d="M86.8,316v32.2c-74.9,43.3-33.5,19.4-83.7,48.3l-27.9-16.1C73,324,24.8,351.8,86.8,316z"/>
    <path class="cs-logo-arms-light" d="M31,283.8l-167.3,96.6c0.5,0.3,69.2,40,97.6,56.3l55.8-32.2c-17.7-10.2-8.7-5-41.8-24.1C73,324,24.8,351.8,86.8,316L31,283.8z"/>
    <path class="cs-logo-arms-light" d="M142.5,348.2c-13.4,7.7-83.9,48.4-97.6,56.3l55.8,32.2c29-16.7,94.9-54.8,97.6-56.4C164.1,360.7,176.8,368,142.5,348.2z"/>
    <path class="cs-logo-arms-regular" d="M198.3,380.4v32.2c0,0-97.6,56.3-97.6,56.4v-32.2C129.7,420,195.6,382,198.3,380.4z"/>
    <path class="cs-logo-arms-regular" d="M17,404.5v16.1c-17.8,10.3-8.8,5.1-41.8,24.1v16.4l-13.6,7.9l-0.3-0.2v-32.2l0,0L17,404.5z"/>
    <path class="cs-logo-arms-dark" d="M100.7,436.8V469l-13.9-8.1l0,0v-16.1C59,428.7,59.4,429,45,420.6v-16.1l0,0L100.7,436.8z"/>
  </g>
</symbol><symbol id="logo-flat-inspector" viewBox="-137 283 336 227">
  <g>
    <path fill="#92C5E9" class="cs-logo-block-light" d="M86.8,444.8C52.6,464.5,65.3,457.2,31,477c-5.9-3.4-49.9-28.8-55.8-32.2c61.8-35.7,25.9-15,55.8-32.2C49.9,423.5,33.8,414.2,86.8,444.8z"/>
    <path fill="#51A4DB" class="cs-logo-block-regular" d="M86.8,444.8V477c-34.2,19.7-21.5,12.4-55.8,32.2V477C65.2,457.3,52.5,464.6,86.8,444.8z"/>
    <path fill="#227FBB" class="cs-logo-block-dark" d="M31,477v32.2c-5.9-3.4-49.9-28.8-55.8-32.2v-32.2C-18.9,448.2,25.1,473.6,31,477z"/>
    <path fill="#B7B7B7" class="cs-logo-arms-dark" d="M-38.7,436.7L-38.7,436.7v32.2c-54.9-31.7-13.2-7.6-97.6-56.4v-32.1C-135.9,380.7-67.1,420.3-38.7,436.7z"/>
    <path fill="#D0D0D0" class="cs-logo-arms-regular" d="M86.8,316v32.2c-74.9,43.3-33.5,19.4-83.7,48.3l-27.9-16.1C73,324,24.8,351.8,86.8,316z"/>
    <path fill="#EAEAEA" class="cs-logo-arms-light" d="M31,283.8l-167.3,96.6c0.5,0.3,69.2,40,97.6,56.3l55.8-32.2c-17.7-10.2-8.7-5-41.8-24.1C73,324,24.8,351.8,86.8,316L31,283.8z"/>
    <path fill="#EAEAEA" class="cs-logo-arms-light" d="M142.5,348.2c-13.4,7.7-83.9,48.4-97.6,56.3l55.8,32.2c29-16.7,94.9-54.8,97.6-56.4C164.1,360.7,176.8,368,142.5,348.2z"/>
    <path fill="#D0D0D0" class="cs-logo-arms-regular" d="M198.3,380.4v32.2c0,0-97.6,56.3-97.6,56.4v-32.2C129.7,420,195.6,382,198.3,380.4z"/>
    <path fill="#D0D0D0" class="cs-logo-arms-regular" d="M17,404.5v16.1c-17.8,10.3-8.8,5.1-41.8,24.1v16.4l-13.6,7.9l-0.3-0.2v-32.2l0,0L17,404.5z"/>
    <path fill="#B7B7B7" class="cs-logo-arms-dark" d="M100.7,436.8V469l-13.9-8.1l0,0v-16.1C59,428.7,59.4,429,45,420.6v-16.1l0,0L100.7,436.8z"/>
  </g>
</symbol><symbol id="logo-flat-muted" viewBox="-137 283 336 227">
  <g>
    <path fill="#919191" class="cs-logo-block-light" d="M86.8,444.8C52.6,464.5,65.3,457.2,31,477c-5.9-3.4-49.9-28.8-55.8-32.2c61.8-35.7,25.9-15,55.8-32.2C49.9,423.5,33.8,414.2,86.8,444.8z"/>
    <path fill="#6A6A6A" class="cs-logo-block-regular" d="M86.8,444.8V477c-34.2,19.7-21.5,12.4-55.8,32.2V477C65.2,457.3,52.5,464.6,86.8,444.8z"/>
    <path fill="#444444" class="cs-logo-block-dark" d="M31,477v32.2c-5.9-3.4-49.9-28.8-55.8-32.2v-32.2C-18.9,448.2,25.1,473.6,31,477z"/>
    <path fill="#B7B7B7" class="cs-logo-arms-dark" d="M-38.7,436.7L-38.7,436.7v32.2c-54.9-31.7-13.2-7.6-97.6-56.4v-32.1C-135.9,380.7-67.1,420.3-38.7,436.7z"/>
    <path fill="#D0D0D0" class="cs-logo-arms-regular" d="M86.8,316v32.2c-74.9,43.3-33.5,19.4-83.7,48.3l-27.9-16.1C73,324,24.8,351.8,86.8,316z"/>
    <path fill="#EAEAEA" class="cs-logo-arms-light" d="M31,283.8l-167.3,96.6c0.5,0.3,69.2,40,97.6,56.3l55.8-32.2c-17.7-10.2-8.7-5-41.8-24.1C73,324,24.8,351.8,86.8,316L31,283.8z"/>
    <path fill="#EAEAEA" class="cs-logo-arms-light" d="M142.5,348.2c-13.4,7.7-83.9,48.4-97.6,56.3l55.8,32.2c29-16.7,94.9-54.8,97.6-56.4C164.1,360.7,176.8,368,142.5,348.2z"/>
    <path fill="#D0D0D0" class="cs-logo-arms-regular" d="M198.3,380.4v32.2c0,0-97.6,56.3-97.6,56.4v-32.2C129.7,420,195.6,382,198.3,380.4z"/>
    <path fill="#D0D0D0" class="cs-logo-arms-regular" d="M17,404.5v16.1c-17.8,10.3-8.8,5.1-41.8,24.1v16.4l-13.6,7.9l-0.3-0.2v-32.2l0,0L17,404.5z"/>
    <path fill="#B7B7B7" class="cs-logo-arms-dark" d="M100.7,436.8V469l-13.9-8.1l0,0v-16.1C59,428.7,59.4,429,45,420.6v-16.1l0,0L100.7,436.8z"/>
  </g>
</symbol><symbol id="logo-flat-original" viewBox="-137 283 336 227">
  <g>
    <path fill="#26CABC" d="M86.8,444.8C52.6,464.5,65.3,457.2,31,477c-5.9-3.4-49.9-28.8-55.8-32.2c61.8-35.7,25.9-15,55.8-32.2C49.9,423.5,33.8,414.2,86.8,444.8z"/>
    <path fill="#22B3A6" d="M86.8,444.8V477c-34.2,19.7-21.5,12.4-55.8,32.2V477C65.2,457.3,52.5,464.6,86.8,444.8z"/>
    <path fill="#1D968D" d="M31,477v32.2c-5.9-3.4-49.9-28.8-55.8-32.2v-32.2C-18.9,448.2,25.1,473.6,31,477z"/>
    <path fill="#DF5540" d="M-38.7,436.7L-38.7,436.7v32.2c-54.9-31.7-13.2-7.6-97.6-56.4v-32.1C-135.9,380.7-67.1,420.3-38.7,436.7z"/>
    <path fill="#FA5745" d="M86.8,316v32.2c-74.9,43.3-33.5,19.4-83.7,48.3l-27.9-16.1C73,324,24.8,351.8,86.8,316z"/>
    <path fill="#FE7864" d="M31,283.8l-167.3,96.6c0.5,0.3,69.2,40,97.6,56.3l55.8-32.2c-17.7-10.2-8.7-5-41.8-24.1C73,324,24.8,351.8,86.8,316L31,283.8z"/>
    <path fill="#FE7864" d="M142.5,348.2c-13.4,7.7-83.9,48.4-97.6,56.3l55.8,32.2c29-16.7,94.9-54.8,97.6-56.4C164.1,360.7,176.8,368,142.5,348.2z"/>
    <path fill="#FA5745" d="M198.3,380.4v32.2c0,0-97.6,56.3-97.6,56.4v-32.2C129.7,420,195.6,382,198.3,380.4z"/>
    <path fill="#FA5745" d="M17,404.5v16.1c-17.8,10.3-8.8,5.1-41.8,24.1v16.4l-13.6,7.9l-0.3-0.2v-32.2l0,0L17,404.5z"/>
    <path fill="#DF5540" d="M100.7,436.8V469l-13.9-8.1l0,0v-16.1C59,428.7,59.4,429,45,420.6v-16.1l0,0L100.7,436.8z"/>
  </g>
</symbol><symbol id="logo-footers-flat-original" viewBox="0 0 340 232">
  <g transform="matrix(1,0,0,1,-2900.24,-5251.97)">
    <g transform="matrix(1.40625,-8.09101e-17,-5.21329e-17,1,843.357,4613.58)">
      <g transform="matrix(0.711111,8.55019e-18,-6.47074e-18,1,299.899,57.1198)">
        <g transform="matrix(0.557668,2.73178e-17,3.41473e-17,0.557668,1449.69,376.05)">
          <path d="M692.82,592L803.672,528L803.672,464L692.82,528L692.82,592Z" style="fill:rgb(0,188,225);"/>
        </g>
        <g transform="matrix(0.557668,2.73178e-17,3.41473e-17,0.557668,1449.69,376.05)">
          <path d="M637.395,368L526.543,432L692.82,528L803.672,464L637.395,368Z" style="fill:rgb(23,207,243);"/>
        </g>
        <g transform="matrix(0.557668,2.73178e-17,3.41473e-17,0.557668,1449.69,376.05)">
          <path d="M692.82,592L526.543,496L526.543,432L692.82,528L692.82,592Z" style="fill:rgb(0,172,207);"/>
        </g>
        <g transform="matrix(0.557668,2.73178e-17,3.41473e-17,0.557668,1465.15,367.128)">
          <path d="M304.841,624L304.841,560L471.118,656L471.118,720L304.841,624Z" style="fill:rgb(0,172,207);"/>
        </g>
        <g transform="matrix(0.557668,2.73178e-17,3.41473e-17,0.557668,1465.15,367.128)">
          <path d="M637.395,624L637.395,560L471.118,656L471.118,720L637.395,624Z" style="fill:rgb(0,188,225);"/>
        </g>
        <g transform="matrix(0.557668,2.73178e-17,3.41473e-17,0.557668,1465.15,367.128)">
          <path d="M471.118,464L304.841,560L471.118,656L637.395,560L471.118,464Z" style="fill:rgb(23,207,243);"/>
        </g>
        <g transform="matrix(0.557668,2.73178e-17,3.41473e-17,0.557668,1650.6,474.2)">
          <path d="M166.277,480L471.118,304L581.969,368L277.128,544L166.277,480Z" style="fill:rgb(198,135,223);"/>
        </g>
        <g transform="matrix(0.557668,2.73178e-17,3.41473e-17,0.557668,1650.6,474.2)">
          <path d="M581.969,432L277.128,608L277.128,544L581.969,368L581.969,432Z" style="fill:rgb(157,118,189);"/>
        </g>
        <g transform="matrix(0.557668,2.73178e-17,3.41473e-17,0.557668,1650.6,474.2)">
          <path d="M166.277,480L166.277,544L277.128,608L277.128,544L166.277,480Z" style="fill:rgb(141,96,179);"/>
        </g>
      </g>
    </g>
  </g>
</symbol><symbol id="logo-headers-flat-original" viewBox="0 0 340 232">
  <g transform="matrix(1,0,0,1,-2456.75,-5251.97)">
    <g transform="matrix(1.40625,-8.09101e-17,-5.21329e-17,1,843.357,4613.58)">
      <g transform="matrix(0.711111,8.55019e-18,-6.47074e-18,1,320.729,57.1198)">
        <g transform="matrix(0.557668,2.73178e-17,3.41473e-17,0.557668,1069.64,411.741)">
          <path d="M166.277,480L471.118,304L581.969,368L277.128,544L166.277,480Z" style="fill:rgb(198,135,223);"/>
        </g>
        <g transform="matrix(0.557668,2.73178e-17,3.41473e-17,0.557668,1069.64,411.741)">
          <path d="M581.969,432L277.128,608L277.128,544L581.969,368L581.969,432Z" style="fill:rgb(157,118,189);"/>
        </g>
        <g transform="matrix(0.557668,2.73178e-17,3.41473e-17,0.557668,1069.64,411.741)">
          <path d="M166.277,480L166.277,544L277.128,608L277.128,544L166.277,480Z" style="fill:rgb(141,96,179);"/>
        </g>
        <g transform="matrix(0.557668,2.73178e-17,3.41473e-17,0.557668,1054.18,420.664)">
          <path d="M692.82,592L803.672,528L803.672,464L692.82,528L692.82,592Z" style="fill:rgb(0,188,225);"/>
        </g>
        <g transform="matrix(0.557668,2.73178e-17,3.41473e-17,0.557668,1054.18,420.664)">
          <path d="M637.395,368L526.543,432L692.82,528L803.672,464L637.395,368Z" style="fill:rgb(23,207,243);"/>
        </g>
        <g transform="matrix(0.557668,2.73178e-17,3.41473e-17,0.557668,1054.18,420.664)">
          <path d="M692.82,592L526.543,496L526.543,432L692.82,528L692.82,592Z" style="fill:rgb(0,172,207);"/>
        </g>
        <g transform="matrix(0.557668,2.73178e-17,3.41473e-17,0.557668,1069.64,411.741)">
          <path d="M304.841,624L304.841,560L471.118,656L471.118,720L304.841,624Z" style="fill:rgb(0,172,207);"/>
        </g>
        <g transform="matrix(0.557668,2.73178e-17,3.41473e-17,0.557668,1069.64,411.741)">
          <path d="M637.395,624L637.395,560L471.118,656L471.118,720L637.395,624Z" style="fill:rgb(0,188,225);"/>
        </g>
        <g transform="matrix(0.557668,2.73178e-17,3.41473e-17,0.557668,1069.64,411.741)">
          <path d="M471.118,464L304.841,560L471.118,656L637.395,560L471.118,464Z" style="fill:rgb(23,207,243);"/>
        </g>
      </g>
    </g>
  </g>
</symbol><symbol id="logo-pro-inherit" viewBox="0 0 281 317">
  <g id="pro-solid" style="fill:currentColor">
    <g id="Pro-Logo">
      <path d="M127.406476,2.7395047 C133.616099,-0.858480949 143.727203,-0.915998835 149.978168,2.60422723 L269.977989,70.1820261 C276.234367,73.7053001 281.306163,82.3896987 281.306163,89.5607286 L281.306163,225.974417 C281.306163,233.153704 276.249926,241.851898 270.007866,245.405149 L149.948291,313.74828 C143.708414,317.300289 133.633456,317.241619 127.435773,313.61169 L11.2142214,245.541739 C5.02077793,241.914293 1.07802775e-13,233.145446 1.03838259e-13,225.974417 L2.84217094e-14,89.5607286 C2.44526274e-14,82.3814407 5.03711142,73.6428704 11.2435182,70.0467487 L127.406476,2.7395047 Z M78.801,128.209 C68.791,128.209 58.781,128.3 48.771,128.3 L48.771,192 L60.783,192 L60.783,173.254 L78.801,173.254 C110.014,173.254 109.923,128.209 78.801,128.209 Z M166.798,191.181 L147.506,169.432 C159.609,166.975 163.613,158.148 163.613,149.412 C163.613,138.401 155.696,128.391 140.681,128.3 C130.58,128.3 120.479,128.209 110.378,128.209 L110.378,192 L122.39,192 L122.39,170.706 L133.947,170.706 L152.511,192 L166.798,192 L166.798,191.181 Z M140.681,139.493 C148.234,139.493 151.601,144.589 151.601,149.685 C151.601,154.781 148.325,159.877 140.681,159.877 L122.39,159.877 L122.39,139.493 L140.681,139.493 Z M80.6799927,138.490005 C88.2327319,138.490005 90.6000061,145.583993 90.6000061,150.679993 C90.6000061,155.775993 88.3237288,162.880005 80.6799927,162.880005 L60.3899994,162.880005 L60.3899994,138.493 L80.6799927,138.490005 Z M201.651,127.026 C179.629,127.026 168.891,143.861 168.891,160.605 C168.891,177.349 179.265,193.456 201.651,193.456 C224.037,193.456 234.138,176.985 234.32,160.514 C234.502,143.861 223.582,127.026 201.651,127.026 Z M201.651,137.946 C216.666,137.946 222.672,149.958 222.49,160.696 C222.308,171.161 216.666,182.445 201.651,182.445 C186.636,182.445 180.994,171.252 180.721,160.787 C180.448,150.049 186.636,137.946 201.651,137.946 Z" id="Combined-Shape"/>
    </g>
  </g>
</symbol><symbol id="logo-pro" viewBox="0 0 281 317">
  <g id="pro-solid" style="fill:#265998">
    <g id="Pro-Logo">
      <path d="M127.406476,2.7395047 C133.616099,-0.858480949 143.727203,-0.915998835 149.978168,2.60422723 L269.977989,70.1820261 C276.234367,73.7053001 281.306163,82.3896987 281.306163,89.5607286 L281.306163,225.974417 C281.306163,233.153704 276.249926,241.851898 270.007866,245.405149 L149.948291,313.74828 C143.708414,317.300289 133.633456,317.241619 127.435773,313.61169 L11.2142214,245.541739 C5.02077793,241.914293 1.07802775e-13,233.145446 1.03838259e-13,225.974417 L2.84217094e-14,89.5607286 C2.44526274e-14,82.3814407 5.03711142,73.6428704 11.2435182,70.0467487 L127.406476,2.7395047 Z M78.801,128.209 C68.791,128.209 58.781,128.3 48.771,128.3 L48.771,192 L60.783,192 L60.783,173.254 L78.801,173.254 C110.014,173.254 109.923,128.209 78.801,128.209 Z M166.798,191.181 L147.506,169.432 C159.609,166.975 163.613,158.148 163.613,149.412 C163.613,138.401 155.696,128.391 140.681,128.3 C130.58,128.3 120.479,128.209 110.378,128.209 L110.378,192 L122.39,192 L122.39,170.706 L133.947,170.706 L152.511,192 L166.798,192 L166.798,191.181 Z M140.681,139.493 C148.234,139.493 151.601,144.589 151.601,149.685 C151.601,154.781 148.325,159.877 140.681,159.877 L122.39,159.877 L122.39,139.493 L140.681,139.493 Z M80.6799927,138.490005 C88.2327319,138.490005 90.6000061,145.583993 90.6000061,150.679993 C90.6000061,155.775993 88.3237288,162.880005 80.6799927,162.880005 L60.3899994,162.880005 L60.3899994,138.493 L80.6799927,138.490005 Z M201.651,127.026 C179.629,127.026 168.891,143.861 168.891,160.605 C168.891,177.349 179.265,193.456 201.651,193.456 C224.037,193.456 234.138,176.985 234.32,160.514 C234.502,143.861 223.582,127.026 201.651,127.026 Z M201.651,137.946 C216.666,137.946 222.672,149.958 222.49,160.696 C222.308,171.161 216.666,182.445 201.651,182.445 C186.636,182.445 180.994,171.252 180.721,160.787 C180.448,150.049 186.636,137.946 201.651,137.946 Z" id="Combined-Shape"/>
    </g>
  </g>
</symbol><symbol id="logo-themeco" viewBox="0 0 4320 504">
  <polygon points="198,0 0,0 0,108 198,108 198,504 306,504 306,108 504,108 504,0 306,0     "/>
  <polygon points="1008,198 720,198 720,0 612,0 612,198 612,306 612,504 720,504 720,306 1008,306 1008,504 1116,504 1116,306 1116,198 1116,0 1008,0    "/>
  <rect x="1224" width="504" height="108"/>
  <rect x="1224" y="198" width="504" height="108"/>
  <rect x="1224" y="396" width="504" height="108"/>
  <polygon points="2214,0 2106,0 1944,0 1836,0 1836,108 1836,504 1944,504 1944,108 2106,108 2106,504 2214,504 2214,108 2376,108 2376,504 2484,504 2484,108 2484,0 2376,0    "/>
  <rect x="2592" width="504" height="108"/>
  <rect x="2592" y="198" width="504" height="108"/>
  <rect x="2592" y="396" width="288" height="108"/>
  <rect x="2988" y="396" width="108" height="108"/>
  <polygon points="3204,0 3204,108 3204,396 3204,504 3312,504 3708,504 3708,396 3312,396 3312,108 3708,108 3708,0 3312,0     "/>
  <path d="M4212,0h-288h-108v108v288v108h108h288h108V396V108V0H4212z M4212,396h-288V108h288V396z"/>
</symbol><symbol id="logo-x" viewBox="0 0 314 314">
  <!-- Generator: Sketch 42 (36781) - http://www.bohemiancoding.com/sketch -->
  <title>x</title>
  <desc>Created with Sketch.</desc>
  
  <g id="Page-1" stroke="none" stroke-width="1" fill="none" fill-rule="evenodd">
      <g id="Desktop-HD" transform="translate(-465.000000, -660.000000)" fill="#000000">
          <g id="x" transform="translate(465.000000, 660.000000)">
              <polygon id="Path-2-Copy" points="92.2385914 87 123.226879 87 157.525701 139.018555 192.196599 87.0859375 221.951847 87.0859375 174.820623 156.598633 223.402654 227.489258 191.967905 227.489258 157.755193 175.689453 122.392888 227.351562 91 227.351562 140.283513 156.523438"/>
              <path d="M157,314 C70.2912943,314 0,243.708706 0,157 C0,70.2912943 70.2912943,0 157,0 C243.708706,0 314,70.2912943 314,157 C314,243.708706 243.708706,314 157,314 Z M157,291 C231.006156,291 291,231.006156 291,157 C291,82.9938435 231.006156,23 157,23 C82.9938435,23 23,82.9938435 23,157 C23,231.006156 82.9938435,291 157,291 Z" id="Combined-Shape"/>
          </g>
      </g>
  </g>
</symbol><symbol id="nav-elements-line" viewBox="0 0 30 30">
<path d="M27.9,21.9C27.9,21.8,27.9,21.8,27.9,21.9c0.1-0.1,0.1-0.1,0.1-0.2c0,0,0,0,0-0.1l0-13.2c0,0,0,0,0,0c0,0,0,0,0-0.1
	c0,0,0,0,0-0.1c0,0,0,0,0-0.1c0,0,0,0,0,0c0,0,0,0,0,0c0,0,0,0,0-0.1c0,0,0,0,0,0c0,0,0,0-0.1,0c0,0,0,0,0,0L15.7,1.4c0,0,0,0,0,0
	c0,0-0.1,0-0.1,0c0,0-0.1,0-0.1,0c0,0-0.1,0-0.1,0c0,0-0.1,0-0.1,0c0,0,0,0,0,0L2.3,8c0,0,0,0,0,0c0,0,0,0-0.1,0c0,0,0,0,0,0
	c0,0,0,0,0,0.1c0,0,0,0,0,0c0,0,0,0,0,0c0,0,0,0,0,0c0,0,0,0.1,0,0.1c0,0,0,0.1,0,0.1c0,0,0,0,0,0l0,13.2c0,0,0,0,0,0.1
	c0,0,0,0.1,0,0.1c0,0,0,0.1,0,0.1c0,0,0,0.1,0.1,0.1c0,0,0.1,0,0.1,0.1c0,0,0,0,0.1,0l12.9,6.6c0,0,0,0,0,0c0.1,0,0.1,0.1,0.2,0.1
	c0,0,0,0,0,0c0.1,0,0.2,0,0.2-0.1c0,0,0,0,0,0L27.7,22c0,0,0,0,0,0C27.8,22,27.8,22,27.9,21.9C27.8,21.9,27.8,21.9,27.9,21.9z
	 M15.5,2.4l10.9,6l-10.9,6l-11.8-6L15.5,2.4z M3.1,9.2L15,15.3v12.1L3.1,21.3L3.1,9.2z M16,15.3l10.9-6.1l0,12.1L16,27.4V15.3z"/>
</symbol><symbol id="nav-elements-solid" viewBox="-290 382 30 30">
  <g>
    <path d="M-275,395.9l12-6.4l-11.5-6c-0.3-0.2-0.6-0.2-0.9,0l-11.6,6.1L-275,395.9z"/>
    <path d="M-274,397.5v12.7l11.4-6.1c0.3-0.2,0.5-0.5,0.5-0.9v-12.1L-274,397.5z"/>
    <path d="M-276,397.5l-11.9-6.3v12.1c0,0.4,0.2,0.7,0.5,0.9l11.4,6V397.5z"/>
  </g>
</symbol><symbol id="nav-inspector-solid" viewBox="-290 382 30 30">
  <g>
    <path d="M-262.5,406.7l-4.9-5.1c-0.4-0.4-1-0.4-1.4,0l-0.5,0.4l-0.5-0.5c1.7-1.9,2.7-4.3,2.7-7.1c0.1-5.7-4.6-10.4-10.4-10.4s-10.5,4.7-10.5,10.5s4.7,10.5,10.5,10.5c2.7,0,5.2-1,7.1-2.7l0.5,0.5l-0.2,0.2c-0.4,0.4-0.4,1,0,1.4l4.9,5.1c0.2,0.2,0.4,0.3,0.7,0.3s0.5-0.1,0.7-0.3l1.4-1.4c0.2-0.2,0.3-0.4,0.3-0.7C-262.2,407.1-262.3,406.8-262.5,406.7z M-277.5,403c-4.7,0-8.5-3.8-8.5-8.5s3.8-8.5,8.5-8.5s8.5,3.8,8.5,8.5S-272.8,403-277.5,403z"/>
    <path d="M-277.5,387.8c-3.7,0-6.7,2.9-6.7,6.7c0,3.6,3,6.7,6.7,6.7s6.7-3,6.7-6.7C-270.8,390.8-273.9,387.8-277.5,387.8z"/>
  </g>
</symbol><symbol id="nav-layout-solid" viewBox="-290 382 30 30">
  <g>
    <path d="M-264,384h-22c-0.6,0-1,0.4-1,1v3c0,0.6,0.4,1,1,1h22c0.6,0,1-0.4,1-1v-3C-263,384.4-263.4,384-264,384z"/>
    <path d="M-264,391h-12c-0.6,0-1,0.4-1,1v3c0,0.6,0.4,1,1,1h12c0.6,0,1-0.4,1-1v-3C-263,391.4-263.4,391-264,391z"/>
    <path d="M-286,396h6c0.6,0,1-0.4,1-1v-3c0-0.6-0.4-1-1-1h-6c-0.6,0-1,0.4-1,1v3C-287,395.6-286.6,396-286,396z"/>
    <path d="M-286,403h12c0.6,0,1-0.4,1-1v-3c0-0.6-0.4-1-1-1h-12c-0.6,0-1,0.4-1,1v3C-287,402.6-286.6,403-286,403z"/>
    <path d="M-264,398h-6c-0.6,0-1,0.4-1,1v3c0,0.6,0.4,1,1,1h6c0.6,0,1-0.4,1-1v-3C-263,398.4-263.4,398-264,398z"/>
    <path d="M-264,405h-22c-0.6,0-1,0.4-1,1v3c0,0.6,0.4,1,1,1h22c0.6,0,1-0.4,1-1v-3C-263,405.4-263.4,405-264,405z"/>
  </g>
</symbol><symbol id="nav-settings-solid" viewBox="-290 382 30 30">
  <path d="M-262,398.6v-3.1l-2.7-0.5l-0.4-1.4l2.1-1.7l-1.6-2.7l-2.6,1l-1-1l1-2.6l-2.7-1.6l-1.7,2.1l-1.4-0.4l-0.4-2.7h-3.1l-0.5,2.7l-1.4,0.4l-1.7-2.1l-2.7,1.6l1,2.6l-1,1l-2.6-1l-1.6,2.7l2.1,1.7l-0.4,1.4l-2.7,0.4v3.1l2.7,0.5l0.4,1.4l-2.1,1.7l1.6,2.7l2.6-1l1,1l-1,2.6l2.7,1.6l1.7-2.1l1.4,0.4l0.4,2.7h3.1l0.4-2.7l1.4-0.4l1.7,2.1l2.7-1.6l-1-2.6l1-1l2.6,1l1.6-2.7l-2.1-1.7l0.4-1.4L-262,398.6z M-275,403c-3.3,0-6-2.7-6-6s2.7-6,6-6s6,2.7,6,6S-271.7,403-275,403z"/>
</symbol><symbol id="placement-x-around" viewBox="0 0 24 24"><path d="M15.8,3H8.2C7.5,3,7,3.5,7,4.1v15.8C7,20.5,7.5,21,8.2,21h7.5c0.8,0,1.2-0.5,1.2-1.1V4.1C17,3.5,16.5,3,15.8,3z"/><path d="M22,23V1c0-0.6,0.5-1,1-1s1,0.4,1,1v22c0,0.5-0.5,1-1,1S22,23.5,22,23z"/><path d="M0,23V1c0-0.6,0.4-1,1-1s1,0.4,1,1v22c0,0.5-0.4,1-1,1S0,23.5,0,23z"/></symbol><symbol id="placement-x-auto" viewBox="0 0 24 24"><polygon points="14.1,13.5 12,8 9.9,13.5"/><path d="M21.5,0h-19C1.1,0,0,1.1,0,2.5v19C0,22.9,1.1,24,2.5,24h19c1.4,0,2.5-1.1,2.5-2.5v-19C24,1.1,22.9,0,21.5,0z M18,18.5H16l-1.1-3H9.2l-1.1,3H6l5.1-13h1.9L18,18.5z"/></symbol><symbol id="placement-x-baseline" viewBox="0 0 24 24"><rect height="2" width="12" x="11" y="20"/><polygon points="4,24 8,19 5,19 5,5 8,5 4,0 0,5 3,5 3,19 0,19"/><path d="M13,18v-1.625l2.62927-0.15497C15.93922,16.19747,16,16.10919,16,15.77767V4h-3.81174 c-0.24325,0-0.30995,0.02207-0.35408,0.24325L11.48107,6H10V2h14v4h-1.48107l-0.3531-1.75675 C22.12169,4.02207,22.05499,4,21.81174,4H18v11.77767c0,0.30995,0.03822,0.39822,0.36975,0.4198L21,16.375V18H13z"/></symbol><symbol id="placement-x-between" viewBox="0 0 24 24"><path d="M15,20V4c0-0.55,0.45-1,1-1h7c0.55,0,1,0.45,1,1v16c0,0.55-0.45,1-1,1h-7C15.45,21,15,20.55,15,20z"/> <path d="M0,20V4c0-0.55,0.45-1,1-1h7c0.55,0,1,0.45,1,1v16c0,0.55-0.45,1-1,1H1C0.45,21,0,20.55,0,20z"/> <path d="M11,23V1c0-0.55,0.45-1,1-1s1,0.45,1,1v22c0,0.55-0.45,1-1,1S11,23.55,11,23z"/></symbol><symbol id="placement-x-center" viewBox="0 0 24 24"><rect x="11" width="2" height="24"/> <path d="M19,13H5c-0.552,0-1,0.447-1,1v5c0,0.553,0.448,1,1,1h14c0.552,0,1-0.447,1-1v-5C20,13.447,19.552,13,19,13z "/> <path d="M8,11h8c0.552,0,1-0.447,1-1V5c0-0.553-0.448-1-1-1H8C7.448,4,7,4.447,7,5v5C7,10.553,7.448,11,8,11z"/></symbol><symbol id="placement-x-end" viewBox="0 0 24 24"><rect x="20" width="2" height="24"/> <path d="M17,4H3C2.448,4,2,4.447,2,5v5c0,0.553,0.448,1,1,1h14c0.552,0,1-0.447,1-1V5C18,4.447,17.552,4,17,4z"/> <path d="M17,13H9c-0.552,0-1,0.447-1,1v5c0,0.553,0.448,1,1,1h8c0.552,0,1-0.447,1-1v-5C18,13.447,17.552,13,17,13z"/></symbol><symbol id="placement-x-evenly" viewBox="0 0 24 24"><path d="M15.8,3H8.2C7.5,3,7,3.5,7,4.1v15.8C7,20.5,7.5,21,8.2,21h7.5c0.8,0,1.2-0.5,1.2-1.1V4.1C17,3.5,16.5,3,15.8,3z"/><path d="M1,11L1,11c-0.6,0-1-0.4-1-1l0-9c0-0.6,0.4-1,1-1h0c0.6,0,1,0.4,1,1v9C2,10.6,1.6,11,1,11z"/><path d="M1,24L1,24c-0.6,0-1-0.4-1-1l0-9c0-0.6,0.4-1,1-1h0c0.6,0,1,0.4,1,1v9C2,23.6,1.6,24,1,24z"/><path d="M23,11L23,11c-0.6,0-1-0.4-1-1V1c0-0.6,0.4-1,1-1h0c0.6,0,1,0.4,1,1v9C24,10.6,23.6,11,23,11z"/><path d="M23,24L23,24c-0.6,0-1-0.4-1-1v-9c0-0.6,0.4-1,1-1h0c0.6,0,1,0.4,1,1v9C24,23.6,23.6,24,23,24z"/></symbol><symbol id="placement-x-start" viewBox="0 0 24 24"><path d="M21,4H7C6.448,4,6,4.447,6,5v5c0,0.553,0.448,1,1,1h14c0.552,0,1-0.447,1-1V5C22,4.447,21.552,4,21,4z"/> <path d="M15,13H7c-0.552,0-1,0.447-1,1v5c0,0.553,0.448,1,1,1h8c0.552,0,1-0.447,1-1v-5C16,13.447,15.552,13,15,13z"/> <rect x="2" width="2" height="24"/></symbol><symbol id="placement-x-stretch" viewBox="0 0 24 24"><rect x="22" width="2" height="7"/> <rect x="11" width="2" height="7"/> <rect width="2" height="7"/> <rect x="17" width="2" height="4"/> <rect x="5" width="2" height="4"/> <path d="M24,12v11c0,0.55-0.45,1-1,1H1c-0.55,0-1-0.45-1-1V12c0-0.55,0.45-1,1-1h22C23.55,11,24,11.45,24,12z"/></symbol><symbol id="placement-y-around" viewBox="0 0 24 24"><path d="M3,8.2v7.6C3,16.5,3.5,17,4.1,17h15.8c0.6,0,1.1-0.5,1.1-1.2V8.3c0-0.8-0.5-1.2-1.1-1.2H4.1C3.5,7,3,7.5,3,8.2z"/><path d="M23,2H1C0.4,2,0,1.5,0,1s0.4-1,1-1h22c0.5,0,1,0.5,1,1S23.5,2,23,2z"/><path d="M23,24H1c-0.6,0-1-0.4-1-1s0.4-1,1-1h22c0.5,0,1,0.4,1,1S23.5,24,23,24z"/></symbol><symbol id="placement-y-auto" viewBox="0 0 24 24"><polygon points="14.1,13.5 12,8 9.9,13.5"/><path d="M21.5,0h-19C1.1,0,0,1.1,0,2.5v19C0,22.9,1.1,24,2.5,24h19c1.4,0,2.5-1.1,2.5-2.5v-19C24,1.1,22.9,0,21.5,0z M18,18.5H16l-1.1-3H9.2l-1.1,3H6l5.1-13h1.9L18,18.5z"/></symbol><symbol id="placement-y-baseline" viewBox="0 0 24 24"><rect height="2" width="12" x="11" y="20"/><polygon points="4,24 8,19 5,19 5,5 8,5 4,0 0,5 3,5 3,19 0,19"/><path d="M13,18v-1.625l2.62927-0.15497C15.93922,16.19747,16,16.10919,16,15.77767V4h-3.81174 c-0.24325,0-0.30995,0.02207-0.35408,0.24325L11.48107,6H10V2h14v4h-1.48107l-0.3531-1.75675 C22.12169,4.02207,22.05499,4,21.81174,4H18v11.77767c0,0.30995,0.03822,0.39822,0.36975,0.4198L21,16.375V18H13z"/></symbol><symbol id="placement-y-between" viewBox="0 0 24 24"><path d="M20,9H4C3.448,9,3,8.552,3,8V1c0-0.552,0.448-1,1-1h16c0.552,0,1,0.448,1,1v7C21,8.552,20.552,9,20,9z"/> <path d="M20,24H4c-0.552,0-1-0.448-1-1v-7c0-0.552,0.448-1,1-1h16c0.552,0,1,0.448,1,1v7C21,23.552,20.552,24,20,24z "/> <path d="M23,13H1c-0.553,0-1-0.448-1-1s0.447-1,1-1h22c0.553,0,1,0.448,1,1S23.553,13,23,13z"/></symbol><symbol id="placement-y-center" viewBox="0 0 24 24"><rect x="11" transform="matrix(4.547455e-11 1 -1 4.547455e-11 24 -5.911698e-10)" width="2" height="24"/> <path d="M10,4H5C4.447,4,4,4.447,4,5v14c0,0.553,0.447,1,1,1h5c0.553,0,1-0.447,1-1V5C11,4.447,10.553,4,10,4z"/> <path d="M19,7h-5c-0.553,0-1,0.447-1,1v8c0,0.553,0.447,1,1,1h5c0.553,0,1-0.447,1-1V8C20,7.447,19.553,7,19,7z"/></symbol><symbol id="placement-y-end" viewBox="0 0 24 24"><path d="M5,18h5c0.553,0,1-0.447,1-1V3c0-0.553-0.447-1-1-1H5C4.447,2,4,2.447,4,3v14C4,17.553,4.447,18,5,18z"/> <path d="M14,18h5c0.553,0,1-0.447,1-1V9c0-0.553-0.447-1-1-1h-5c-0.553,0-1,0.447-1,1v8C13,17.553,13.447,18,14,18z"/> <rect x="11" y="9" transform="matrix(4.547455e-11 1 -1 4.547455e-11 33 9)" width="2" height="24"/></symbol><symbol id="placement-y-evenly" viewBox="0 0 24 24"><path d="M3,8.2v7.6C3,16.5,3.5,17,4.1,17h15.8c0.6,0,1.1-0.5,1.1-1.2V8.3c0-0.8-0.5-1.2-1.1-1.2H4.1C3.5,7,3,7.5,3,8.2z"/><path d="M11,23L11,23c0,0.6-0.4,1-1,1H1c-0.6,0-1-0.4-1-1l0,0c0-0.6,0.4-1,1-1h9C10.6,22,11,22.4,11,23z"/><path d="M24,23L24,23c0,0.6-0.4,1-1,1h-9c-0.6,0-1-0.4-1-1l0,0c0-0.6,0.4-1,1-1h9C23.6,22,24,22.4,24,23z"/><path d="M11,1L11,1c0,0.6-0.4,1-1,1H1C0.4,2,0,1.6,0,1l0,0c0-0.6,0.4-1,1-1h9C10.6,0,11,0.4,11,1z"/><path d="M24,1L24,1c0,0.6-0.4,1-1,1h-9c-0.6,0-1-0.4-1-1l0,0c0-0.6,0.4-1,1-1h9C23.6,0,24,0.4,24,1z"/></symbol><symbol id="placement-y-start" viewBox="0 0 24 24"><path d="M19,6h-5c-0.553,0-1,0.447-1,1v14c0,0.553,0.447,1,1,1h5c0.553,0,1-0.447,1-1V7C20,6.447,19.553,6,19,6z"/> <path d="M10,6H5C4.447,6,4,6.447,4,7v8c0,0.553,0.447,1,1,1h5c0.553,0,1-0.447,1-1V7C11,6.447,10.553,6,10,6z"/> <rect x="11" y="-9" transform="matrix(4.547455e-11 1 -1 4.547455e-11 15 -9)" width="2" height="24"/></symbol><symbol id="placement-y-stretch" viewBox="0 0 24 24"><rect width="7" height="2"/> <rect y="11" width="7" height="2"/> <rect y="22" width="7" height="2"/> <rect y="5" width="4" height="2"/> <rect y="17" width="4" height="2"/> <rect x="11" width="13" height="24" rx="1" ry="1"/></symbol><symbol id="plus" viewBox="0 0 384 512"><path d="M368 224H224V80c0-8.84-7.16-16-16-16h-32c-8.84 0-16 7.16-16 16v144H16c-8.84 0-16 7.16-16 16v32c0 8.84 7.16 16 16 16h144v144c0 8.84 7.16 16 16 16h32c8.84 0 16-7.16 16-16V288h144c8.84 0 16-7.16 16-16v-32c0-8.84-7.16-16-16-16z"/></symbol><symbol id="preview-sizer-lg" viewBox="0 0 24 24"><g>
<path d="M21,13.795V4c0-1.103-0.897-2-2-2H5C3.897,2,3,2.897,3,4v9.795l-2.322,5.417
c-0.265,0.62-0.202,1.326,0.169,1.889C1.218,21.664,1.842,22,2.517,22h18.967c0.674,0,1.298-0.336,1.67-0.899
c0.371-0.563,0.434-1.269,0.168-1.889L21,13.795z M19,13H5V4h14V13z"/>
</g></symbol><symbol id="preview-sizer-md" viewBox="0 0 24 24"><g>
<path d="M20,0H4C2.346,0,1,1.346,1,3v18c0,1.654,1.346,3,3,3h16c1.654,0,3-1.346,3-3V3C23,1.346,21.654,0,20,0z
 M12,22c-0.552,0-1-0.448-1-1s0.448-1,1-1s1,0.448,1,1S12.552,22,12,22z M21,17c0,0.552-0.448,1-1,1H4c-0.552,0-1-0.448-1-1V4
c0-0.552,0.448-1,1-1h16c0.552,0,1,0.448,1,1V17z"/>
</g></symbol><symbol id="preview-sizer-sm" viewBox="0 0 24 24"><g>
<path d="M18,0H6C4.346,0,3,1.346,3,3v18c0,1.654,1.346,3,3,3h12c1.654,0,3-1.346,3-3V3C21,1.346,19.654,0,18,0z
 M12,22c-0.552,0-1-0.448-1-1s0.448-1,1-1s1,0.448,1,1S12.552,22,12,22z M19,17c0,0.552-0.448,1-1,1H6c-0.552,0-1-0.448-1-1V4
c0-0.552,0.448-1,1-1h12c0.552,0,1,0.448,1,1V17z"/>
</g></symbol><symbol id="preview-sizer-xl" viewBox="0 0 24 24"><g>
<circle data-color="color-2" cx="12" cy="5" r="1"/>
<path d="M21,0H3C1.346,0,0,1.346,0,3v14c0,1.654,1.346,3,3,3h7v2H6c-0.552,0-1,0.448-1,1s0.448,1,1,1h12
c0.552,0,1-0.448,1-1s-0.448-1-1-1h-4v-2h7c1.654,0,3-1.346,3-3V3C24,1.346,22.654,0,21,0z M22,15H2V3c0-0.552,0.448-1,1-1h18
c0.552,0,1,0.448,1,1V15z"/>
</g></symbol><symbol id="preview-sizer-xs" viewBox="0 0 24 24"><g>
<path d="M17,0H7C5.3,0,4,1.3,4,3v18c0,1.7,1.3,3,3,3h10c1.7,0,3-1.3,3-3V3C20,1.3,18.7,0,17,0z M12,21
c-1.1,0-2-0.9-2-2s0.9-2,2-2s2,0.9,2,2S13.1,21,12,21z M17,14c0,0.6-0.4,1-1,1H8c-0.6,0-1-0.4-1-1V4c0-0.6,0.4-1,1-1h8
c0.6,0,1,0.4,1,1V14z"/>
</g></symbol></svg>